<svg width="120" height="123" viewBox="0 0 120 123" fill="none" xmlns="http://www.w3.org/2000/svg">
<g clip-path="url(#clip0_122_6)">
<path d="M3.22047 88.9783C2.65342 87.6418 2.10777 86.3053 1.57282 84.9688C-2.4607 74.8008 2.59992 65.6271 7.1149 56.6459L13.6627 43.6445C14.9787 41.0249 17.0008 38.8224 19.4829 37.2828L38.3132 25.6072L56.9188 6.38308C58.0737 5.18539 59.5476 4.34319 61.1663 3.95601L73.8339 0.898119C79.9644 -0.566675 82.5964 -0.331453 84.5757 2.48053C91.4337 12.2102 96.0236 20.2184 102.133 29.916C105.46 35.1978 113.142 47.3332 113.623 48.1351C115.1 50.6156 114.501 52.6898 114.447 55.5339C114.319 62.088 115.474 68.6743 117.871 74.7794C118.588 76.597 119.412 78.3932 119.786 80.3071C120.128 82.0285 119.668 92.9663 119.315 96.6658C119.026 99.6702 111.922 110.886 109.376 112.244C106.573 113.741 85.7954 121.375 81.2055 122.679C76.6156 123.984 56.7155 119.44 46.3802 117.857C39.9929 116.884 33.5949 115.901 27.2076 114.928C21.6655 114.083 16.1556 114.724 13.0528 109.133C9.40449 102.589 6.1306 95.8639 3.22047 88.9783Z" fill="url(#paint0_linear_122_6)"/>
<path d="M27.1969 114.917C33.5842 115.89 39.9822 116.874 46.3695 117.846C49.6969 118.36 54.0193 119.172 58.5021 120.006C55.485 116.435 50.9808 112.201 47.9636 108.63C47.311 107.86 46.6477 107.058 46.4123 106.075C46.1662 105.027 46.4444 103.947 46.7332 102.91C47.6534 99.5098 47.8887 95.8211 48.8089 92.4211C43.1063 93.7469 29.9679 96.2702 28.8873 95.9601C27.689 95.618 26.7154 94.7519 25.7846 93.9072C19.0121 87.7273 13.7161 81.4939 8.53781 73.9561C7.92797 73.0687 7.30743 72.1492 7.08275 71.0907C6.86877 70.0963 7.02925 69.0699 7.18974 68.0755C7.5749 65.595 8.43082 58.7201 9.11556 52.6578L7.10415 56.6459C2.59987 65.6271 -2.46076 74.8008 1.58346 84.9688C2.11841 86.316 2.66406 87.6525 3.23111 88.9783C6.13338 95.8622 9.40856 102.583 13.0421 109.111C16.1341 114.714 21.6548 114.072 27.1969 114.917Z" fill="url(#paint1_linear_122_6)"/>
<path d="M84.6612 2.59812C83.3452 1.04779 80.7775 1.34717 78.0813 3.80631L68.388 13.4932C67.7889 14.092 67.4679 14.9152 67.5214 15.7599L68.5592 35.54C68.5913 36.2029 68.8374 36.823 69.2653 37.3255C72.7104 41.3457 84.8859 60.666 88.4165 60.666C91.9365 60.666 98.0884 46.959 101.223 47.0338C101.758 47.0445 104.551 47.2156 107.279 48.0495C109.825 48.8194 110.82 45.3231 110.296 42.8426C107.664 38.6727 104.123 33.0808 102.133 29.916C96.0449 20.2612 91.4658 12.2743 84.6612 2.59812Z" fill="url(#paint2_linear_122_6)"/>
<path d="M39.5543 41.5382C43.1171 41.0036 55.0037 38.9828 57.2398 38.1061C61.605 36.3847 65.4566 29.05 68.003 25.1047C68.003 25.1047 68.8803 37.9671 68.003 42.9923C67.3931 46.4885 65.0928 64.7717 62.7819 69.1554L48.809 92.4211L28.2776 71.9033C26.5336 70.1605 25.4209 69.241 24.7897 66.7711C23.3453 61.1258 20.7241 52.7968 20.7134 47.8892C20.7027 42.9816 33.9373 42.3721 39.5543 41.5382Z" fill="url(#paint3_linear_122_6)"/>
<path d="M65.5208 14.1347C64.1513 12.4988 63.7662 10.1787 64.2369 8.10445C64.6328 6.37236 68.2276 3.02579 69.3938 1.96729L61.1663 3.95599C59.5494 4.34754 58.0766 5.18909 56.9188 6.38305L38.3132 25.6071C38.3132 25.6071 56.3304 18.1014 65.5208 14.1347Z" fill="url(#paint4_linear_122_6)"/>
<path d="M117.86 74.7794C116.064 70.196 114.96 65.371 114.586 60.4629C108.445 64.6648 105.011 70.1177 95.1248 71.4542C92.5035 71.807 88.4486 72.2989 85.8915 72.9724C82.7246 73.8064 79.7931 76.148 75.0427 76.5863C71.6619 76.9071 63.1348 76.6612 64.4186 78.5643C65.7025 80.4675 73.3523 84.3059 75.2567 85.8562C77.9636 88.0267 80.3174 90.5821 82.5748 93.2123C83.7517 94.5915 85.5171 97.9381 87.5713 98.8469C88.0955 99.0822 88.6519 99.1463 89.2082 98.9752C90.1818 98.6865 90.9629 97.9809 91.7225 97.3073C99.0878 90.7864 107.367 85.3762 116.298 81.248C117.25 80.8096 118.277 80.3178 118.748 79.3769C118.951 78.9599 119.037 78.3933 119.048 77.7838C118.673 76.7788 118.256 75.7844 117.86 74.7794Z" fill="url(#paint5_linear_122_6)"/>
<path d="M119.775 80.3071C119.636 79.6121 119.433 78.9279 119.198 78.2543C119.016 78.8851 118.62 79.5801 117.764 80.2323C115.303 82.1141 105.813 85.0116 95.3709 94.1532C88.5557 100.119 88.545 100.921 87.0792 107.497C84.6826 118.263 80.8738 122.177 80.1462 122.84C80.5421 122.797 80.8952 122.743 81.184 122.658C85.7846 121.364 106.551 113.719 109.355 112.223C111.901 110.865 119.005 99.6488 119.294 96.6444C119.658 92.9664 120.118 82.0285 119.775 80.3071Z" fill="url(#paint6_linear_122_6)"/>
</g>
<defs>
<linearGradient id="paint0_linear_122_6" x1="87.4066" y1="14.4555" x2="38.1748" y2="139.62" gradientUnits="userSpaceOnUse">
<stop stop-color="#9E958E"/>
<stop offset="0.46" stop-color="#8E8884"/>
<stop offset="1" stop-color="#757575"/>
</linearGradient>
<linearGradient id="paint1_linear_122_6" x1="3.14445" y1="120.409" x2="44.1045" y2="74.8337" gradientUnits="userSpaceOnUse">
<stop stop-color="#37474F"/>
<stop offset="0.612" stop-color="#42565F" stop-opacity="0.192"/>
<stop offset="0.757" stop-color="#455A64" stop-opacity="0"/>
</linearGradient>
<linearGradient id="paint2_linear_122_6" x1="100.178" y1="63.277" x2="73.7003" y2="4.50421" gradientUnits="userSpaceOnUse">
<stop stop-color="#9E958E"/>
<stop offset="0.442" stop-color="#AEA298"/>
<stop offset="1" stop-color="#C9B8A9"/>
</linearGradient>
<linearGradient id="paint3_linear_122_6" x1="33.7897" y1="103.739" x2="44.475" y2="45.7322" gradientUnits="userSpaceOnUse">
<stop stop-color="#4C5C64"/>
<stop offset="1" stop-color="#455A64" stop-opacity="0"/>
</linearGradient>
<linearGradient id="paint4_linear_122_6" x1="38.3154" y1="13.7883" x2="69.396" y2="13.7883" gradientUnits="userSpaceOnUse">
<stop stop-color="#4C5C64"/>
<stop offset="1" stop-color="#455A64" stop-opacity="0"/>
</linearGradient>
<linearGradient id="paint5_linear_122_6" x1="87.0267" y1="73.8674" x2="123.776" y2="89.0243" gradientUnits="userSpaceOnUse">
<stop stop-color="#9E958E"/>
<stop offset="0.25" stop-color="#AEA298"/>
<stop offset="0.566" stop-color="#C9B8A9"/>
</linearGradient>
<linearGradient id="paint6_linear_122_6" x1="105.627" y1="123.852" x2="98.1042" y2="94.1583" gradientUnits="userSpaceOnUse">
<stop stop-color="#37474F"/>
<stop offset="0.808" stop-color="#42565F" stop-opacity="0.192"/>
<stop offset="1" stop-color="#455A64" stop-opacity="0"/>
</linearGradient>
<clipPath id="clip0_122_6">
<rect width="120" height="123" fill="white"/>
</clipPath>
</defs>
</svg>
