<svg width="33" height="40" viewBox="0 0 33 40" fill="none" xmlns="http://www.w3.org/2000/svg">
<g clip-path="url(#clip0_255_31)">
<path d="M16.4899 18.44C21.5047 18.44 25.5699 14.3121 25.5699 9.22C25.5699 4.12793 21.5047 0 16.4899 0C11.4752 0 7.40991 4.12793 7.40991 9.22C7.40991 14.3121 11.4752 18.44 16.4899 18.44Z" fill="#CBCBCC"/>
<path d="M29.6 39.32H3.38C1.52 39.32 0 37.79 0 35.89L0.64 28C0.77 26.73 0.94 25.52 1.23 24.42C1.71 22.55 4.52 19.6 8.05 19.11C9.74 18.88 11.4 19.23 11.4 19.23C12.23 19.41 12.37 19.55 13.71 19.85C15.24 20.19 16.05 20.21 16.34 20.21C16.82 20.21 17.22 20.18 18 20.11C19.2 20 20.1 19.85 20.31 19.82C22.57 19.44 22.24 19.19 23.54 19.09C24.78 19 26.64 19.11 26.71 19.11C26.75 19.11 26.81 19.11 26.83 19.11C29.87 19.55 32.05 23.57 32.27 26.66L32.97 35.88C32.97 37.77 31.46 39.31 29.59 39.31L29.6 39.32Z" fill="#CBCBCC"/>
</g>
<defs>
<clipPath id="clip0_255_31">
<rect width="32.97" height="39.32" fill="white"/>
</clipPath>
</defs>
</svg>
