<svg width="57" height="40" viewBox="0 0 57 40" fill="none" xmlns="http://www.w3.org/2000/svg">
<path d="M56.6316 19.2604C56.6711 20.8122 56.5525 22.4884 55.5657 23.6888C54.7826 24.6384 53.5823 25.13 52.635 25.9198C51.494 26.8714 50.7268 28.2534 49.4532 29.0214C48.2924 29.7223 46.7777 29.8012 45.5477 29.2267C44.3196 28.6502 43.412 27.438 43.2083 26.0974L43.1865 26.0876C43.5702 25.2347 43.8253 24.3403 43.9716 23.4262L44.379 23.4558C44.7092 24.6207 45.1917 25.9533 46.3426 26.3324C47.1831 26.6068 48.1105 26.2554 48.8264 25.7362C49.5403 25.2169 50.1276 24.5358 50.8474 24.0225C51.4822 23.5723 52.2099 23.2584 52.8051 22.7549C54.0055 21.7362 54.484 20.0778 54.5038 18.5043C54.5077 18.1726 54.4919 17.8389 54.4583 17.5092L56.505 17.3098C56.5762 17.9574 56.6138 18.6109 56.6316 19.2604Z" fill="#CCCCCB"/>
<path d="M56.5051 17.3095L54.4584 17.509C54.1638 14.6502 52.477 11.9256 49.9299 10.589C47.0882 9.09643 43.2895 9.53473 41.0074 11.7914L40.8492 11.9019C40.343 11.1793 39.7833 10.4942 39.1782 9.85062L39.5302 9.60383C40.337 8.37186 41.5591 7.4163 42.9493 6.92865C44.205 6.48838 45.5715 6.42717 46.8905 6.61078C50.5588 7.12015 53.8889 9.6137 55.4076 12.9858C56.0206 14.3501 56.3469 15.8189 56.5051 17.3095Z" fill="#CCCCCB"/>
<path d="M54.4578 17.5087C54.4914 17.8384 54.5073 18.172 54.5033 18.5037C54.4835 20.0772 54.005 21.7357 52.8046 22.7544C52.2094 23.2579 51.4817 23.5718 50.8469 24.0219C50.1271 24.5352 49.5398 25.2164 48.8259 25.7356C48.11 26.2549 47.1826 26.6063 46.3421 26.3319C45.1912 25.9528 44.7087 24.6201 44.3785 23.4553L43.9711 23.4257C44.4398 20.482 43.7655 17.3231 42.4465 14.6045C41.9897 13.6647 41.4557 12.7585 40.8486 11.9016L41.0068 11.7911C43.2889 9.53445 47.0877 9.09616 49.9293 10.5887C52.4764 11.9253 54.1632 14.6499 54.4578 17.5087Z" fill="#CBCBCC"/>
<path d="M33.6646 30.6279L31.8453 30.4995C30.3423 30.3179 28.7663 31.0188 27.8982 32.2567L25.5766 32.6555C25.5904 32.6752 25.6023 32.6969 25.6141 32.7167L25.4124 32.843C22.7289 32.9082 20.0336 32.0415 17.89 30.4285C16.9606 29.7276 16.1379 28.8885 15.4517 27.9507C14.9119 27.2163 14.4551 26.4226 14.0952 25.5875C13.8519 25.0307 13.6542 24.4562 13.5019 23.8678C12.8157 21.2302 13.055 18.4128 13.8223 15.7969C13.9587 15.3349 14.111 14.8768 14.281 14.4247C14.6231 13.5225 15.0364 12.6419 15.517 11.8048C16.7193 9.71009 18.3547 7.88386 20.3994 6.6124C24.1429 4.28667 29.0174 4.0537 33.1168 5.67461C35.4226 6.58476 37.4792 8.04378 39.1778 9.85027C39.783 10.4939 40.3426 11.179 40.8488 11.9016C41.4559 12.7584 41.9899 13.6646 42.4467 14.6044C43.7657 17.323 44.44 20.4819 43.9713 23.4256C43.825 24.3397 43.5699 25.2341 43.1863 26.087C43.1289 26.2192 43.0676 26.3495 43.0023 26.4798C42.0017 28.4778 40.3683 30.083 38.6894 31.5617L37.8608 31.5913C37.7066 31.3919 37.5266 31.2182 37.3131 31.08C36.2432 30.385 34.8333 30.8095 33.6349 31.2557C33.6389 31.0464 33.6487 30.8371 33.6646 30.6279ZM38.6063 20.089C38.6063 18.784 37.5069 17.7277 36.1523 17.7277C34.7977 17.7277 33.6962 18.784 33.6962 20.089C33.6962 21.394 34.7957 22.4523 36.1523 22.4523C37.5088 22.4523 38.6063 21.394 38.6063 20.089ZM20.9274 23.9626C22.284 23.9626 23.3835 22.9044 23.3835 21.6013C23.3835 20.2983 22.284 19.2381 20.9274 19.2381C19.5709 19.2381 18.4714 20.2963 18.4714 21.6013C18.4714 22.9063 19.5709 23.9626 20.9274 23.9626Z" fill="#CCCCCB"/>
<path d="M33.9719 33.4474C33.9581 33.4237 33.9442 33.398 33.9304 33.3743C33.7208 32.9775 33.6693 32.5195 33.6476 32.0733C33.6338 31.8008 33.6298 31.5284 33.6357 31.2559C34.8341 30.8097 36.2441 30.3852 37.3139 31.0802C37.5275 31.2184 37.7074 31.3921 37.8617 31.5915C38.1998 32.0279 38.3995 32.5826 38.4905 33.1335C38.7792 34.9044 38.0416 36.8077 36.6317 37.9212C35.2217 39.0347 33.1987 39.315 31.5376 38.626C30.4302 38.166 29.5225 37.3328 28.6801 36.4799C28.603 36.401 28.5259 36.324 28.4487 36.245L30.7842 35.8462C30.9582 35.0604 31.6899 34.4345 32.4927 34.3793L33.9719 33.4474Z" fill="#CCCCCB"/>
<path d="M36.1533 17.7283C37.5079 17.7283 38.6074 18.7845 38.6074 20.0895C38.6074 21.3946 37.5079 22.4528 36.1533 22.4528C34.7987 22.4528 33.6973 21.3946 33.6973 20.0895C33.6973 18.7845 34.7968 17.7283 36.1533 17.7283ZM37.2805 19.6216C37.2805 18.8773 36.5666 18.2732 35.6866 18.2732C34.8066 18.2732 34.0928 18.8773 34.0928 19.6216C34.0928 20.3659 34.8066 20.9681 35.6866 20.9681C36.5666 20.9681 37.2805 20.3659 37.2805 19.6216Z" fill="white"/>
<path d="M35.6862 18.2727C36.5661 18.2727 37.28 18.8768 37.28 19.6212C37.28 20.3655 36.5661 20.9676 35.6862 20.9676C34.8062 20.9676 34.0923 20.3655 34.0923 19.6212C34.0923 18.8768 34.8062 18.2727 35.6862 18.2727Z" fill="#B3B2B2"/>
<path d="M33.636 31.2565C33.63 31.529 33.634 31.8014 33.6478 32.0739C33.6696 32.5201 33.721 32.9781 33.9306 33.3749C33.9445 33.3986 33.9583 33.4243 33.9722 33.448L32.493 34.3799C31.6901 34.4351 30.9584 35.061 30.7844 35.8468L28.449 36.2456C27.393 35.1597 26.4023 34.0047 25.6152 32.7175C25.6033 32.6978 25.5915 32.676 25.5776 32.6563L27.8992 32.2575C28.7674 31.0196 30.3434 30.3187 31.8463 30.5003L33.6656 30.6287C33.6498 30.838 33.6399 31.0472 33.636 31.2565Z" fill="#CCCCCB"/>
<path d="M23.3838 21.602C23.3838 22.9051 22.2843 23.9633 20.9277 23.9633C19.5712 23.9633 18.4717 22.9051 18.4717 21.602C18.4717 20.299 19.5712 19.2388 20.9277 19.2388C22.2843 19.2388 23.3838 20.297 23.3838 21.602ZM23.0358 21.1321C23.0358 20.3878 22.3219 19.7837 21.4419 19.7837C20.5619 19.7837 19.848 20.3878 19.848 21.1321C19.848 21.8764 20.5619 22.4806 21.4419 22.4806C22.3219 22.4806 23.0358 21.8764 23.0358 21.1321Z" fill="white"/>
<path d="M21.442 22.4801C22.3223 22.4801 23.0359 21.8764 23.0359 21.1317C23.0359 20.3869 22.3223 19.7832 21.442 19.7832C20.5617 19.7832 19.8481 20.3869 19.8481 21.1317C19.8481 21.8764 20.5617 22.4801 21.442 22.4801Z" fill="#B3B2B2"/>
<path d="M15.1909 11.7675L15.5172 11.805C15.0367 12.6421 14.6234 13.5226 14.2813 14.4249L13.8126 14.263C12.3947 13.6608 10.9512 13.0508 9.42057 12.877C7.88998 12.7033 6.23086 13.0231 5.10763 14.0754C4.33245 14.8039 3.87762 15.8108 3.56715 16.8276C3.02927 18.5867 2.86712 20.4603 3.09453 22.2866C3.19143 23.0565 3.35952 23.8305 3.73722 24.5096C4.31663 25.5461 5.3212 26.2648 6.29611 26.9459C7.39363 27.7159 8.49312 28.4859 9.59262 29.2559C10.2234 29.6981 10.9472 30.1621 11.7085 30.0298C12.2267 29.939 12.6617 29.5777 12.9939 29.169C13.779 28.2016 14.1251 26.8926 13.9174 25.6646L14.0954 25.5876C14.4553 26.4227 14.9121 27.2164 15.452 27.9508L15.3254 28.0456C15.5924 29.6033 14.7678 31.2874 13.3716 32.0298C11.9755 32.7741 10.1147 32.5214 8.96772 31.4315C8.41996 30.9103 8.03236 30.2312 7.44504 29.7554C6.59274 29.0604 5.4359 28.8827 4.4511 28.3931C2.55072 27.4494 1.40969 25.3724 1.10516 23.2737C0.798645 21.177 1.20997 19.0447 1.72412 16.9895C1.94955 16.0774 2.19872 15.1652 2.60213 14.3163C3.66405 12.0774 5.82349 10.3874 8.25582 9.89384C10.6901 9.40224 13.338 10.1169 15.1909 11.7675Z" fill="#CCCCCB"/>
<path d="M13.8126 14.2631L14.2813 14.425C14.1112 14.8771 13.959 15.3352 13.8225 15.7972C13.0552 18.4131 12.816 21.2304 13.5022 23.8681C13.6544 24.4565 13.8522 25.031 14.0954 25.5877L13.9174 25.6647C14.1251 26.8928 13.779 28.2017 12.9939 29.1691C12.6617 29.5778 12.2267 29.9391 11.7086 30.0299C10.9472 30.1622 10.2235 29.6982 9.59263 29.256C8.49313 28.486 7.39364 27.716 6.29612 26.9461C5.32121 26.2649 4.31664 25.5463 3.73723 24.5098C3.35953 23.8306 3.19144 23.0567 3.09454 22.2867C2.86713 20.4605 3.02928 18.5869 3.56717 16.8277C3.87763 15.811 4.33246 14.8041 5.10764 14.0756C6.23087 13.0233 7.88999 12.7034 9.42058 12.8772C10.9512 13.0509 12.3948 13.661 13.8126 14.2631Z" fill="#CBCBCC"/>
<path d="M38.6894 31.5617C40.3683 30.083 42.0017 28.4778 43.0023 26.4798C43.0676 26.3495 43.1289 26.2192 43.1863 26.087C43.5699 25.2341 43.825 24.3397 43.9713 23.4256C44.44 20.4819 43.7657 17.323 42.4467 14.6044C41.9899 13.6646 41.4559 12.7584 40.8488 11.9016C40.3426 11.179 39.783 10.4939 39.1778 9.85027C37.4792 8.04378 35.4226 6.58476 33.1168 5.67461C29.0174 4.0537 24.1429 4.28667 20.3994 6.6124C18.3547 7.88386 16.7193 9.71009 15.517 11.8048C15.0364 12.6419 14.6231 13.5225 14.281 14.4247C14.111 14.8768 13.9587 15.3349 13.8223 15.7969C13.055 18.4128 12.8157 21.2302 13.5019 23.8678C13.6542 24.4562 13.8519 25.0307 14.0952 25.5875C14.4551 26.4226 14.9119 27.2163 15.4517 27.9507C16.1379 28.8885 16.9606 29.7276 17.89 30.4285C20.0336 32.0415 22.7289 32.9082 25.4124 32.843" stroke="#B3B2B2" stroke-width="0.5" stroke-linecap="round" stroke-linejoin="round"/>
<path d="M23.9853 27.3687C23.9675 29.1218 24.539 30.8474 25.411 32.3715C25.4644 32.4663 25.5218 32.5611 25.5772 32.6558C25.591 32.6756 25.6029 32.6973 25.6147 32.717C26.4018 34.0043 27.3925 35.1593 28.4485 36.2451C28.5256 36.3241 28.6027 36.4011 28.6799 36.4801C29.5223 37.333 30.43 38.1661 31.5374 38.6261C33.1985 39.3152 35.2215 39.0348 36.6314 37.9213C38.0414 36.8078 38.779 34.9046 38.4903 33.1336C38.3993 32.5828 38.1996 32.028 37.8614 31.5917C37.7072 31.3923 37.5272 31.2185 37.3137 31.0803C36.2438 30.3854 34.8339 30.8099 33.6355 31.2561C33.6315 31.2561 33.6276 31.2561 33.6236 31.26" stroke="#B3B2B2" stroke-width="0.5" stroke-linecap="round" stroke-linejoin="round"/>
<path d="M34.3039 27.5347C33.9558 28.5337 33.7423 29.5761 33.6651 30.6284C33.6493 30.8377 33.6394 31.047 33.6355 31.2562C33.6295 31.5287 33.6335 31.8011 33.6473 32.0736C33.6691 32.5198 33.7205 32.9778 33.9301 33.3747C33.944 33.3984 33.9578 33.424 33.9717 33.4477C34.1892 33.809 34.5669 34.0913 34.9881 34.0913C35.4864 34.0894 35.9373 33.6333 35.9353 33.1358C35.9333 32.6383 35.4765 32.1881 34.9782 32.1921" stroke="#B3B2B2" stroke-width="0.5" stroke-linecap="round" stroke-linejoin="round"/>
<path d="M25.5415 23.9042C27.4063 22.9783 29.5618 22.6485 31.6164 22.9763" stroke="#B3B2B2" stroke-width="0.5" stroke-linecap="round" stroke-linejoin="round"/>
<path d="M26.8716 28.04C28.2736 27.1891 29.9901 26.8712 31.6038 27.1634" stroke="#B3B2B2" stroke-width="0.5" stroke-linecap="round" stroke-linejoin="round"/>
<path d="M27.8979 32.2577C28.7661 31.0198 30.3421 30.319 31.8451 30.5006" stroke="#B3B2B2" stroke-width="0.5" stroke-linecap="round" stroke-linejoin="round"/>
<path d="M30.7837 35.847C30.9577 35.0613 31.6894 34.4354 32.4923 34.3801" stroke="#B3B2B2" stroke-width="0.5" stroke-linecap="round" stroke-linejoin="round"/>
<path d="M15.1909 11.7682C13.338 10.1177 10.6901 9.40297 8.25582 9.89457C5.82349 10.3881 3.66405 12.0782 2.60213 14.317C2.19872 15.166 1.94955 16.0781 1.72412 16.9902C1.20997 19.0455 0.798645 21.1777 1.10516 23.2744C1.40969 25.3731 2.55072 27.4501 4.4511 28.3938C5.4359 28.8834 6.59274 29.0611 7.44505 29.7561C8.03236 30.2319 8.41996 30.9111 8.96773 31.4323C10.1147 32.5221 11.9755 32.7748 13.3716 32.0305C14.7678 31.2881 15.5924 29.6041 15.3254 28.0463" stroke="#B3B2B2" stroke-width="0.5" stroke-linecap="round" stroke-linejoin="round"/>
<path d="M13.8126 14.2631C12.3948 13.661 10.9512 13.0509 9.42059 12.8772C7.89 12.7034 6.23087 13.0233 5.10764 14.0756C4.33246 14.8041 3.87763 15.811 3.56717 16.8277C3.02928 18.5869 2.86713 20.4605 3.09454 22.2867C3.19144 23.0567 3.35953 23.8306 3.73723 24.5098C4.31664 25.5463 5.32121 26.2649 6.29612 26.9461C7.39364 27.716 8.49313 28.486 9.59263 29.256C10.2235 29.6982 10.9472 30.1622 11.7086 30.0299C12.2267 29.9391 12.6617 29.5778 12.9939 29.1691C13.779 28.2017 14.1251 26.8928 13.9174 25.6647" stroke="#B3B2B2" stroke-width="0.5" stroke-linecap="round" stroke-linejoin="round"/>
<path d="M23.3838 21.602C23.3838 22.9051 22.2843 23.9633 20.9277 23.9633C19.5712 23.9633 18.4717 22.9051 18.4717 21.602C18.4717 20.299 19.5712 19.2388 20.9277 19.2388C22.2843 19.2388 23.3838 20.297 23.3838 21.602Z" stroke="white" stroke-width="0.5" stroke-linecap="round" stroke-linejoin="round"/>
<path d="M21.442 22.4803C22.3223 22.4803 23.0359 21.8766 23.0359 21.1319C23.0359 20.3872 22.3223 19.7834 21.442 19.7834C20.5617 19.7834 19.8481 20.3872 19.8481 21.1319C19.8481 21.8766 20.5617 22.4803 21.442 22.4803Z" stroke="#B3B2B2" stroke-width="0.5" stroke-linecap="round" stroke-linejoin="round"/>
<path d="M34.6494 15.2011C35.9803 14.982 37.3942 15.3117 38.4917 16.0975" stroke="#B3B2B2" stroke-width="0.5" stroke-linecap="round" stroke-linejoin="round"/>
<path d="M39.5303 9.60408C40.3371 8.37211 41.5592 7.41654 42.9494 6.92889C44.2051 6.48862 45.5716 6.42742 46.8906 6.61103C50.5588 7.1204 53.889 9.61395 55.4077 12.9861C56.0207 14.3503 56.347 15.8192 56.5052 17.3098C56.5764 17.9574 56.614 18.6109 56.6318 19.2604C56.6713 20.8122 56.5527 22.4884 55.5659 23.6888C54.7828 24.6384 53.5824 25.13 52.6352 25.9197C51.4942 26.8714 50.7269 28.2534 49.4534 29.0214C48.2926 29.7222 46.7778 29.8012 45.5478 29.2267C44.3198 28.6502 43.4121 27.438 43.2084 26.0974" stroke="#B3B2B2" stroke-width="0.5" stroke-linecap="round" stroke-linejoin="round"/>
<path d="M41.0068 11.7918C43.2889 9.53519 47.0877 9.09689 49.9293 10.5895C52.4764 11.9261 54.1632 14.6506 54.4578 17.5094C54.4915 17.8391 54.5073 18.1728 54.5033 18.5045C54.4835 20.078 54.005 21.7364 52.8046 22.7551C52.2094 23.2586 51.4817 23.5725 50.8469 24.0226C50.1271 24.536 49.5398 25.2171 48.8259 25.7363C48.11 26.2556 47.1826 26.607 46.3421 26.3326C45.1912 25.9535 44.7087 24.6209 44.3785 23.456" stroke="#B3B2B2" stroke-width="0.5" stroke-linecap="round" stroke-linejoin="round"/>
<path d="M25.7337 4.47069C25.6427 3.57041 25.3639 2.68987 24.9209 1.90015" stroke="#B3B2B2" stroke-width="0.5" stroke-linecap="round" stroke-linejoin="round"/>
<path d="M25.9109 4.3504C25.6657 3.25268 25.5391 2.12733 25.5352 1" stroke="#B3B2B2" stroke-width="0.5" stroke-linecap="round" stroke-linejoin="round"/>
<path d="M26.2138 4.4058C25.9982 3.75626 26.2909 2.97443 26.8822 2.62695" stroke="#B3B2B2" stroke-width="0.5" stroke-linecap="round" stroke-linejoin="round"/>
<path d="M23.0166 26.9756C23.4912 27.1256 24.0152 27.1079 24.478 26.9302" stroke="#B3B2B2" stroke-width="0.5" stroke-linecap="round" stroke-linejoin="round"/>
<path d="M33.8506 26.8396C34.1887 27.0903 34.5862 27.2582 34.9995 27.3273" stroke="#B3B2B2" stroke-width="0.5" stroke-linecap="round" stroke-linejoin="round"/>
<path d="M21.8394 16.644C20.382 16.4249 18.8356 16.7546 17.6372 17.5404" stroke="#B3B2B2" stroke-width="0.5" stroke-linecap="round" stroke-linejoin="round"/>
<path d="M38.6074 20.0895C38.6074 21.3946 37.5079 22.4528 36.1533 22.4528C34.7987 22.4528 33.6973 21.3946 33.6973 20.0895C33.6973 18.7845 34.7968 17.7283 36.1533 17.7283C37.5099 17.7283 38.6074 18.7845 38.6074 20.0895Z" stroke="white" stroke-width="0.5" stroke-linecap="round" stroke-linejoin="round"/>
<path d="M37.28 19.6214C37.28 20.3657 36.5661 20.9679 35.6862 20.9679C34.8062 20.9679 34.0923 20.3657 34.0923 19.6214C34.0923 18.8771 34.8062 18.2729 35.6862 18.2729C36.5661 18.2729 37.28 18.8771 37.28 19.6214Z" stroke="#B3B2B2" stroke-width="0.5" stroke-linecap="round" stroke-linejoin="round"/>
</svg>
