<svg width="92" height="92" viewBox="0 0 92 92" fill="none" xmlns="http://www.w3.org/2000/svg">
<g filter="url(#filter0_d_1004_611)">
<rect x="5" y="1" width="81.75" height="82" rx="15" fill="white"/>
<path d="M48.2768 40.849C48.3028 40.7798 48.3374 40.7192 48.372 40.65C49.4969 38.357 50.7861 36.1332 52.2138 34.0132C52.2052 34.0046 52.2225 33.9959 52.2225 33.9959C53.8838 32.0231 56.073 30.4137 58.6083 29.9464C61.9483 29.3321 65.5306 30.8723 67.59 33.5806C69.658 36.2803 70.2291 39.975 69.3551 43.2631C69.2253 43.765 69.0177 44.3101 68.5418 44.5264C68.1956 44.6822 67.7976 44.6216 67.4255 44.5524C62.8136 43.7477 58.2016 42.9343 53.5896 42.1296L53.5464 42.3805C51.7985 42.069 50.016 41.9046 48.2422 41.7402V41.7056H47.8701C47.9999 41.4201 48.1384 41.1345 48.2768 40.849Z" fill="#ED328F"/>
<path d="M47.8689 41.7056H48.2409V41.7402C50.0148 41.9046 51.7972 42.069 53.5451 42.3805C54.7998 42.5968 56.0371 42.8997 57.2399 43.3236C60.1213 44.3447 62.821 46.1791 64.2746 48.8615C65.7283 51.5525 65.6764 55.1521 63.6603 57.4451C62.6825 58.544 61.3673 59.2708 60.078 59.9631C58.235 60.9668 56.4006 61.9619 54.5575 62.9569C53.6317 63.4588 52.6279 63.978 51.5809 63.8655C50.1705 63.7184 49.1322 62.4983 48.4313 61.261C46.9863 58.6997 46.3892 55.853 46.2335 52.911C46.6834 50.6786 46.6748 48.3856 46.4844 46.0926C46.3633 44.6389 46.1729 43.1852 45.9739 41.7488V41.7056H47.8689Z" fill="#ED328F"/>
<path d="M45.2469 39.0665C45.2643 39.0059 45.2902 38.9453 45.3162 38.8848L45.4892 38.9453C47.8082 34.9997 50.828 31.4693 54.367 28.5706C53.3374 28.6658 52.524 27.264 53.1297 26.416C53.7267 25.5681 55.3189 25.8709 55.5698 26.8746C55.5784 25.9401 55.5871 25.0056 55.5958 24.0625C55.8121 23.9846 56.0457 23.95 56.2793 23.9673C56.712 23.9759 57.136 24.1403 57.4475 24.4259C56.8937 23.8375 57.1706 22.704 57.9407 22.4357C58.6762 22.1761 59.5588 22.8424 59.5588 23.6039C59.6712 22.7472 59.7751 21.8733 59.8789 21.008C61.3153 20.8782 62.6565 22.3492 62.3969 23.7596C63.5823 23.8115 64.5687 25.0489 64.3524 26.2084C63.9198 26.2862 63.4698 26.2689 63.0458 26.1738C62.8555 25.9747 62.6046 25.8623 62.3277 25.9055C62.5613 26.018 62.7949 26.1132 63.0458 26.1738C63.3314 26.4679 63.4698 26.9352 63.2968 27.3159C63.0026 27.9476 62.12 28.1639 61.5056 27.8264C61.2201 27.6707 61.0038 27.4371 60.8567 27.1515C60.8913 26.7708 60.8134 26.3814 60.6144 26.0699C60.5971 26.442 60.675 26.8227 60.8567 27.1515C60.8134 27.5582 60.623 27.9476 60.3202 28.2245C59.7318 28.7436 58.754 28.7696 58.1483 28.2677C58.1137 28.761 58.0878 29.2628 58.0532 29.756C57.2744 29.332 56.2793 29.5138 55.5179 29.981C54.7651 30.4483 54.2026 31.1751 53.6835 31.8933C53.1816 32.5855 52.6884 33.2864 52.2211 33.9959C52.2211 33.9959 52.2038 34.0046 52.2125 34.0132C52.1 34.1344 51.9962 34.2642 51.8923 34.394C50.4214 36.2803 49.357 38.4608 48.3706 40.65C48.336 40.7192 48.3014 40.7797 48.2754 40.849C48.137 41.1345 47.9985 41.4201 47.8688 41.7056H44.4942L44.2778 41.4633C44.5807 40.7105 44.8835 39.9577 45.1777 39.2136C45.2037 39.1617 45.221 39.1184 45.2469 39.0665Z" fill="#EAE611"/>
<path d="M56.341 23.3441L56.2804 23.9671C56.0468 23.9498 55.8132 23.9844 55.5969 24.0623C55.5882 25.0054 55.5796 25.9399 55.5709 26.8745C55.32 25.8707 53.7279 25.5679 53.1308 26.4159C52.5251 27.2638 53.3385 28.6656 54.3682 28.5704C50.8292 31.4691 47.8093 34.9995 45.4903 38.9452L45.3173 38.8846C45.2913 38.9452 45.2654 39.0057 45.2481 39.0663C45.1615 38.9365 45.0837 38.8067 45.0058 38.6769C44.2011 36.3147 43.0243 34.0909 41.5187 32.0921C41.1293 31.0365 40.8351 29.9549 40.6707 28.83C40.4371 27.2033 40.5496 25.3948 41.6139 24.1402C42.5224 23.0586 43.9502 22.5913 45.3086 22.176C47.195 21.5962 49.1245 20.9992 51.106 21.0165C53.0876 21.0338 55.1556 21.752 56.341 23.3441Z" fill="#ED328F"/>
<path d="M43.5946 41.9219V41.8527C44.3733 41.8094 45.1434 41.7661 45.9222 41.7229V41.7056H45.9741V41.7488C46.1731 43.1852 46.3635 44.6389 46.4846 46.0926C46.2596 48.3683 46.1125 50.6699 46.2337 52.911C46.1818 53.1965 46.1125 53.4734 46.0433 53.7503C45.0396 57.6528 42.1149 61.3389 38.1346 61.9705C35.4176 62.4118 32.6574 61.3821 30.2865 59.989C28.5386 58.9507 26.808 57.5662 26.2889 55.5934C25.7091 53.4129 26.7907 51.1285 28.1579 49.3374C30.8922 45.7637 34.959 43.2717 39.3547 42.3372C40.7478 42.0344 42.1668 41.8873 43.5946 41.9219Z" fill="#ED328F"/>
<path d="M39.3028 42.1035C35.4696 42.8563 31.5325 43.0467 27.6474 42.6573C26.1245 42.5102 24.4285 42.1641 23.5632 40.8921C22.698 39.6288 22.9921 37.9415 23.3729 36.4618C23.9959 33.9958 24.7746 31.5124 26.2975 29.479C27.8204 27.4456 30.2086 25.914 32.7526 26.0006C35.0542 26.0871 37.1222 27.4715 38.8009 29.0464C39.796 29.9809 40.7045 31.0019 41.5179 32.0922C42.3745 34.4025 43.6811 36.5743 45.005 38.677C45.0655 38.85 45.1261 39.0317 45.178 39.2135C44.8838 39.9576 44.581 40.7104 44.2781 41.4632L44.4945 41.7055H45.9222V41.7228C45.1434 41.766 44.3733 41.8093 43.5946 41.8526V41.9218C42.1668 41.8872 40.7478 42.0343 39.3547 42.3371L39.3028 42.1035Z" fill="#ED328F"/>
<path d="M45.2469 39.0666C45.221 39.1185 45.2037 39.1618 45.1777 39.2137C45.1258 39.032 45.0652 38.8503 45.0046 38.6772C45.0825 38.807 45.1604 38.9368 45.2469 39.0666Z" fill="#ED328F"/>
<path d="M45.178 39.2135C45.1261 39.0317 45.0655 38.85 45.005 38.677C44.2003 36.3147 43.0235 34.091 41.5179 32.0922C40.7045 31.0019 39.796 29.9809 38.8009 29.0464C37.1222 27.4715 35.0542 26.0871 32.7526 26.0006C30.2086 25.914 27.8204 27.4456 26.2975 29.479C24.7746 31.5124 23.9959 33.9958 23.3729 36.4618C22.9921 37.9415 22.698 39.6288 23.5632 40.8921C24.4285 42.1641 26.1245 42.5102 27.6474 42.6573C31.5325 43.0467 35.4695 42.8563 39.3028 42.1035C40.8257 41.8093 42.3312 41.4199 43.8109 40.944" stroke="#231F20" stroke-miterlimit="10"/>
<path d="M44.0012 41.9307C43.8715 41.9221 43.733 41.9221 43.5946 41.9221C42.1668 41.8875 40.7478 42.0346 39.3547 42.3374C34.959 43.2719 30.8922 45.7639 28.1579 49.3376C26.7907 51.1287 25.7091 53.4131 26.2889 55.5936C26.808 57.5664 28.5386 58.9509 30.2865 59.9892C32.6574 61.3823 35.4176 62.412 38.1346 61.9707C42.1149 61.3391 45.0396 57.6529 46.0433 53.7505C46.1125 53.4736 46.1818 53.1967 46.2337 52.9112C46.6836 50.6788 46.675 48.3858 46.4846 46.0928C46.3635 44.6391 46.1731 43.1854 45.9741 41.749" stroke="#231F20" stroke-miterlimit="10"/>
<path d="M46.8043 43.2718C46.6918 44.2063 46.5794 45.1495 46.4842 46.0926C46.2592 48.3683 46.1121 50.67 46.2332 52.9111C46.389 55.853 46.986 58.6998 48.4311 61.261C49.1319 62.4984 50.1703 63.7184 51.5807 63.8655C52.6277 63.978 53.6314 63.4589 54.5573 62.957C56.4003 61.9619 58.2347 60.9669 60.0778 59.9631C61.3671 59.2709 62.6823 58.5441 63.6601 57.4451C65.6762 55.1521 65.7281 51.5526 64.2744 48.8615C62.8207 46.1791 60.121 44.3447 57.2397 43.3237C56.0369 42.8997 54.7995 42.5969 53.5449 42.3805C51.797 42.069 50.0145 41.9046 48.2407 41.7402" stroke="#231F20" stroke-miterlimit="10"/>
<path d="M48.2762 40.8491C48.1637 41.0914 48.0512 41.3423 47.9387 41.5933" stroke="#231F20" stroke-miterlimit="10"/>
<path d="M52.2132 34.0132C52.1007 34.1343 51.9969 34.2641 51.8931 34.3939C50.4221 36.2802 49.3578 38.4607 48.3713 40.6499" stroke="#231F20" stroke-miterlimit="10"/>
<path d="M53.5881 42.1296C58.2001 42.9343 62.812 43.7477 67.424 44.5524C67.7961 44.6216 68.1941 44.6822 68.5402 44.5264C69.0161 44.3101 69.2238 43.765 69.3536 43.2631C70.2275 39.975 69.6564 36.2803 67.5884 33.5806C65.529 30.8723 61.9467 29.3321 58.6067 29.9464C56.0715 30.4137 53.8823 32.0231 52.2209 33.9959" stroke="#231F20" stroke-miterlimit="10"/>
<path d="M45.3519 39.2394C45.3173 39.1788 45.2827 39.1269 45.2481 39.0663C45.1615 38.9365 45.0837 38.8067 45.0058 38.6769C43.6819 36.5743 42.3753 34.4024 41.5187 32.0921C41.1293 31.0365 40.8351 29.9549 40.6707 28.83C40.4371 27.2033 40.5496 25.3948 41.6139 24.1402C42.5224 23.0586 43.9502 22.5913 45.3086 22.176C47.195 21.5962 49.1245 20.9992 51.106 21.0165C53.0876 21.0338 55.1556 21.752 56.341 23.3441" stroke="#231F20" stroke-miterlimit="10"/>
<path d="M60.8565 27.1514C60.8132 27.5581 60.6228 27.9474 60.32 28.2243C59.7316 28.7435 58.7538 28.7694 58.1481 28.2676C58.1135 28.7608 58.0876 29.2627 58.053 29.7559C57.2742 29.3319 56.2791 29.5136 55.5177 29.9808C54.7649 30.4481 54.2024 31.1749 53.6833 31.8931C53.1814 32.5854 52.6882 33.2862 52.2209 33.9958C52.2209 33.9958 52.2036 34.0044 52.2123 34.0131C50.7846 36.133 49.4953 38.3568 48.3704 40.6498C48.3358 40.719 48.3012 40.7796 48.2752 40.8488C48.1368 41.1344 47.9983 41.4199 47.8686 41.7054C47.8253 41.792 47.782 41.8872 47.7388 41.9737" stroke="#231F20" stroke-miterlimit="10"/>
<path d="M60.856 27.1514C60.6743 26.8226 60.5964 26.4419 60.6137 26.0698C60.8127 26.3813 60.8906 26.7707 60.856 27.1514Z" stroke="#231F20" stroke-miterlimit="10"/>
<path d="M63.0456 26.1733C63.3312 26.4675 63.4696 26.9348 63.2965 27.3155C63.0023 27.9472 62.1198 28.1635 61.5054 27.826C61.2199 27.6703 61.0035 27.4367 60.8564 27.1511" stroke="#231F20" stroke-miterlimit="10"/>
<path d="M63.0466 26.1734C62.7956 26.1129 62.562 26.0177 62.3284 25.9052C62.6053 25.8619 62.8562 25.9744 63.0466 26.1734Z" stroke="#231F20" stroke-miterlimit="10"/>
<path d="M59.55 23.699C59.55 23.699 59.5587 23.6385 59.5587 23.6039C59.6712 22.7472 59.775 21.8733 59.8789 21.008C61.3152 20.8782 62.6564 22.3492 62.3968 23.7596C63.5823 23.8115 64.5687 25.0489 64.3524 26.2084C63.9197 26.2862 63.4698 26.2689 63.0458 26.1738" stroke="#231F20" stroke-miterlimit="10"/>
<path d="M45.49 38.9452C47.809 34.9995 50.8288 31.4691 54.3678 28.5704C53.3381 28.6656 52.5248 27.2638 53.1305 26.4158C53.7275 25.5679 55.3196 25.8707 55.5706 26.8744C55.5792 25.9399 55.5879 25.0054 55.5965 24.0623C55.8128 23.9844 56.0465 23.9498 56.2801 23.9671C56.7127 23.9757 57.1367 24.1402 57.4482 24.4257C56.8944 23.8373 57.1713 22.7038 57.9414 22.4355C58.6769 22.176 59.5595 22.8422 59.5595 23.6037" stroke="#231F20" stroke-miterlimit="10"/>
<path d="M45.5144 37.803C45.6096 35.9599 45.7134 34.1082 45.8173 32.2651" stroke="#231F20" stroke-miterlimit="10"/>
<path d="M44.3042 39.8624C42.392 38.4953 40.4883 37.1195 38.5847 35.7437" stroke="#231F20" stroke-miterlimit="10"/>
<path d="M44.278 40.2342C42.6772 39.3862 40.8601 38.9622 39.0603 39.0228" stroke="#231F20" stroke-miterlimit="10"/>
<path d="M44.0357 42.8906C43.1272 44.4135 41.8552 45.7115 40.3496 46.6546" stroke="#231F20" stroke-miterlimit="10"/>
<path d="M44.3819 43.1333C44.4771 44.9504 44.2348 46.7935 43.6724 48.5327" stroke="#231F20" stroke-miterlimit="10"/>
<path d="M47.6616 42.7095C48.8903 43.7305 49.695 45.2448 49.8508 46.8369" stroke="#231F20" stroke-miterlimit="10"/>
<path d="M48.4229 43.1333C50.2399 43.5746 51.9705 44.3966 53.4675 45.5301" stroke="#231F20" stroke-miterlimit="10"/>
<path d="M49.0454 41.1607C50.1097 39.3956 51.3817 37.7602 52.8354 36.2979" stroke="#231F20" stroke-miterlimit="10"/>
<path d="M49.8506 40.217C50.837 40.1219 51.8321 40.018 52.8272 39.9229" stroke="#231F20" stroke-miterlimit="10"/>
<path d="M43.5938 41.8524C44.3725 41.8092 45.1426 41.7659 45.9214 41.7227" stroke="#231F20" stroke-miterlimit="10"/>
<path d="M49.271 41.7056H44.4946" stroke="#231F20" stroke-miterlimit="10"/>
<path d="M45.3162 38.8848C45.2902 38.9453 45.2643 39.0059 45.2469 39.0665C45.221 39.1184 45.2037 39.1617 45.1777 39.2136C44.8835 39.9577 44.5807 40.7105 44.2778 41.4633" stroke="#231F20" stroke-miterlimit="10"/>
</g>
<defs>
<filter id="filter0_d_1004_611" x="0" y="0" width="91.75" height="92" filterUnits="userSpaceOnUse" color-interpolation-filters="sRGB">
<feFlood flood-opacity="0" result="BackgroundImageFix"/>
<feColorMatrix in="SourceAlpha" type="matrix" values="0 0 0 0 0 0 0 0 0 0 0 0 0 0 0 0 0 0 127 0" result="hardAlpha"/>
<feOffset dy="4"/>
<feGaussianBlur stdDeviation="2.5"/>
<feComposite in2="hardAlpha" operator="out"/>
<feColorMatrix type="matrix" values="0 0 0 0 0 0 0 0 0 0 0 0 0 0 0 0 0 0 0.25 0"/>
<feBlend mode="normal" in2="BackgroundImageFix" result="effect1_dropShadow_1004_611"/>
<feBlend mode="normal" in="SourceGraphic" in2="effect1_dropShadow_1004_611" result="shape"/>
</filter>
</defs>
</svg>
