<svg width="19" height="36" viewBox="0 0 19 36" fill="none" xmlns="http://www.w3.org/2000/svg">
<g clip-path="url(#clip0_426_549)">
<path d="M2.62939 33.37V2.62988" stroke="white" stroke-width="5" stroke-miterlimit="10" stroke-linecap="round"/>
<path d="M18.9999 3.46399C18.8422 4.1102 18.6468 4.63619 18.474 5.02692C18.2637 5.50031 18.136 5.6581 17.6401 6.58234C17.2494 7.30369 17.3095 7.23606 16.8888 8.02504C15.9948 9.69317 15.8746 9.72323 15.8971 10.0538C15.9272 10.5047 16.1526 10.407 16.9264 11.9474C16.9865 12.0676 16.9865 12.0676 17.3997 12.9092C17.6401 13.3976 17.8129 13.7433 17.8505 13.8184C18.0834 14.2918 18.444 15.1183 18.9999 16.6813H5.64209V3.46399H19.0075H18.9999Z" fill="white"/>
</g>
<defs>
<clipPath id="clip0_426_549">
<rect width="19" height="36" fill="white"/>
</clipPath>
</defs>
</svg>
