<svg width="94" height="92" viewBox="0 0 94 92" fill="none" xmlns="http://www.w3.org/2000/svg">
<g filter="url(#filter0_d_525_542)">
<rect x="5" y="1" width="84" height="82" rx="20" fill="white"/>
<path d="M76.2216 30.5588C77.863 31.9142 78.1532 34.1526 77.9376 36.163C77.3615 41.5143 74.0537 46.3434 70.5966 50.7994C66.551 56.0181 61.8214 61.2783 55.1975 63.5498C49.1622 65.6182 42.2937 64.8555 36.5113 62.4638C30.7288 60.0721 25.9122 56.1798 21.6427 51.9766C19.9598 50.3186 18.3308 48.5818 17.2448 46.5673C16.1546 44.5486 15.6406 42.2024 16.2789 40.0097C16.9173 37.8169 18.8489 35.8355 21.3277 35.3464C24.6935 34.679 27.9599 36.8096 29.8128 39.3589C29.6884 41.6677 29.705 44.1216 31.247 45.9248C32.9548 47.9186 36.0222 48.5072 38.8491 48.6647C44.4036 48.9714 50.0575 48.1383 55.2514 46.2481C57.9582 45.2615 60.6152 43.9392 62.4473 41.8998C64.2505 39.8936 65.1168 37.0832 64.0888 34.7371C65.4525 33.0666 66.9241 31.4334 68.9096 30.3971C71.1852 29.1992 74.3231 29.0002 76.2299 30.5712L76.2216 30.5588Z" fill="#A67C52"/>
<path d="M54.7871 19.3457C53.4234 23.3458 51.2762 28.3572 46.0326 29.2691C40.6232 30.2059 37.3569 25.4225 35.2429 21.8577L35.2097 21.7623C36.6895 21.2981 38.2274 22.0608 39.6865 22.5375C43.3715 23.7271 47.8109 22.923 50.7622 20.5395C51.6451 19.8266 52.5944 18.9188 53.7633 19.0058C54.1364 19.039 54.4763 19.1633 54.7871 19.3499V19.3457Z" fill="#8C6339"/>
<path d="M46.0327 29.2691C51.2763 28.3572 53.4235 23.3457 54.7872 19.3457C55.1188 19.5364 55.4131 19.7851 55.695 20.0338C60.1178 23.98 62.9034 29.3645 63.4339 34.9728C62.2526 37.2817 60.1634 39.1884 57.7593 40.5604C55.2432 41.9988 52.3872 42.8942 49.498 43.5284C45.9581 44.3118 42.2482 44.7222 38.7041 44.0838C35.1642 43.4413 31.7901 41.6299 30.0947 38.7946L30.0491 38.8029C28.8636 33.7624 29.8957 28.295 32.8802 23.8141C33.4481 22.9603 34.1569 22.0939 35.1973 21.7665C35.1973 21.7665 35.2056 21.7665 35.2098 21.7623L35.2429 21.8576C37.357 25.4225 40.6275 30.2059 46.0327 29.2691Z" fill="#A67C52"/>
<path d="M55.2472 46.2395C50.0534 48.1297 44.3995 48.967 38.845 48.6561C36.0139 48.4986 32.9506 47.91 31.2428 45.9162C29.7009 44.1131 29.6843 41.6592 29.8086 39.3503C29.8211 39.2011 29.8293 39.056 29.8376 38.9109L30.0615 38.8653C30.0573 38.8446 30.049 38.8197 30.049 38.7949L30.0946 38.7866C31.79 41.6218 35.1641 43.4374 38.7041 44.0758C42.2481 44.7183 45.958 44.3079 49.498 43.5203C52.3871 42.882 55.2431 41.9908 57.7592 40.5524C60.1634 39.1804 62.2525 37.2736 63.4339 34.9648C63.4504 35.1057 63.4629 35.2384 63.4712 35.3793L63.5209 35.4124C63.7033 35.1803 63.894 34.9523 64.0805 34.7202C65.1126 37.0664 64.2422 39.8767 62.439 41.883C60.6069 43.9224 57.954 45.2488 55.2431 46.2312L55.2472 46.2395Z" fill="black"/>
</g>
<defs>
<filter id="filter0_d_525_542" x="0" y="0" width="94" height="92" filterUnits="userSpaceOnUse" color-interpolation-filters="sRGB">
<feFlood flood-opacity="0" result="BackgroundImageFix"/>
<feColorMatrix in="SourceAlpha" type="matrix" values="0 0 0 0 0 0 0 0 0 0 0 0 0 0 0 0 0 0 127 0" result="hardAlpha"/>
<feOffset dy="4"/>
<feGaussianBlur stdDeviation="2.5"/>
<feComposite in2="hardAlpha" operator="out"/>
<feColorMatrix type="matrix" values="0 0 0 0 0 0 0 0 0 0 0 0 0 0 0 0 0 0 0.25 0"/>
<feBlend mode="normal" in2="BackgroundImageFix" result="effect1_dropShadow_525_542"/>
<feBlend mode="normal" in="SourceGraphic" in2="effect1_dropShadow_525_542" result="shape"/>
</filter>
</defs>
</svg>
