<svg width="38" height="38" viewBox="0 0 38 38" fill="none" xmlns="http://www.w3.org/2000/svg">
<g clip-path="url(#clip0_426_277)">
<path d="M6.04883 16.1321H31.9603V35.2127C31.9603 36.6467 30.804 37.8118 29.3808 37.8118H8.62842C7.20519 37.8118 6.04883 36.6467 6.04883 35.2127V16.1321Z" fill="#0EB7DE" stroke="#0EB7DE" stroke-width="0.42" stroke-miterlimit="10"/>
<path d="M19.0443 0.313721L6.27979 15.8005H31.8088L19.0443 0.313721Z" fill="#0EB7DE" stroke="#0EB7DE" stroke-width="0.42" stroke-miterlimit="10"/>
<path d="M2.07275 22.6207L19.0002 2.08813" stroke="#CCCCCB" stroke-width="4.65" stroke-miterlimit="10" stroke-linecap="round"/>
<path d="M35.9363 22.6207L19 2.08813" stroke="#CCCCCB" stroke-width="4.65" stroke-miterlimit="10" stroke-linecap="round"/>
<path d="M15.7709 20.6133H12.88C12.1529 20.6133 11.5635 21.2071 11.5635 21.9397V25.3454C11.5635 26.0779 12.1529 26.6718 12.88 26.6718H15.7709C16.4979 26.6718 17.0874 26.0779 17.0874 25.3454V21.9397C17.0874 21.2071 16.4979 20.6133 15.7709 20.6133Z" fill="white"/>
<path d="M24.6664 20.6133H21.7755C21.0484 20.6133 20.459 21.2071 20.459 21.9397V25.3454C20.459 26.0779 21.0484 26.6718 21.7755 26.6718H24.6664C25.3935 26.6718 25.9829 26.0779 25.9829 25.3454V21.9397C25.9829 21.2071 25.3935 20.6133 24.6664 20.6133Z" fill="white"/>
<path d="M15.7175 28.6792H12.9333C12.1768 28.6792 11.5635 29.2971 11.5635 30.0594V33.3575C11.5635 34.1198 12.1768 34.7377 12.9333 34.7377H15.7175C16.4741 34.7377 17.0874 34.1198 17.0874 33.3575V30.0594C17.0874 29.2971 16.4741 28.6792 15.7175 28.6792Z" fill="white"/>
<path d="M24.6931 28.6792H21.7488C21.0364 28.6792 20.459 29.261 20.459 29.9787V33.4382C20.459 34.1559 21.0364 34.7377 21.7488 34.7377H24.6931C25.4054 34.7377 25.9829 34.1559 25.9829 33.4382V29.9787C25.9829 29.261 25.4054 28.6792 24.6931 28.6792Z" fill="white"/>
</g>
<defs>
<clipPath id="clip0_426_277">
<rect width="38" height="38" fill="white"/>
</clipPath>
</defs>
</svg>
