<svg width="38" height="44" viewBox="0 0 38 44" fill="none" xmlns="http://www.w3.org/2000/svg">
<path d="M37.5146 35.5907V37.6323H0.764648V35.5907L4.84798 31.5073V19.2573C4.84798 12.9282 8.99257 7.35441 15.0563 5.55774V4.96566C15.0563 3.88269 15.4865 2.84408 16.2523 2.0783C17.0181 1.31253 18.0567 0.882324 19.1396 0.882324C20.2226 0.882324 21.2612 1.31253 22.027 2.0783C22.7928 2.84408 23.223 3.88269 23.223 4.96566V5.55774C29.2867 7.35441 33.4313 12.9282 33.4313 19.2573V31.5073L37.5146 35.5907ZM23.223 39.674C23.223 40.757 22.7928 41.7956 22.027 42.5613C21.2612 43.3271 20.2226 43.7573 19.1396 43.7573C18.0567 43.7573 17.0181 43.3271 16.2523 42.5613C15.4865 41.7956 15.0563 40.757 15.0563 39.674" fill="#CBCBCC"/>
</svg>
