<svg width="37" height="43" viewBox="0 0 37 43" fill="none" xmlns="http://www.w3.org/2000/svg">
<path d="M36.75 34.7083V36.75H0V34.7083L4.08333 30.625V18.375C4.08333 12.0458 8.22792 6.47208 14.2917 4.67542V4.08333C14.2917 3.00037 14.7219 1.96175 15.4876 1.19598C16.2534 0.430207 17.292 0 18.375 0C19.458 0 20.4966 0.430207 21.2624 1.19598C22.0281 1.96175 22.4583 3.00037 22.4583 4.08333V4.67542C28.5221 6.47208 32.6667 12.0458 32.6667 18.375V30.625L36.75 34.7083ZM22.4583 38.7917C22.4583 39.8746 22.0281 40.9132 21.2624 41.679C20.4966 42.4448 19.458 42.875 18.375 42.875C17.292 42.875 16.2534 42.4448 15.4876 41.679C14.7219 40.9132 14.2917 39.8746 14.2917 38.7917" fill="#706F6F"/>
</svg>
