<svg width="109" height="76" viewBox="0 0 109 76" fill="none" xmlns="http://www.w3.org/2000/svg">
<g clip-path="url(#clip0_285_197)">
<g clip-path="url(#clip1_285_197)">
<path d="M44.4498 0.452515H71.7325C76.0486 0.452515 79.5501 3.97488 79.5501 8.31669V66.9495C79.5501 71.6949 75.7203 75.5475 71.003 75.5475H45.0091C40.2917 75.5475 36.4619 71.6949 36.4619 66.9495V8.50015C36.4498 4.0605 40.0364 0.452515 44.4498 0.452515Z" fill="#FF8559" stroke="#FF8559" stroke-width="0.74" stroke-miterlimit="10"/>
<path d="M60.886 43.482C60.886 44.538 60.226 45.132 59.324 45.132C58.422 45.132 57.762 44.538 57.762 43.482V33.296L56.266 34.264C55.848 34.55 55.452 34.638 55.078 34.638C54.242 34.638 53.648 34 53.648 33.252C53.648 32.526 54.022 32.13 54.748 31.646L58.004 29.49C58.202 29.446 58.378 29.424 58.664 29.424C59.742 29.424 60.886 30.018 60.886 31.888V43.482Z" fill="white"/>
</g>
<path d="M6.55811 18.4522H27.4531C30.7587 18.4522 33.4404 21.1258 33.4404 24.4214V68.926C33.4404 72.5279 30.5073 75.4522 26.8944 75.4522H6.98644C3.37358 75.4522 0.440453 72.5279 0.440453 68.926V24.5607C0.431142 21.1908 3.17804 18.4522 6.55811 18.4522Z" fill="#FFED8B" stroke="#FFED8B" stroke-width="0.74" stroke-miterlimit="10"/>
<g clip-path="url(#clip2_285_197)">
<path d="M87.0054 36H104.101C106.806 36 109 37.8762 109 40.1889V71.4202C109 73.9479 106.6 76 103.644 76H87.3558C84.3998 76 82 73.9479 82 71.4202V40.2866C81.9924 37.9218 84.2399 36 87.0054 36Z" fill="#81C25E" stroke="#81C25E" stroke-width="0.74" stroke-miterlimit="10"/>
<path d="M98.6944 57.94C98.6944 59.575 97.3294 61.165 94.8244 61.165C93.9694 61.165 93.0844 60.94 92.6044 60.655C92.3494 60.505 92.0644 60.22 92.0644 59.725C92.0644 59.215 92.4394 58.81 92.9794 58.81C93.1894 58.81 93.3844 58.855 93.5944 58.915C93.9994 59.035 94.4044 59.23 95.1844 59.23C95.5594 59.23 95.9944 59.155 96.3694 58.915C96.4744 58.675 96.5344 58.435 96.5344 58C96.5344 57.13 95.7844 56.545 94.8094 56.545H94.4794C93.8944 56.545 93.4894 56.17 93.4894 55.645C93.4894 55.03 93.9694 54.73 94.5994 54.73C94.9144 54.73 95.2444 54.73 95.5144 54.745C95.9644 54.445 96.2794 53.98 96.2794 53.425C96.2794 52.84 95.8444 52.255 94.9744 52.255C94.5394 52.255 94.3144 52.345 93.8944 52.495C93.6844 52.57 93.5044 52.63 93.2944 52.63C92.8144 52.63 92.3794 52.315 92.3794 51.775C92.3794 51.34 92.6044 51.01 93.0694 50.77C93.6094 50.485 94.4644 50.305 95.1994 50.305C97.4944 50.305 98.4094 51.685 98.4094 52.855C98.4094 53.995 97.8094 54.805 96.9994 55.315V55.345C98.2144 55.87 98.6944 56.965 98.6944 57.94Z" fill="white"/>
</g>
<path d="M12.2734 51.812C12.2734 50.318 12.9574 49.472 15.9634 46.916C17.1514 45.908 17.7274 45.134 17.7274 44.324C17.7274 43.388 16.9894 42.578 15.8374 42.578C15.3334 42.578 14.8114 42.722 14.3434 42.902C14.0734 43.01 13.8214 43.064 13.6054 43.064C12.9934 43.064 12.5794 42.614 12.5794 42.038C12.5794 41.714 12.6874 41.39 12.9394 41.138C13.4614 40.598 14.7214 40.166 16.1794 40.166C18.9334 40.166 20.3734 41.804 20.3734 43.802C20.3734 45.53 19.4734 46.754 17.2954 48.554C16.1254 49.544 15.1894 50.228 15.0634 50.588H19.4554C20.3014 50.588 20.6974 51.146 20.6974 51.776C20.6974 52.496 20.2474 53 19.4554 53H12.6334C12.3994 52.676 12.2734 52.19 12.2734 51.812Z" fill="white"/>
</g>
<defs>
<clipPath id="clip0_285_197">
<rect width="109" height="76" fill="white"/>
</clipPath>
<clipPath id="clip1_285_197">
<rect width="44" height="76" fill="white" transform="translate(36)"/>
</clipPath>
<clipPath id="clip2_285_197">
<rect width="27" height="46" fill="white" transform="translate(82 30)"/>
</clipPath>
</defs>
</svg>
