<svg width="37" height="38" viewBox="0 0 37 38" fill="none" xmlns="http://www.w3.org/2000/svg">
<g clip-path="url(#clip0_426_279)">
<path d="M33.302 27.8948C33.1821 28.0655 33.0222 28.3066 32.8723 28.6381C32.8723 28.6381 32.5424 29.3412 32.4425 30.2553C32.2626 31.8726 32.9622 33.5199 33.0821 33.8012" stroke="#B3B2B2" stroke-width="1.65" stroke-linecap="round" stroke-linejoin="round"/>
<path d="M26.6058 2.56152C26.4859 2.70215 26.336 2.9131 26.1961 3.18431C26.1961 3.18431 25.8962 3.77696 25.8263 4.54038C25.7063 5.8864 26.4659 7.23242 26.5959 7.46345" stroke="#B3B2B2" stroke-width="1.5" stroke-linecap="round" stroke-linejoin="round"/>
<path d="M6.42632 14.5852C6.53626 14.7459 6.68618 14.9669 6.81611 15.2683C6.81611 15.2683 7.10595 15.9212 7.14593 16.7348C7.22588 18.1913 6.43631 19.6278 6.29639 19.8688" stroke="#B3B2B2" stroke-width="1.56" stroke-linecap="round" stroke-linejoin="round"/>
<path d="M35.0013 35.981H3.57829C3.41838 35.9207 3.12853 35.7801 2.86867 35.4989C2.53885 35.1272 2.45889 34.7154 2.4389 34.5546C2.18904 33.6405 2.0791 32.8671 2.03912 32.3046C1.98915 31.6416 1.99914 31.0791 2.00914 30.6271C2.00914 30.4663 2.02913 29.934 2.08909 29.2308C2.12907 28.7185 2.20903 28.0756 2.32896 27.3424C2.35895 27.1415 2.4489 26.6392 2.86867 26.1972C3.11854 25.926 3.39839 25.7854 3.57829 25.7151H35.0013" stroke="#D692F6" stroke-width="4" stroke-linecap="round" stroke-linejoin="round"/>
<path d="M4.89746 20.813H31.8129C31.9428 20.7728 32.1927 20.6824 32.4226 20.4715C32.7724 20.14 32.8324 19.7382 32.8523 19.6076C32.9023 19.256 32.9523 18.8341 32.9823 18.352C33.0223 17.7091 33.0223 17.2169 33.0123 17.016C33.0123 16.7147 32.9923 16.2124 32.9223 15.5796C32.8823 15.2481 32.8424 14.9568 32.8024 14.7358C32.8024 14.6253 32.7524 14.2336 32.4226 13.9021C32.1927 13.6811 31.9428 13.5907 31.8129 13.5605H4.89746" stroke="#81C25E" stroke-width="2.4" stroke-linecap="round" stroke-linejoin="round"/>
<path d="M27.905 8.67892H9.90472C9.79478 8.61865 9.63486 8.50816 9.49494 8.3374C9.23508 8.01596 9.20509 7.66438 9.1951 7.52376C9.11514 6.80052 9.05518 5.99692 9.05518 5.12302C9.05518 4.18884 9.11514 3.32497 9.20509 2.56156C9.20509 2.42093 9.24507 2.08944 9.49494 1.77805C9.63486 1.60729 9.79478 1.49679 9.90472 1.43652H27.915" stroke="#FF8559" stroke-width="2.85" stroke-linecap="round" stroke-linejoin="round"/>
<path d="M16.9709 29.4619C16.2528 29.0596 15.6859 28.6842 15.2953 28.4026C14.615 27.9199 14.3756 27.6518 13.9347 27.6652C13.5442 27.6652 13.3174 27.8797 12.6875 28.3356C12.2969 28.6172 11.7174 29.0194 10.9741 29.4619V17.408H16.9709V29.4619Z" fill="#B3B2B2"/>
<path d="M16.1211 4.55029H25.476" stroke="#B3B2B2" stroke-linecap="round" stroke-linejoin="round"/>
<path d="M18.48 29.8135H31.8428" stroke="#B3B2B2" stroke-width="0.71" stroke-linecap="round" stroke-linejoin="round"/>
<path d="M18.48 31.6216H31.8428" stroke="#B3B2B2" stroke-width="0.71" stroke-linecap="round" stroke-linejoin="round"/>
<path d="M7.6958 17.197H21.0586" stroke="#B3B2B2" stroke-linecap="round" stroke-linejoin="round"/>
</g>
<defs>
<clipPath id="clip0_426_279">
<rect width="37" height="38" fill="white"/>
</clipPath>
</defs>
</svg>
