<svg width="33" height="38" viewBox="0 0 33 38" fill="none" xmlns="http://www.w3.org/2000/svg">
<g clip-path="url(#clip0_426_320)">
<path d="M16.6429 17.821C21.5101 17.821 25.4558 13.8316 25.4558 8.91048C25.4558 3.98936 21.5101 0 16.6429 0C11.7757 0 7.83008 3.98936 7.83008 8.91048C7.83008 13.8316 11.7757 17.821 16.6429 17.821Z" fill="#FF8559"/>
<path d="M29.3673 38H3.91874C2.11346 38 0.638184 36.5214 0.638184 34.6852L1.25935 27.06C1.38553 25.8327 1.55053 24.6633 1.832 23.6002C2.29787 21.793 5.0252 18.942 8.45135 18.4685C10.0916 18.2462 11.7028 18.5845 11.7028 18.5845C12.5084 18.7584 12.6442 18.8937 13.9448 19.1836C15.4298 19.5122 16.216 19.5316 16.4974 19.5316C16.9633 19.5316 17.3516 19.5026 18.1086 19.4349C19.2733 19.3286 20.1468 19.1836 20.3506 19.1546C22.5442 18.7874 22.2239 18.5458 23.4856 18.4492C24.6891 18.3622 26.4944 18.4685 26.5624 18.4685C26.6012 18.4685 26.6594 18.4685 26.6788 18.4685C29.6294 18.8937 31.7452 22.7788 31.9588 25.765L32.6382 34.6755C32.6382 36.5021 31.1726 37.9904 29.3576 37.9904L29.3673 38Z" fill="#FF8559"/>
</g>
<defs>
<clipPath id="clip0_426_320">
<rect width="32" height="38" fill="white" transform="translate(0.638184)"/>
</clipPath>
</defs>
</svg>
