<svg width="31" height="40" viewBox="0 0 31 40" fill="none" xmlns="http://www.w3.org/2000/svg">
<g clip-path="url(#clip0_1029_606)">
<path d="M15.4999 20.6696C20.2148 20.6696 24.0369 16.8511 24.0369 12.1408C24.0369 7.43051 20.2148 3.61206 15.4999 3.61206C10.785 3.61206 6.96289 7.43051 6.96289 12.1408C6.96289 16.8511 10.785 20.6696 15.4999 20.6696Z" fill="#706F6F"/>
<path d="M27.8244 39.9999H3.17561C1.42284 39.9999 0 38.5784 0 36.8274L0.604878 29.5278C0.721729 28.3536 0.89357 27.2342 1.16164 26.2111C1.6153 24.4806 4.25477 21.7475 7.57472 21.2943C9.16253 21.0814 10.7228 21.4042 10.7228 21.4042C11.4996 21.569 11.6302 21.7063 12.8949 21.9742C14.3384 22.2832 15.0945 22.3106 15.3694 22.3106C15.8231 22.3106 16.1942 22.2832 16.9297 22.2214C18.057 22.1184 18.9024 21.981 19.1018 21.9467C21.2257 21.5896 20.9164 21.363 22.133 21.2737C23.3016 21.1913 25.0475 21.2875 25.1162 21.2943C25.1506 21.2943 25.2124 21.2943 25.233 21.3012C28.0925 21.7063 30.1408 25.4282 30.347 28.2917L31 36.8274C31 38.5784 29.5772 39.9999 27.8244 39.9999Z" fill="#706F6F"/>
<path d="M24.0371 3.60522H29.8866" stroke="#706F6F" stroke-width="2" stroke-linecap="round" stroke-linejoin="round"/>
<path d="M26.9583 6.52368V0.686768" stroke="#706F6F" stroke-width="2" stroke-linecap="round" stroke-linejoin="round"/>
</g>
<defs>
<clipPath id="clip0_1029_606">
<rect width="31" height="40" fill="white"/>
</clipPath>
</defs>
</svg>
