<svg width="92" height="92" viewBox="0 0 92 92" fill="none" xmlns="http://www.w3.org/2000/svg">
<g filter="url(#filter0_d_1008_689)">
<rect x="5" y="1" width="81.75" height="82" rx="15" fill="white"/>
<path d="M55.3585 25.4906C56.0826 26.2434 56.7996 26.989 57.5238 27.7419C57.703 27.9283 57.9396 28.129 58.1906 28.0574C58.3841 28 58.4845 27.7921 58.5634 27.6057C58.9147 26.7883 59.266 25.9709 59.6102 25.1536C58.2479 25.2109 56.8857 25.2755 55.5234 25.3328L55.3585 25.4906ZM38.8966 52.4634C40.854 55.8117 43.3419 58.8589 46.2385 61.44C49.4506 58.5792 52.4332 55.4747 55.1577 52.1479C49.9668 54.0121 44.1664 54.1196 38.8966 52.4634ZM29.9989 41.4147C31.7196 43.6445 33.2468 46.0249 34.566 48.5128C34.9747 46.9068 36.6453 45.86 38.3015 45.7381C39.9577 45.6162 41.5781 46.24 43.0479 47.0072C44.5177 47.7743 45.9158 48.6992 47.4789 49.2513C50.9706 50.4845 55.1219 49.6241 57.8392 47.1004C58.4057 46.577 58.9434 45.8457 58.757 45.0928C58.5132 44.1321 57.3015 43.8596 56.3121 43.7592C47.6007 42.9275 38.8966 42.0958 30.1925 41.2641L29.9989 41.4147ZM28.2208 25.0747C25.2381 26.5373 22.6928 28.8675 20.9649 31.7068C22.4849 33.1264 23.7898 34.7755 24.8366 36.5751C24.9226 34.1589 26.5359 32.0796 28.2781 30.4019C30.0204 28.7241 32.0064 27.2257 33.2396 25.1464C31.5619 25.1249 29.8913 25.0962 28.2208 25.0747ZM66.3426 28.1004C66.5291 28.6811 66.6653 29.269 66.6581 29.8713C66.6438 30.7747 66.2423 31.7426 65.4392 32.1585C64.9445 32.4166 64.3638 32.4453 63.8045 32.474C61.9332 32.5457 60.0619 32.6245 58.1906 32.6962C57.8679 32.7106 57.5309 32.7177 57.2298 32.603C56.5128 32.3162 56.2762 31.4487 56.0038 30.7317C54.8638 27.7132 51.6804 25.849 48.4898 25.3902C45.2992 24.9313 42.0657 25.634 38.9253 26.3725C37.0611 26.8098 34.903 27.5268 34.3438 29.3623C33.8706 30.9181 34.8887 32.6173 36.2868 33.4562C37.6849 34.2951 39.3626 34.4815 40.983 34.6464C46.0306 35.1555 51.0781 35.6645 56.1257 36.1736C57.6313 36.3313 59.1441 36.4819 60.5709 36.9838C61.9906 37.4856 63.3385 38.3675 64.0913 39.6724C65.8264 36.9766 67.9845 34.5532 70.4653 32.5242C69.0887 31.0472 67.7192 29.5702 66.3426 28.1004ZM74 32.1441L73.8853 32.3091C69.9491 37.4713 66.0128 42.6336 62.0766 47.7958C57.1725 54.2272 52.1607 60.766 45.4928 65.3332C35.9928 54.1626 26.4928 42.9921 17 31.8143L17.086 31.7426C19.9038 28.6453 22.9366 25.7343 26.1487 23.0528L26.3853 22.8664C32.5657 21.6332 38.9396 21.9774 45.2347 22.3215C51.8668 22.68 58.4917 23.0457 65.1238 23.4113L65.6758 23.3109C67.9128 26.7955 70.7592 29.814 74 32.1441Z" fill="#EE2524"/>
<path d="M66.3427 28.1005C67.7193 29.5703 69.0887 31.0473 70.4653 32.5243C67.9846 34.5534 65.8265 36.9767 64.0914 39.6726C63.3385 38.3677 61.9906 37.4858 60.571 36.9839C59.1442 36.482 57.6314 36.3315 56.1257 36.1737C51.0782 35.6647 46.0306 35.1556 40.9831 34.6466C39.3627 34.4817 37.685 34.2952 36.2868 33.4564C34.8887 32.6175 33.8706 30.9183 34.3438 29.3624C34.9031 27.5269 37.0612 26.81 38.9253 26.3726C42.0657 25.6341 45.2993 24.9315 48.4899 25.3903C51.6804 25.8492 54.8638 27.7134 56.0038 30.7318C56.2763 31.4488 56.5129 32.3164 57.2299 32.6032C57.531 32.7179 57.868 32.7107 58.1906 32.6964C60.0619 32.6247 61.9333 32.5458 63.8046 32.4741C64.3638 32.4454 64.9446 32.4167 65.4393 32.1586C66.2423 31.7428 66.6438 30.7749 66.6582 29.8715C66.6582 29.2692 66.5291 28.6813 66.3427 28.1005Z" fill="#FFF200"/>
<path d="M59.6101 25.1538C59.2659 25.9712 58.9146 26.7885 58.5633 27.6059C58.4844 27.7923 58.3841 28.0002 58.1905 28.0576C57.9395 28.1293 57.7029 27.9285 57.5237 27.7421C56.7995 26.9893 56.0825 26.2436 55.3584 25.4908L55.5233 25.3331C56.8856 25.2757 58.2478 25.2112 59.6101 25.1538Z" fill="#FFF200"/>
<path d="M58.7569 45.0928C58.9433 45.8457 58.4056 46.577 57.8392 47.1004C55.1218 49.6242 50.9705 50.4845 47.4788 49.2513C45.9158 48.6993 44.5176 47.7744 43.0478 47.0072C41.578 46.24 39.9576 45.6162 38.3014 45.7381C36.6452 45.86 34.9746 46.9068 34.566 48.5128C33.2467 46.0249 31.7195 43.6445 29.9988 41.4147L30.1924 41.2642C38.8965 42.0959 47.6007 42.9276 56.312 43.7593C57.3014 43.8596 58.5131 44.1321 58.7569 45.0928Z" fill="#FFF200"/>
<path d="M38.8965 52.4634C44.1663 54.1196 49.9667 54.0121 55.1576 52.1479C52.4331 55.4747 49.4504 58.5793 46.2384 61.44C43.3418 58.8589 40.8538 55.8117 38.8965 52.4634Z" fill="#FFF200"/>
<path d="M28.2207 25.0747C29.8913 25.0962 31.5618 25.1249 33.2396 25.1464C32.0064 27.2257 30.0203 28.7241 28.2781 30.4019C26.5358 32.0796 24.9226 34.1589 24.8365 36.5751C23.7898 34.7755 22.4848 33.1264 20.9648 31.7068C22.6928 28.8675 25.2381 26.5373 28.2207 25.0747Z" fill="#FFF200"/>
</g>
<defs>
<filter id="filter0_d_1008_689" x="0" y="0" width="91.75" height="92" filterUnits="userSpaceOnUse" color-interpolation-filters="sRGB">
<feFlood flood-opacity="0" result="BackgroundImageFix"/>
<feColorMatrix in="SourceAlpha" type="matrix" values="0 0 0 0 0 0 0 0 0 0 0 0 0 0 0 0 0 0 127 0" result="hardAlpha"/>
<feOffset dy="4"/>
<feGaussianBlur stdDeviation="2.5"/>
<feComposite in2="hardAlpha" operator="out"/>
<feColorMatrix type="matrix" values="0 0 0 0 0 0 0 0 0 0 0 0 0 0 0 0 0 0 0.25 0"/>
<feBlend mode="normal" in2="BackgroundImageFix" result="effect1_dropShadow_1008_689"/>
<feBlend mode="normal" in="SourceGraphic" in2="effect1_dropShadow_1008_689" result="shape"/>
</filter>
</defs>
</svg>
