<svg width="45" height="37" viewBox="0 0 45 37" fill="none" xmlns="http://www.w3.org/2000/svg">
<g clip-path="url(#clip0_455_622)">
<path d="M7.21997 20.98C11.6 20.89 15.15 20.98 17.58 21.08C21.2 21.23 24.82 21.03 28.44 21.08C31.34 21.12 32.88 21.18 35.04 20.55C36.67 20.07 38.96 19.4 40.61 17.26C42.31 15.06 42.34 12.61 42.36 11.28C42.39 9.46 42.43 6.18 39.97 4.1C37.76 2.23 34.91 2.51 34.14 2.6" stroke="#706F6F" stroke-width="5.06" stroke-miterlimit="10" stroke-linecap="round"/>
<path d="M15.06 34.34C13.25 32.84 10.73 30.68 7.80003 27.98C3.36003 23.89 2.53003 22.74 2.53003 21.3C2.53003 20.46 2.81003 19.1 7.80003 14.62C10.68 12.04 13.24 10.11 15.06 8.82" stroke="#706F6F" stroke-width="5.06" stroke-miterlimit="10" stroke-linecap="round"/>
</g>
<defs>
<clipPath id="clip0_455_622">
<rect width="44.9" height="36.86" fill="white"/>
</clipPath>
</defs>
</svg>
