<svg width="45" height="37" viewBox="0 0 45 37" fill="none" xmlns="http://www.w3.org/2000/svg">
<g clip-path="url(#clip0_673_874)">
<path d="M7.21997 20.9799C11.6 20.8899 15.15 20.9799 17.58 21.0799C21.2 21.2299 24.82 21.0299 28.44 21.0799C31.34 21.1199 32.88 21.1799 35.04 20.5499C36.67 20.0699 38.96 19.3999 40.61 17.2599C42.31 15.0599 42.34 12.6099 42.36 11.2799C42.39 9.45995 42.43 6.17995 39.97 4.09995C37.76 2.22995 34.91 2.50995 34.14 2.59995" stroke="white" stroke-width="5.06" stroke-miterlimit="10" stroke-linecap="round"/>
<path d="M15.06 34.3401C13.25 32.8401 10.73 30.6801 7.80003 27.9801C3.36003 23.8901 2.53003 22.7401 2.53003 21.3001C2.53003 20.4601 2.81003 19.1001 7.80003 14.6201C10.68 12.0401 13.24 10.1101 15.06 8.82007" stroke="white" stroke-width="5.06" stroke-miterlimit="10" stroke-linecap="round"/>
</g>
<defs>
<clipPath id="clip0_673_874">
<rect width="44.9" height="36.86" fill="white"/>
</clipPath>
</defs>
</svg>
