<svg width="66" height="76" viewBox="0 0 66 76" fill="none" xmlns="http://www.w3.org/2000/svg">
<g clip-path="url(#clip0_426_488)">
<path d="M3.5674 15.0996H62.5899C64.1963 15.0996 65.5071 16.4079 65.5071 18.0113V71.9963C65.5071 73.9342 63.9302 75.4983 61.9986 75.4983H4.01088C2.06941 75.4983 0.502441 73.9244 0.502441 71.9963V18.1589C0.502441 16.4669 1.87231 15.0996 3.5674 15.0996Z" fill="#D692F6" stroke="#D692F6" stroke-width="1.01" stroke-miterlimit="10"/>
<path d="M4.31656 13.0929H61.6539C64.029 13.0929 65.9606 15.0209 65.9606 17.3916V23.4708H0V17.3916C0 15.0209 1.94147 13.0929 4.31656 13.0929Z" fill="#706F6F"/>
<path d="M14.2998 13.0929V3.80688" stroke="#B3B2B2" stroke-width="7.75" stroke-miterlimit="10" stroke-linecap="round"/>
<path d="M51.3555 13.0929V3.80688" stroke="#B3B2B2" stroke-width="7.75" stroke-miterlimit="10" stroke-linecap="round"/>
<path d="M16.8522 32.1765H9.32283C8.13085 32.1765 7.16455 33.141 7.16455 34.3308V42.8889C7.16455 44.0787 8.13085 45.0432 9.32283 45.0432H16.8522C18.0442 45.0432 19.0105 44.0787 19.0105 42.8889V34.3308C19.0105 33.141 18.0442 32.1765 16.8522 32.1765Z" fill="white"/>
<path d="M36.7107 32.1765H29.2602C28.0464 32.1765 27.0625 33.1586 27.0625 34.3701V42.8496C27.0625 44.0611 28.0464 45.0432 29.2602 45.0432H36.7107C37.9245 45.0432 38.9084 44.0611 38.9084 42.8496V34.3701C38.9084 33.1586 37.9245 32.1765 36.7107 32.1765Z" fill="white"/>
<path d="M49.1775 32.1765H56.5688C57.8007 32.1765 58.7961 33.17 58.7961 34.3997V42.7118C58.7961 44.0005 57.7515 45.0432 56.4604 45.0432H49.1775C47.9456 45.0432 46.9502 44.0497 46.9502 42.8201V34.3997C46.9502 33.17 47.9456 32.1765 49.1775 32.1765Z" fill="white"/>
<path d="M16.9609 52.6472H9.56955C8.33947 52.6472 7.34229 53.6426 7.34229 54.8704V63.2908C7.34229 64.5186 8.33947 65.5139 9.56955 65.5139H16.9609C18.191 65.5139 19.1882 64.5186 19.1882 63.2908V54.8704C19.1882 53.6426 18.191 52.6472 16.9609 52.6472Z" fill="white"/>
<path d="M36.7698 52.6472H29.2011C28.02 52.6472 27.0625 53.6029 27.0625 54.7818V63.3793C27.0625 64.5582 28.02 65.5139 29.2011 65.5139H36.7698C37.9509 65.5139 38.9084 64.5582 38.9084 63.3793V54.7818C38.9084 53.6029 37.9509 52.6472 36.7698 52.6472Z" fill="white"/>
<path d="M56.5491 52.4012H49.1972C47.9562 52.4012 46.9502 53.4054 46.9502 54.6441V63.0251C46.9502 64.2638 47.9562 65.2679 49.1972 65.2679H56.5491C57.7901 65.2679 58.7961 64.2638 58.7961 63.0251V54.6441C58.7961 53.4054 57.7901 52.4012 56.5491 52.4012Z" fill="white"/>
</g>
<defs>
<clipPath id="clip0_426_488">
<rect width="66" height="76" fill="white"/>
</clipPath>
</defs>
</svg>
