<svg width="440" height="956" viewBox="0 0 440 956" fill="none" xmlns="http://www.w3.org/2000/svg">
<g clip-path="url(#clip0_739_1938)">
<rect width="440" height="956" fill="white"/>
<g clip-path="url(#clip1_739_1938)">
<path d="M441.703 778.728V957H333.915C340.143 932.449 346.371 907.797 352.6 883.246L353.202 881.242C351.796 871.121 350.39 861.1 348.983 850.979L347.878 848.073C367.768 840.457 387.658 832.841 407.548 825.225L409.959 824.824C414.379 805.784 418.699 786.644 423.119 767.504L425.027 765.099C430.552 769.609 436.178 774.218 441.703 778.728Z" fill="#492A12"/>
<path d="M389.869 676.715C397.101 656.873 404.435 637.032 411.667 617.191L409.558 615.287C402.526 614.986 395.595 614.585 388.663 614.284L386.654 613.984C379.723 604.264 372.691 594.543 365.659 584.823L367.668 582.819C381.631 559.771 397.805 538.125 415.987 518.284L414.781 515.077C409.859 506.159 403.531 497.942 396.097 490.927H392.38C398.91 453.549 406.544 416.572 415.183 379.795L417.092 376.087C424.626 382.1 431.859 388.413 438.79 395.027H441.502V779.028C435.977 774.519 430.352 769.909 424.827 765.4C423.621 764.398 422.316 763.396 421.11 762.293L419.704 760.389C421.11 753.475 422.416 746.46 423.822 739.546L423.119 738.444C414.38 730.126 405.54 721.909 396.8 713.592L395.595 711.588C389.467 702.769 385.047 692.648 382.736 682.126L384.243 681.224C385.951 679.821 387.759 678.418 389.467 677.015H389.668L389.869 676.715Z" fill="#5D381F"/>
<path d="M392.179 313.456C387.558 313.456 382.937 311.953 379.22 309.248V307.143C382.535 298.124 385.85 289.206 389.065 280.187L387.759 278.884C377.311 256.838 367.869 234.391 359.431 211.444L359.631 207.836L367.668 157.832L366.462 155.827C351.997 143.101 337.532 130.374 323.066 117.648L322.664 117.147V85.681C307.295 68.8458 291.724 52.0107 276.154 35.0753L275.752 33.5722C276.154 22.7496 276.455 12.0272 276.756 1.2046V-1H441.602V394.726H438.89C431.959 388.012 424.726 381.699 417.192 375.787C411.366 371.177 405.238 366.668 399.11 362.459L398.909 360.354C401.019 344.421 403.128 328.488 405.238 312.655L403.329 312.454C399.713 311.853 395.896 312.555 392.882 314.559L392.279 313.557L392.179 313.456Z" fill="#492A12"/>
<path d="M28.7352 799.772C18.4889 803.78 9.04613 809.893 1.11022 817.509H1.00977C12.3611 787.045 26.5252 757.584 43.2007 729.826L41.8948 729.124C34.5616 717.3 27.1279 705.575 19.7948 693.75V691.145C25.5207 670.001 31.347 648.857 37.1734 627.612L34.8629 625.608C29.9407 616.589 25.0184 607.57 19.9957 598.552L20.5984 594.944C26.6257 578.009 32.6529 561.174 38.6802 544.238L37.6757 542.334C28.2329 531.411 18.6898 520.388 9.24704 509.466C20.297 492.831 31.347 476.196 42.4975 459.561L41.0911 457.457C40.0866 447.837 38.9816 438.317 37.977 428.697C46.3148 404.847 57.3648 381.899 70.7252 360.354L68.8166 357.047C64.1957 348.029 59.5748 339.01 54.9539 330.091L55.9584 328.989C63.0907 312.655 72.232 297.122 83.1816 283.093L81.072 281.089C76.4511 268.663 70.4239 256.838 63.2916 245.615L62.6889 245.314L67.9125 235.193L67.2093 231.986C66.9079 221.164 66.6066 210.441 66.3052 199.619L68.4148 197.915C70.2229 187.794 72.1316 177.573 73.9398 167.452C75.547 158.834 77.2548 149.715 82.8802 142.8L82.177 140.095V111.936L84.8893 110.332C92.5239 104.42 100.058 98.6079 107.592 92.6956L105.683 90.1904C103.072 80.2697 101.766 70.0483 102.067 59.7268L102.871 57.422C110.003 49.2048 116.332 40.2862 121.656 30.8665L119.847 28.3613C121.857 19.142 122.56 9.62217 121.957 0.20251V-1H276.958V1.30481C276.657 12.1274 276.255 22.8498 275.954 33.6724L276.356 35.1755C291.926 52.0107 307.396 68.8458 322.967 85.7812V88.9879C322.866 98.4075 322.866 107.827 322.866 117.147L323.268 117.648C337.733 130.374 352.199 143.101 366.664 155.827L367.87 157.832L359.833 207.836L359.632 211.444C368.071 234.291 377.513 256.838 387.961 278.884L389.267 280.187C385.952 289.206 382.737 298.225 379.422 307.143V309.248C383.139 311.953 387.76 313.456 392.381 313.456L392.983 314.459C395.997 312.454 399.814 311.753 403.431 312.354L405.339 312.555C403.23 328.488 401.12 344.421 399.011 360.254L399.212 362.359C405.44 366.567 411.467 370.977 417.293 375.686L415.385 379.394C406.645 416.171 399.011 453.248 392.582 490.426H396.298C403.732 497.541 410.061 505.758 414.983 514.677L416.188 517.883C398.006 537.825 381.833 559.47 367.87 582.418L365.861 584.422C372.893 594.142 379.824 603.863 386.856 613.583L388.865 613.884C395.796 614.184 402.828 614.585 409.759 614.886L411.869 616.79C404.636 636.631 397.303 656.473 390.07 676.314H389.869C388.162 677.617 386.353 679.02 384.646 680.423L383.139 681.324C385.449 691.846 389.769 701.968 395.997 710.786L397.202 712.79C405.942 721.107 414.782 729.325 423.522 737.642L424.225 738.744C422.818 745.659 421.513 752.673 420.106 759.588L421.512 761.492C422.718 762.494 424.024 763.496 425.229 764.598L423.321 767.003C418.901 786.143 414.581 805.183 410.161 824.323L407.75 824.724C387.86 832.34 367.97 839.956 348.08 847.571L349.185 850.478C350.592 860.599 351.998 870.62 353.404 880.741L352.802 882.745C346.573 907.296 340.345 931.948 334.117 956.499H97.2452C93.8298 940.265 90.3139 924.031 86.8984 907.797L84.0857 907.597C86.4966 881.041 92.5239 854.787 101.967 829.734L99.7566 828.632C87.1998 830.736 74.6429 832.841 62.0861 834.945L60.6798 834.043C50.9357 822.519 41.1916 811.095 31.4475 799.571L28.5343 799.271L28.7352 799.772ZM295.743 317.064C289.013 295.018 282.383 273.072 275.652 251.026L276.456 248.822C268.018 242.007 260.584 233.79 254.758 224.571L249.936 224.07C246.42 225.974 243.407 228.679 241.096 231.886L238.987 233.389C230.749 221.865 222.612 210.341 214.375 198.817L212.065 198.316C206.64 222.467 201.216 246.617 195.791 270.767C176.906 289.406 160.532 310.45 146.97 333.198L145.564 335.302C148.879 343.018 152.093 350.734 155.408 358.551L157.217 359.252C145.865 384.705 135.82 410.76 127.382 437.415L126.779 440.722C127.582 451.745 129.792 462.568 133.409 472.99L135.317 474.192C120.752 498.242 108.797 523.796 99.7566 550.351L99.9575 552.455C98.3502 574.401 98.9529 596.547 101.866 618.293L102.67 621.299C103.875 638.936 109.4 656.272 118.642 671.404L121.053 672.506C115.729 696.155 108.898 719.504 100.56 742.252L102.167 744.356C103.172 750.669 104.177 756.882 105.181 763.195H106.889C173.39 754.076 241.096 753.275 307.898 760.79L310.309 761.392C315.834 739.746 321.46 718.101 326.985 696.456V694.151C316.136 680.022 307.597 664.088 301.771 647.253L300.063 644.848C309.506 628.314 320.656 612.681 333.213 598.351H334.921C334.619 589.533 334.217 580.815 333.916 572.096L334.117 568.99C330.199 564.08 327.286 558.368 325.779 552.255L325.478 552.055C331.003 540.931 337.532 530.309 345.067 520.388L345.77 519.487C323.168 502.451 300.565 485.415 277.862 468.38L276.757 467.278C283.588 460.664 290.419 454.05 297.25 447.536L298.657 446.835C297.451 431.102 298.456 415.269 301.771 399.837L302.775 397.732C295.743 384.805 288.812 371.979 281.881 359.152L281.68 357.047C285.698 343.92 289.716 330.692 293.835 317.565L295.743 316.964V317.064Z" fill="#603B22"/>
<path d="M276.757 467.578L277.862 468.681C300.464 485.716 323.066 502.752 345.769 519.787L345.066 520.689C337.532 530.61 331.002 541.232 325.477 552.355L325.779 552.556C327.286 558.669 330.199 564.38 334.116 569.291L333.916 572.397L334.92 598.452H333.212C320.656 612.982 309.505 628.514 300.062 645.049L301.77 647.454C307.697 664.289 316.236 680.122 326.984 694.352V696.657C321.459 718.302 315.934 739.947 310.309 761.592L307.898 760.991C241.096 753.475 173.49 754.277 106.888 763.396H105.181C104.176 757.083 103.171 750.87 102.167 744.557L100.56 742.452C108.897 719.705 115.728 696.356 121.052 672.707L118.641 671.604C109.4 656.473 103.975 639.137 102.669 621.5L101.866 618.493C98.9523 596.648 98.3496 574.602 99.9569 552.656L99.756 550.552C108.897 523.996 120.851 498.443 135.317 474.393L133.408 473.19C129.792 462.768 127.582 451.946 126.778 440.923L127.381 437.616C135.819 411.06 145.865 384.906 157.216 359.453L155.408 358.751C152.093 351.035 148.878 343.319 145.563 335.503L146.97 333.398C160.431 310.651 176.905 289.607 195.791 270.968C201.215 246.817 206.64 222.667 212.064 198.517L214.375 199.018C222.612 210.542 230.749 222.066 238.986 233.59L241.096 232.087C243.406 228.88 246.42 226.174 249.936 224.27L254.757 224.771C260.684 233.89 268.017 242.208 276.456 249.022L275.652 251.227C282.282 273.273 289.012 295.218 295.743 317.265L293.834 317.866C289.816 330.993 285.798 344.221 281.679 357.348L281.88 359.453C288.811 372.38 295.843 385.206 302.775 398.033L301.77 400.138C298.455 415.57 297.451 431.403 298.656 447.136L297.25 447.837C290.419 454.451 283.588 461.065 276.757 467.578ZM217.69 373.482L216.986 374.985V389.415H216.484C210.859 404.747 205.233 419.979 199.608 435.311L200.311 438.618C202.32 453.248 204.229 467.879 206.238 482.51L205.535 484.614C199.407 500.948 195.791 518.284 194.886 535.721L194.585 536.823C197.197 551.353 199.708 565.884 202.32 580.414L201.316 580.614C196.192 589.834 190.969 599.053 185.846 608.272L184.64 609.775V633.825C208.649 634.126 232.657 632.623 256.365 629.516L256.063 627.312C255.661 627.312 255.26 627.312 254.858 627.111C254.858 622.001 254.757 616.89 254.757 611.779V609.675C256.365 602.159 258.072 594.644 259.78 587.128L257.871 586.727C253.652 584.222 250.438 580.113 249.232 575.403L247.223 575.704C242 558.769 240.794 540.731 243.707 523.194L242.301 519.888C245.114 501.449 247.826 483.111 250.639 464.672L249.031 463.77C243.607 453.95 238.082 444.129 232.657 434.309L235.169 432.204C236.274 417.273 237.278 402.342 238.383 387.311L236.876 385.106C231.05 380.296 224.521 376.288 217.589 373.281L217.69 373.482Z" fill="#72462B"/>
<path d="M202.32 580.414C199.708 565.883 197.197 551.353 194.585 536.823L194.886 535.72C195.79 518.284 199.407 500.948 205.534 484.614L206.238 482.509C204.228 467.879 202.219 453.248 200.311 438.618L199.608 435.311C205.233 419.979 210.858 404.747 216.484 389.415H216.986V374.985L217.689 373.482C224.621 376.488 231.15 380.496 236.977 385.306L238.483 387.511C237.378 402.442 236.374 417.474 235.269 432.405L232.758 434.509C238.182 444.33 243.707 454.15 249.132 463.971L250.739 464.873C247.926 483.211 245.113 501.649 242.401 520.088L243.808 523.395C240.894 540.831 242.2 558.969 247.323 575.904L249.333 575.604C250.538 580.314 253.753 584.522 257.972 586.927L259.88 587.328C258.173 594.844 256.465 602.36 254.757 609.875V611.98C254.858 617.09 254.958 622.201 254.958 627.312C255.36 627.512 255.762 627.512 256.163 627.512L256.465 629.717C232.657 632.823 208.648 634.226 184.74 634.026V609.976L185.946 608.472C191.069 599.253 196.293 590.034 201.416 580.815L202.42 580.614L202.32 580.414Z" fill="#7B9CA9"/>
<path d="M121.754 0.20251C122.458 9.62217 121.754 19.142 119.645 28.3613L121.453 30.8665C116.129 40.2862 109.901 49.2048 102.668 57.422L101.864 59.7268C101.563 69.9481 102.769 80.2697 105.481 90.1904L107.389 92.6956C99.7549 98.6079 92.2208 104.52 84.6867 110.332L81.9744 111.936V140.095L82.6776 142.8C77.1526 149.614 75.3444 158.733 73.7372 167.452C71.8285 177.573 70.0203 187.794 68.2122 197.915L66.1026 199.619C66.404 210.441 66.7053 221.164 67.0067 231.986L67.7099 235.193L62.4862 245.314C55.2535 259.243 48.1212 273.172 40.8885 287.001L40.0849 286.6C26.0212 289.306 12.3594 294.016 -0.297852 300.63V-1H121.855V0.20251H121.754Z" fill="#492A12"/>
<path d="M84.1844 907.998L86.9971 908.198C90.4126 924.432 93.9285 940.666 97.344 956.9H-0.297852V818.31H0.204421C0.505785 818.01 0.807148 817.709 1.10851 817.409C9.04442 809.793 18.4871 803.68 28.7335 799.672L31.6467 799.972C41.3908 811.496 51.1349 822.92 60.879 834.444L62.2853 835.346C74.8421 833.242 87.399 831.137 99.9558 829.033L102.166 830.135C92.8235 855.187 86.7962 881.442 84.2849 907.998H84.1844Z" fill="#492A12"/>
<path d="M37.8757 428.697C38.8803 438.317 39.9853 447.837 40.9898 457.457L42.3962 459.561C31.3462 476.196 20.2962 492.831 9.14572 509.466C5.93118 514.276 2.81708 518.986 -0.397461 523.796V300.63C12.2598 294.016 25.9216 289.206 39.9853 286.6L40.7889 287.001C48.0216 273.072 55.1539 259.143 62.3866 245.314L62.9894 245.615C70.1216 256.738 76.1489 268.663 80.7698 281.089L82.8794 283.093C71.9298 297.223 62.7885 312.655 55.6562 328.989L54.6516 330.091C59.2725 339.11 63.8934 348.129 68.5144 357.047L70.423 360.354C56.9621 381.799 46.0125 404.747 37.6748 428.697H37.8757Z" fill="#5D381F"/>
<path d="M41.8931 729.124L43.199 729.826C26.5235 757.684 12.3594 787.045 1.00806 817.409H1.10851C0.807148 817.809 0.505785 818.11 0.204421 818.411H-0.297852V523.896C2.81624 519.086 6.03078 514.376 9.24533 509.566C18.6881 520.489 28.2312 531.512 37.674 542.435L38.6785 544.339C32.6512 561.274 26.624 578.109 20.5967 595.044L19.994 598.652C24.9162 607.671 29.8385 616.69 34.8612 625.708L37.1717 627.713C31.3453 648.857 25.519 670.001 19.6926 691.245V693.851C27.1262 705.675 34.5599 717.4 41.8931 729.225V729.124Z" fill="#5D381F"/>
<path d="M121.756 0.202393C122.459 9.62206 121.756 19.1419 119.646 28.3612" stroke="#231F20" stroke-miterlimit="10"/>
<path d="M121.455 30.9668C116.131 40.3865 109.903 49.3051 102.67 57.5222" stroke="#231F20" stroke-miterlimit="10"/>
<path d="M101.966 59.7268C101.665 69.9481 102.87 80.2697 105.582 90.1904" stroke="#231F20" stroke-miterlimit="10"/>
<path d="M108.195 92.0944C107.994 92.2948 107.693 92.4952 107.492 92.6956C99.8572 98.608 92.3232 104.52 84.7891 110.332" stroke="#231F20" stroke-miterlimit="10"/>
<path d="M82.0762 111.936V140.095" stroke="#231F20" stroke-miterlimit="10"/>
<path d="M82.7799 142.8C77.2549 149.614 75.4467 158.733 73.8395 167.452C71.9308 177.573 70.1226 187.794 68.3145 197.915" stroke="#231F20" stroke-miterlimit="10"/>
<path d="M66.1045 199.619C66.4059 210.441 66.7072 221.164 67.0086 231.986" stroke="#231F20" stroke-miterlimit="10"/>
<path d="M67.7111 235.293L62.4874 245.414C55.2547 259.344 48.1224 273.273 40.8897 287.101C40.6888 287.502 40.4879 288.003 40.1865 288.404" stroke="#231F20" stroke-miterlimit="10"/>
<path d="M40.0864 286.6C26.0227 289.306 12.3609 294.016 -0.296367 300.63C-0.698185 300.83 -1.1 301.03 -1.40137 301.231" stroke="#231F20" stroke-miterlimit="10"/>
<path d="M63.0908 245.615C70.2231 256.738 76.2504 268.663 80.8713 281.089" stroke="#231F20" stroke-miterlimit="10"/>
<path d="M83.0806 283.093C72.1311 297.223 62.9897 312.655 55.8574 328.989" stroke="#231F20" stroke-miterlimit="10"/>
<path d="M54.7529 330.091C59.3738 339.11 63.9948 348.129 68.6157 357.047" stroke="#231F20" stroke-miterlimit="10"/>
<path d="M70.625 360.455C57.1641 381.899 46.2146 404.847 37.8768 428.797C37.8768 428.897 37.8768 429.098 37.7764 429.198" stroke="#231F20" stroke-miterlimit="10"/>
<path d="M37.7764 428.296C37.7764 428.497 37.7764 428.597 37.7764 428.797C38.7809 438.417 39.8859 447.937 40.8905 457.557" stroke="#231F20" stroke-miterlimit="10"/>
<path d="M42.3964 459.662C31.3464 476.296 20.2964 492.931 9.14591 509.566C5.93136 514.376 2.81727 519.086 -0.397273 523.896L-1 524.798" stroke="#231F20" stroke-miterlimit="10"/>
<path d="M276.858 1.30493C276.557 12.1275 276.155 22.8499 275.854 33.6725" stroke="#231F20" stroke-miterlimit="10"/>
<path d="M276.255 35.1755C291.825 52.0107 307.295 68.8458 322.866 85.7812" stroke="#231F20" stroke-miterlimit="10"/>
<path d="M322.665 88.9879V117.147" stroke="#231F20" stroke-miterlimit="10"/>
<path d="M323.167 117.748C337.632 130.474 352.098 143.201 366.563 155.928" stroke="#231F20" stroke-miterlimit="10"/>
<path d="M367.769 157.932L359.732 207.936" stroke="#231F20" stroke-miterlimit="10"/>
<path d="M359.532 211.443C367.97 234.291 377.413 256.838 387.86 278.884" stroke="#231F20" stroke-miterlimit="10"/>
<path d="M389.065 280.187C385.75 289.206 382.536 298.225 379.221 307.143" stroke="#231F20" stroke-miterlimit="10"/>
<path d="M379.221 309.248C382.938 311.953 387.558 313.456 392.179 313.456C396.8 313.456 392.581 313.456 392.782 313.456" stroke="#231F20" stroke-miterlimit="10"/>
<path d="M392.782 314.458C395.796 312.454 399.613 311.753 403.229 312.354" stroke="#231F20" stroke-miterlimit="10"/>
<path d="M405.44 311.352C405.44 311.753 405.339 312.254 405.239 312.655C403.129 328.588 401.02 344.521 398.91 360.354" stroke="#231F20" stroke-miterlimit="10"/>
<path d="M399.111 362.459C405.34 366.668 411.367 371.077 417.193 375.787C424.727 381.799 431.96 388.112 438.891 394.726" stroke="#231F20" stroke-miterlimit="10"/>
<path d="M415.284 379.494C406.544 416.271 398.91 453.349 392.48 490.526" stroke="#231F20" stroke-miterlimit="10"/>
<path d="M396.098 490.727C403.531 497.741 409.86 505.958 414.782 514.877" stroke="#231F20" stroke-miterlimit="10"/>
<path d="M415.988 518.084C397.805 538.025 381.632 559.671 367.669 582.618" stroke="#231F20" stroke-miterlimit="10"/>
<path d="M365.659 584.723C372.691 594.443 379.622 604.163 386.654 613.884" stroke="#231F20" stroke-miterlimit="10"/>
<path d="M388.664 614.285C395.595 614.585 402.627 614.986 409.559 615.287" stroke="#231F20" stroke-miterlimit="10"/>
<path d="M411.667 617.191C404.435 637.032 397.101 656.873 389.869 676.715C389.768 677.015 389.668 677.316 389.567 677.617" stroke="#231F20" stroke-miterlimit="10"/>
<path d="M389.668 676.615C387.96 678.018 386.152 679.421 384.444 680.824" stroke="#231F20" stroke-miterlimit="10"/>
<path d="M382.938 681.725C385.248 692.247 389.567 702.368 395.796 711.187" stroke="#231F20" stroke-miterlimit="10"/>
<path d="M397.001 713.291C405.741 721.609 414.581 729.826 423.32 738.143" stroke="#231F20" stroke-miterlimit="10"/>
<path d="M424.024 739.245C422.618 746.16 421.312 753.174 419.905 760.089" stroke="#231F20" stroke-miterlimit="10"/>
<path d="M421.312 761.993C422.517 762.995 423.823 763.997 425.028 765.099C430.553 769.609 436.179 774.218 441.704 778.728C442.608 779.429 443.412 780.131 444.316 780.832" stroke="#231F20" stroke-miterlimit="10"/>
<path d="M7.53906 507.662C8.04134 508.263 8.64406 508.864 9.14634 509.566C18.5891 520.489 28.1322 531.512 37.575 542.435" stroke="#231F20" stroke-miterlimit="10"/>
<path d="M38.5799 544.238C32.5526 561.174 26.5253 578.009 20.498 594.944" stroke="#231F20" stroke-miterlimit="10"/>
<path d="M19.8945 598.552C24.8168 607.571 29.7391 616.589 34.7618 625.608" stroke="#231F20" stroke-miterlimit="10"/>
<path d="M37.0728 627.612C31.2465 648.756 25.4201 669.901 19.5938 691.145" stroke="#231F20" stroke-miterlimit="10"/>
<path d="M19.6943 693.75C27.128 705.575 34.4612 717.3 41.7943 729.124" stroke="#231F20" stroke-miterlimit="10"/>
<path d="M43.1001 729.826C26.4246 757.684 12.2605 787.045 0.90918 817.409" stroke="#231F20" stroke-miterlimit="10"/>
<path d="M0.206055 818.411C0.507418 818.11 0.808782 817.809 1.11015 817.509C9.04605 809.893 18.4888 803.78 28.7351 799.772C29.4383 799.471 30.1415 799.17 30.8447 798.97" stroke="#231F20" stroke-miterlimit="10"/>
<path d="M31.5479 800.072C41.2919 811.596 51.036 823.02 60.7801 834.544" stroke="#231F20" stroke-miterlimit="10"/>
<path d="M62.1865 835.446C74.7433 833.342 87.3002 831.237 99.857 829.133" stroke="#231F20" stroke-miterlimit="10"/>
<path d="M102.067 830.135C92.725 855.187 86.6978 881.442 84.1864 907.998C84.1864 908.499 84.1864 908.9 84.0859 909.401" stroke="#231F20" stroke-miterlimit="10"/>
<path d="M86.8984 908.298C90.3139 924.532 93.8298 940.766 97.2453 957C97.5466 958.603 97.9484 960.207 98.2498 961.71" stroke="#231F20" stroke-miterlimit="10"/>
<path d="M333.815 957.401C333.815 957.301 333.815 957.2 333.815 957C340.044 932.449 346.272 907.797 352.5 883.246" stroke="#231F20" stroke-miterlimit="10"/>
<path d="M353.203 881.242C351.797 871.121 350.391 861.1 348.984 850.979" stroke="#231F20" stroke-miterlimit="10"/>
<path d="M347.879 848.073C367.769 840.457 387.659 832.841 407.549 825.225" stroke="#231F20" stroke-miterlimit="10"/>
<path d="M409.96 824.724C414.38 805.684 418.7 786.544 423.12 767.404" stroke="#231F20" stroke-miterlimit="10"/>
<path d="M197.197 269.565C196.795 269.966 196.293 270.467 195.891 270.868C177.006 289.507 160.632 310.551 147.07 333.298" stroke="#231F20" stroke-miterlimit="10"/>
<path d="M145.664 335.402C148.979 343.118 152.194 350.835 155.509 358.651" stroke="#231F20" stroke-miterlimit="10"/>
<path d="M157.417 359.352C146.066 384.805 136.02 410.86 127.582 437.515" stroke="#231F20" stroke-miterlimit="10"/>
<path d="M126.979 440.722C127.783 451.745 129.993 462.568 133.609 472.99" stroke="#231F20" stroke-miterlimit="10"/>
<path d="M135.518 474.192C120.952 498.242 108.998 523.796 99.957 550.351" stroke="#231F20" stroke-miterlimit="10"/>
<path d="M100.158 552.455C98.5508 574.401 99.1535 596.547 102.067 618.293" stroke="#231F20" stroke-miterlimit="10"/>
<path d="M102.77 621.399C103.975 639.036 109.5 656.372 118.742 671.504" stroke="#231F20" stroke-miterlimit="10"/>
<path d="M121.153 672.606C115.829 696.256 108.998 719.604 100.66 742.352" stroke="#231F20" stroke-miterlimit="10"/>
<path d="M102.268 744.456C103.272 750.769 104.277 756.982 105.281 763.296" stroke="#231F20" stroke-miterlimit="10"/>
<path d="M106.989 763.296C173.49 754.177 241.197 753.375 307.999 760.891" stroke="#231F20" stroke-miterlimit="10"/>
<path d="M310.209 762.294C310.209 761.993 310.309 761.793 310.41 761.492C315.935 739.847 321.56 718.201 327.085 696.556" stroke="#231F20" stroke-miterlimit="10"/>
<path d="M327.085 694.251C316.337 680.122 307.798 664.189 301.871 647.354" stroke="#231F20" stroke-miterlimit="10"/>
<path d="M300.163 645.049C309.606 628.514 320.756 612.882 333.313 598.552" stroke="#231F20" stroke-miterlimit="10"/>
<path d="M335.021 598.351L334.017 572.297" stroke="#231F20" stroke-miterlimit="10"/>
<path d="M334.218 569.19C330.3 564.28 327.387 558.568 325.88 552.455" stroke="#231F20" stroke-miterlimit="10"/>
<path d="M324.976 553.558C325.176 553.157 325.377 552.756 325.578 552.355C331.103 541.232 337.633 530.61 345.167 520.689" stroke="#231F20" stroke-miterlimit="10"/>
<path d="M346.573 520.388C346.272 520.188 346.071 519.988 345.77 519.787C323.167 502.752 300.565 485.716 277.862 468.681" stroke="#231F20" stroke-miterlimit="10"/>
<path d="M275.451 468.781C275.853 468.38 276.355 467.879 276.757 467.478C283.588 460.864 290.419 454.25 297.25 447.737" stroke="#231F20" stroke-miterlimit="10"/>
<path d="M298.757 447.035C297.551 431.302 298.556 415.469 301.871 400.037" stroke="#231F20" stroke-miterlimit="10"/>
<path d="M302.875 397.933C295.843 385.006 288.912 372.179 281.98 359.352" stroke="#231F20" stroke-miterlimit="10"/>
<path d="M281.68 357.148C285.698 344.02 289.716 330.793 293.835 317.665" stroke="#231F20" stroke-miterlimit="10"/>
<path d="M295.844 317.465C295.844 317.365 295.844 317.264 295.743 317.064C289.013 295.018 282.383 273.072 275.652 251.026" stroke="#231F20" stroke-miterlimit="10"/>
<path d="M276.557 248.822C268.118 242.007 260.685 233.79 254.858 224.571" stroke="#231F20" stroke-miterlimit="10"/>
<path d="M253.653 222.467C252.447 222.968 251.242 223.469 250.036 224.17C246.52 226.074 243.507 228.78 241.196 231.986" stroke="#231F20" stroke-miterlimit="10"/>
<path d="M239.69 234.391C239.489 234.091 239.288 233.79 239.087 233.49C230.85 221.965 222.713 210.441 214.476 198.917" stroke="#231F20" stroke-miterlimit="10"/>
<path d="M212.366 197.414C212.366 197.715 212.266 198.015 212.165 198.416C206.741 222.567 201.316 246.717 195.892 270.868C195.691 271.87 195.49 272.772 195.289 273.774" stroke="#231F20" stroke-miterlimit="10"/>
<path d="M202.923 583.62C202.722 582.518 202.521 581.516 202.32 580.414C199.708 565.883 197.197 551.353 194.585 536.823" stroke="#231F20" stroke-miterlimit="10"/>
<path d="M194.987 535.72C195.891 518.284 199.508 500.948 205.635 484.614" stroke="#231F20" stroke-miterlimit="10"/>
<path d="M206.339 482.509C204.33 467.879 202.321 453.248 200.412 438.618" stroke="#231F20" stroke-miterlimit="10"/>
<path d="M199.608 435.311C205.234 419.979 210.859 404.747 216.485 389.415" stroke="#231F20" stroke-miterlimit="10"/>
<path d="M216.986 390.617V374.985" stroke="#231F20" stroke-miterlimit="10"/>
<path d="M216.887 373.181C217.188 373.281 217.389 373.382 217.69 373.482C224.622 376.488 231.151 380.496 236.978 385.306" stroke="#231F20" stroke-miterlimit="10"/>
<path d="M238.484 387.611C237.379 402.543 236.375 417.574 235.27 432.505" stroke="#231F20" stroke-miterlimit="10"/>
<path d="M232.758 434.509C238.182 444.33 243.707 454.15 249.132 463.971" stroke="#231F20" stroke-miterlimit="10"/>
<path d="M250.639 464.772C247.827 483.111 245.014 501.549 242.302 519.988" stroke="#231F20" stroke-miterlimit="10"/>
<path d="M243.708 523.295C240.795 540.731 242.101 558.869 247.224 575.804" stroke="#231F20" stroke-miterlimit="10"/>
<path d="M249.232 575.504C250.438 580.213 253.652 584.422 257.872 586.827" stroke="#231F20" stroke-miterlimit="10"/>
<path d="M259.881 586.827C259.881 586.927 259.881 587.028 259.881 587.228C258.173 594.744 256.466 602.259 254.758 609.775" stroke="#231F20" stroke-miterlimit="10"/>
<path d="M201.316 580.614C196.193 589.834 190.969 599.053 185.846 608.272" stroke="#231F20" stroke-miterlimit="10"/>
<path d="M184.641 609.875V629.717" stroke="#231F20" stroke-miterlimit="10"/>
<path d="M184.641 633.925C208.649 634.226 232.658 632.723 256.365 629.616C256.466 629.616 256.667 629.616 256.767 629.616" stroke="#231F20" stroke-miterlimit="10"/>
<path d="M254.657 611.98C254.657 617.09 254.657 622.201 254.758 627.312C255.16 627.512 255.561 627.512 255.963 627.512C256.666 627.512 257.269 627.111 257.671 626.51" stroke="#231F20" stroke-miterlimit="10"/>
<path d="M441.704 778.728V957H333.916H97.2455H-0.295898V818.411V523.896V300.73V-1H121.756H276.858H441.704V394.726V778.728Z" stroke="#231F20" stroke-width="0.5" stroke-linecap="round" stroke-linejoin="round"/>
</g>
</g>
<defs>
<clipPath id="clip0_739_1938">
<rect width="440" height="956" fill="white"/>
</clipPath>
<clipPath id="clip1_739_1938">
<rect width="442" height="958" fill="white" transform="translate(-1 -1)"/>
</clipPath>
</defs>
</svg>
