<svg width="100" height="100" viewBox="0 0 100 100" fill="none" xmlns="http://www.w3.org/2000/svg">
<path d="M44.69 4.49219L13.4277 14.1172L7.71484 35.5654L16.998 31.4209L19.0371 30.5117L19.5254 32.6904L21.2344 40.332L22.4854 45.9043L18.2373 42.0898L15.167 39.3311L9.65566 45.6482L37.1277 72.2107L39.0137 64.2635L40.4844 58.0381L42.517 64.1051L53.2045 96.0566L84.442 90.918L93.3775 51.2816L76.8613 22.2352L44.69 4.49219ZM33.4229 14.2334L27.9906 22.0275L27.3559 36.3713L22.0459 19.0002L33.4229 14.2334ZM36.908 32.4768L59.0025 62.799L79.4922 69.4154L58.5205 69.2506L36.908 44.2506V32.4771V32.4768ZM15.4906 64.502L42.8588 94.4092L41.7723 81.543L15.4906 64.502Z" fill="black"/>
<path d="M17.7372 33V21.3636H21.8054C22.616 21.3636 23.2846 21.5038 23.8111 21.7841C24.3376 22.0606 24.7296 22.4337 24.9872 22.9034C25.2448 23.3693 25.3736 23.8864 25.3736 24.4545C25.3736 24.9545 25.2846 25.3674 25.1065 25.6932C24.9323 26.0189 24.7012 26.2765 24.4134 26.4659C24.1293 26.6553 23.8205 26.7955 23.4872 26.8864V27C23.8433 27.0227 24.2012 27.1477 24.5611 27.375C24.9209 27.6023 25.2221 27.928 25.4645 28.3523C25.7069 28.7765 25.8281 29.2955 25.8281 29.9091C25.8281 30.4924 25.6955 31.017 25.4304 31.483C25.1652 31.9489 24.7467 32.3182 24.1747 32.5909C23.6027 32.8636 22.8584 33 21.9418 33H17.7372ZM19.1463 31.75H21.9418C22.8622 31.75 23.5156 31.572 23.902 31.2159C24.2921 30.8561 24.4872 30.4205 24.4872 29.9091C24.4872 29.5152 24.3868 29.1515 24.1861 28.8182C23.9853 28.4811 23.6993 28.2121 23.3281 28.0114C22.9569 27.8068 22.5175 27.7045 22.0099 27.7045H19.1463V31.75ZM19.1463 26.4773H21.7599C22.1842 26.4773 22.5668 26.3939 22.9077 26.2273C23.2524 26.0606 23.5251 25.8258 23.7259 25.5227C23.9304 25.2197 24.0327 24.8636 24.0327 24.4545C24.0327 23.9432 23.8546 23.5095 23.4986 23.1534C23.1425 22.7936 22.5781 22.6136 21.8054 22.6136H19.1463V26.4773ZM31.6207 33.1818C30.7798 33.1818 30.0545 32.9962 29.4446 32.625C28.8385 32.25 28.3707 31.7273 28.0412 31.0568C27.7154 30.3826 27.5526 29.5985 27.5526 28.7045C27.5526 27.8106 27.7154 27.0227 28.0412 26.3409C28.3707 25.6553 28.8291 25.1212 29.4162 24.7386C30.0071 24.3523 30.6965 24.1591 31.4844 24.1591C31.9389 24.1591 32.3878 24.2348 32.831 24.3864C33.2741 24.5379 33.6776 24.7841 34.0412 25.125C34.4048 25.4621 34.6946 25.9091 34.9105 26.4659C35.1264 27.0227 35.2344 27.7083 35.2344 28.5227V29.0909H28.5071V27.9318H33.8707C33.8707 27.4394 33.7723 27 33.5753 26.6136C33.3821 26.2273 33.1056 25.9223 32.7457 25.6989C32.3897 25.4754 31.9692 25.3636 31.4844 25.3636C30.9503 25.3636 30.4882 25.4962 30.098 25.7614C29.7116 26.0227 29.4143 26.3636 29.206 26.7841C28.9976 27.2045 28.8935 27.6553 28.8935 28.1364V28.9091C28.8935 29.5682 29.0071 30.1269 29.2344 30.5852C29.4654 31.0398 29.7855 31.3864 30.1946 31.625C30.6037 31.8598 31.0791 31.9773 31.6207 31.9773C31.973 31.9773 32.2912 31.928 32.5753 31.8295C32.8632 31.7273 33.1113 31.5758 33.3196 31.375C33.5279 31.1705 33.6889 30.9167 33.8026 30.6136L35.098 30.9773C34.9616 31.4167 34.7325 31.803 34.4105 32.1364C34.0885 32.4659 33.6908 32.7235 33.2173 32.9091C32.7438 33.0909 32.2116 33.1818 31.6207 33.1818ZM40.7969 36.4545C40.1491 36.4545 39.5923 36.3712 39.1264 36.2045C38.6605 36.0417 38.2723 35.8258 37.9616 35.5568C37.6548 35.2917 37.4105 35.0076 37.2287 34.7045L38.2969 33.9545C38.4181 34.1136 38.5715 34.2955 38.7571 34.5C38.9427 34.7083 39.1965 34.8883 39.5185 35.0398C39.8442 35.1951 40.2704 35.2727 40.7969 35.2727C41.5014 35.2727 42.0829 35.1023 42.5412 34.7614C42.9995 34.4205 43.2287 33.8864 43.2287 33.1591V31.3864H43.1151C43.0166 31.5455 42.8764 31.7424 42.6946 31.9773C42.5166 32.2083 42.259 32.4148 41.9219 32.5966C41.5885 32.7746 41.1378 32.8636 40.5696 32.8636C39.8651 32.8636 39.2325 32.697 38.6719 32.3636C38.1151 32.0303 37.6738 31.5455 37.348 30.9091C37.026 30.2727 36.8651 29.5 36.8651 28.5909C36.8651 27.697 37.0223 26.9186 37.3366 26.2557C37.651 25.589 38.0885 25.0739 38.6491 24.7102C39.2098 24.3428 39.8575 24.1591 40.5923 24.1591C41.1605 24.1591 41.6113 24.2538 41.9446 24.4432C42.2817 24.6288 42.5393 24.8409 42.7173 25.0795C42.8991 25.3144 43.0393 25.5076 43.1378 25.6591H43.2741V24.2727H44.5696V33.25C44.5696 34 44.3991 34.6098 44.0582 35.0795C43.7211 35.553 43.2666 35.8996 42.6946 36.1193C42.1264 36.3428 41.4938 36.4545 40.7969 36.4545ZM40.7514 31.6591C41.2893 31.6591 41.7438 31.536 42.1151 31.2898C42.4863 31.0436 42.7685 30.6894 42.9616 30.2273C43.1548 29.7652 43.2514 29.2121 43.2514 28.5682C43.2514 27.9394 43.1567 27.3845 42.9673 26.9034C42.7779 26.4223 42.4976 26.0455 42.1264 25.7727C41.7552 25.5 41.2969 25.3636 40.7514 25.3636C40.1832 25.3636 39.7098 25.5076 39.331 25.7955C38.956 26.0833 38.6738 26.4697 38.4844 26.9545C38.2988 27.4394 38.206 27.9773 38.206 28.5682C38.206 29.1742 38.3007 29.7102 38.4901 30.1761C38.6832 30.6383 38.9673 31.0019 39.3423 31.267C39.7211 31.5284 40.1908 31.6591 40.7514 31.6591ZM47.0241 33V24.2727H48.3196V25.5909H48.4105C48.5696 25.1591 48.8575 24.8087 49.2741 24.5398C49.6908 24.2708 50.1605 24.1364 50.6832 24.1364C50.7817 24.1364 50.9048 24.1383 51.0526 24.142C51.2003 24.1458 51.312 24.1515 51.3878 24.1591V25.5227C51.3423 25.5114 51.2382 25.4943 51.0753 25.4716C50.9162 25.4451 50.7476 25.4318 50.5696 25.4318C50.1454 25.4318 49.7666 25.5208 49.4332 25.6989C49.1037 25.8731 48.8423 26.1155 48.6491 26.4261C48.4598 26.733 48.3651 27.0833 48.3651 27.4773V33H47.0241ZM56.3707 33.1818C55.5298 33.1818 54.8045 32.9962 54.1946 32.625C53.5885 32.25 53.1207 31.7273 52.7912 31.0568C52.4654 30.3826 52.3026 29.5985 52.3026 28.7045C52.3026 27.8106 52.4654 27.0227 52.7912 26.3409C53.1207 25.6553 53.5791 25.1212 54.1662 24.7386C54.7571 24.3523 55.4465 24.1591 56.2344 24.1591C56.6889 24.1591 57.1378 24.2348 57.581 24.3864C58.0241 24.5379 58.4276 24.7841 58.7912 25.125C59.1548 25.4621 59.4446 25.9091 59.6605 26.4659C59.8764 27.0227 59.9844 27.7083 59.9844 28.5227V29.0909H53.2571V27.9318H58.6207C58.6207 27.4394 58.5223 27 58.3253 26.6136C58.1321 26.2273 57.8556 25.9223 57.4957 25.6989C57.1397 25.4754 56.7192 25.3636 56.2344 25.3636C55.7003 25.3636 55.2382 25.4962 54.848 25.7614C54.4616 26.0227 54.1643 26.3636 53.956 26.7841C53.7476 27.2045 53.6435 27.6553 53.6435 28.1364V28.9091C53.6435 29.5682 53.7571 30.1269 53.9844 30.5852C54.2154 31.0398 54.5355 31.3864 54.9446 31.625C55.3537 31.8598 55.8291 31.9773 56.3707 31.9773C56.723 31.9773 57.0412 31.928 57.3253 31.8295C57.6132 31.7273 57.8613 31.5758 58.0696 31.375C58.2779 31.1705 58.4389 30.9167 58.5526 30.6136L59.848 30.9773C59.7116 31.4167 59.4825 31.803 59.1605 32.1364C58.8385 32.4659 58.4408 32.7235 57.9673 32.9091C57.4938 33.0909 56.9616 33.1818 56.3707 33.1818ZM62.206 33V21.3636H63.5469V25.6591H63.6605C63.759 25.5076 63.8954 25.3144 64.0696 25.0795C64.2476 24.8409 64.5014 24.6288 64.831 24.4432C65.1643 24.2538 65.6151 24.1591 66.1832 24.1591C66.9181 24.1591 67.5658 24.3428 68.1264 24.7102C68.687 25.0777 69.1245 25.5985 69.4389 26.2727C69.7533 26.947 69.9105 27.7424 69.9105 28.6591C69.9105 29.5833 69.7533 30.3845 69.4389 31.0625C69.1245 31.7367 68.6889 32.2595 68.1321 32.6307C67.5753 32.9981 66.9332 33.1818 66.206 33.1818C65.6454 33.1818 65.1965 33.089 64.8594 32.9034C64.5223 32.714 64.2628 32.5 64.081 32.2614C63.8991 32.0189 63.759 31.8182 63.6605 31.6591H63.5014V33H62.206ZM63.5241 28.6364C63.5241 29.2955 63.6207 29.8769 63.8139 30.3807C64.0071 30.8807 64.2893 31.2727 64.6605 31.5568C65.0317 31.8371 65.4863 31.9773 66.0241 31.9773C66.5848 31.9773 67.0526 31.8295 67.4276 31.5341C67.8063 31.2348 68.0904 30.8333 68.2798 30.3295C68.473 29.822 68.5696 29.2576 68.5696 28.6364C68.5696 28.0227 68.4749 27.4697 68.2855 26.9773C68.0999 26.4811 67.8177 26.089 67.4389 25.8011C67.0639 25.5095 66.5923 25.3636 66.0241 25.3636C65.4787 25.3636 65.0204 25.5019 64.6491 25.7784C64.2779 26.0511 63.9976 26.4337 63.8082 26.9261C63.6188 27.4148 63.5241 27.9848 63.5241 28.6364ZM80.5298 21.3636V33H79.1207V22.8409H79.0526L76.2116 24.7273V23.2955L79.1207 21.3636H80.5298Z" fill="#AE00FF"/>
</svg>
