<svg width="265" height="299" viewBox="0 0 265 299" fill="none" xmlns="http://www.w3.org/2000/svg">
<path d="M84.3613 237.921C85.2009 237.641 86.2271 237.455 87.0667 237.734C88.1862 238.108 88.8392 239.32 89.0258 240.533C89.2124 241.746 89.0258 242.959 88.6526 244.078L90.705 244.265C89.0258 245.291 86.7868 245.757 84.8277 245.384C82.4022 244.824 80.2565 243.425 78.3907 241.746L79.8833 241.279C80.4431 240.72 80.9095 240.253 81.376 239.6C82.2156 238.854 83.2418 238.294 84.268 237.828L84.3613 237.921Z" fill="white"/>
<path d="M69.9946 224.86C70.3677 223.088 72.8866 222.435 74.3792 223.368C75.9651 224.394 76.4316 226.633 76.0584 228.499C75.592 230.365 74.4725 231.95 73.353 233.443H71.2073C70.3677 232.044 69.7147 230.551 69.4348 228.965C69.2482 227.566 69.4348 226.166 69.6214 224.767H69.9946V224.86Z" fill="white"/>
<path d="M75.2189 238.481C73.7262 236.895 72.3269 235.309 71.2074 233.536H73.353C75.1256 232.603 76.3383 230.831 77.9243 229.525C79.4169 228.219 81.7492 227.286 83.5217 228.312C84.5479 228.965 85.1076 230.271 85.2009 231.484C85.2009 232.697 84.8278 233.91 84.3613 235.029C83.615 236.708 82.6821 238.294 81.4693 239.694C80.9096 240.16 80.4431 240.72 79.9766 241.373L78.484 241.839C77.3645 240.813 76.245 239.694 75.3121 238.574L75.2189 238.481Z" fill="white"/>
<path d="M117.573 293.522C118.692 294.735 119.252 296.321 119.812 297.907H118.412C115.427 297.907 112.255 297.907 109.923 295.948C109.736 295.761 109.55 295.574 109.363 295.481L110.762 295.201C110.296 293.709 111.602 292.029 113.188 291.75C114.867 291.47 116.546 292.309 117.573 293.615V293.522Z" fill="white"/>
<path d="M127.088 290.91C128.581 292.403 128.114 295.015 129.234 296.787V297.813H119.812C119.998 295.761 120.185 293.522 121.491 291.843C122.797 290.164 125.502 289.417 126.995 290.817L127.088 290.91Z" fill="white"/>
<path d="M129.514 297.16C129.514 295.481 130.353 293.802 131.846 293.056C133.339 292.309 135.204 292.403 136.511 293.429H137.91C137.91 293.988 137.91 294.455 137.91 295.015C137.91 295.761 137.91 296.601 137.35 297.16C136.79 297.813 135.764 297.813 134.925 297.907C133.152 297.907 131.286 297.907 129.514 297.907H129.234V296.88C129.234 296.974 129.42 297.067 129.514 297.254V297.16Z" fill="white"/>
<path d="M206.758 223.461C208.344 222.435 210.863 223.181 211.236 224.954H211.609C211.982 226.26 212.076 227.659 211.889 229.058C211.609 231.111 210.583 232.977 209.277 234.749L207.878 233.536C206.758 232.044 205.545 230.458 205.079 228.592C204.612 226.726 205.079 224.487 206.758 223.461Z" fill="white"/>
<path d="M197.522 228.219C199.295 227.099 201.627 228.032 203.213 229.432C204.799 230.831 206.012 232.51 207.878 233.443L209.277 234.656C208.251 235.962 207.131 237.268 206.012 238.481C205.172 239.414 204.239 240.346 203.306 241.186H201.254C200.788 240.72 200.321 240.16 199.761 239.6C198.642 238.201 197.616 236.615 196.869 234.936C196.403 233.816 195.936 232.603 196.03 231.391C196.03 230.178 196.589 228.872 197.709 228.219H197.522Z" fill="white"/>
<path d="M201.161 241.279H203.213C201.161 243.145 198.828 244.731 196.123 245.384C194.724 245.664 193.324 245.571 191.925 245.104L192.205 244.078C191.925 242.959 191.738 241.746 191.925 240.533C192.112 239.32 192.765 238.201 193.977 237.734C194.817 237.455 195.843 237.548 196.776 237.921C197.896 238.294 198.828 238.947 199.761 239.694C200.228 240.253 200.694 240.813 201.254 241.373L201.161 241.279Z" fill="white"/>
<path d="M155.355 297.813C153.583 297.813 151.81 297.813 150.131 297.813C149.291 297.813 148.265 297.813 147.705 297.067C147.146 296.321 147.146 295.668 147.146 294.921C147.146 294.455 147.146 293.895 147.146 293.429H148.545C149.851 292.402 151.717 292.216 153.116 293.055C154.516 293.802 155.448 295.481 155.448 297.16V297.907L155.355 297.813Z" fill="white"/>
<path d="M167.016 293.522C168.043 292.216 169.722 291.376 171.308 291.656C172.894 291.936 174.2 293.802 173.547 295.388H174.946C174.76 295.668 174.573 295.854 174.386 295.948C172.147 297.813 168.976 297.907 166.084 297.907C165.617 297.907 165.151 297.907 164.684 297.907C165.244 296.414 165.804 294.828 166.923 293.522H167.016Z" fill="white"/>
<path d="M157.687 290.91C159.18 289.417 161.885 290.257 163.098 291.936C164.311 293.615 164.591 295.854 164.777 297.907C161.606 297.907 158.434 297.907 155.355 297.907V297.16C156.755 295.481 156.101 292.496 157.687 291.003V290.91Z" fill="white"/>
<path d="M104.978 132.223C104.978 128.678 101.62 125.879 97.4219 125.879C93.2238 125.879 89.8654 128.771 89.8654 132.223C89.8654 135.675 93.2238 138.567 97.4219 138.567C101.62 138.567 104.978 135.675 104.978 132.223ZM106.658 134.369C106.658 140.526 101.433 145.564 95.0897 145.564C88.7459 145.564 83.5217 140.526 83.5217 134.369C83.5217 128.212 88.6526 123.174 95.0897 123.174C101.527 123.174 106.658 128.212 106.658 134.369Z" fill="white"/>
<path d="M157.128 125.04C157.128 128.585 160.486 131.384 164.684 131.384C168.882 131.384 172.241 128.492 172.241 125.04C172.241 121.588 168.882 118.696 164.684 118.696C160.486 118.696 157.128 121.588 157.128 125.04ZM155.262 127.279C155.262 121.122 160.486 116.084 166.83 116.084C173.174 116.084 178.398 121.028 178.398 127.279C178.398 133.529 173.174 138.474 166.83 138.474C160.486 138.474 155.262 133.436 155.262 127.279Z" fill="white"/>
<path d="M226.629 153.96C223.27 156.385 218.886 158.065 214.968 156.759C209.557 154.986 207.225 148.642 205.732 143.138L203.773 142.952C206.012 129.051 202.84 114.125 196.589 101.251C194.444 96.7729 191.925 92.5748 189.033 88.4701L189.779 87.9103C200.508 77.2752 218.419 75.2228 231.853 82.2196C243.421 88.2835 251.258 100.504 253.03 113.565C253.31 115.618 253.403 117.67 253.403 119.629C253.31 127.092 251.071 134.929 245.38 139.686C242.582 142.019 239.13 143.511 236.145 145.657C232.786 148.083 229.987 151.254 226.629 153.773V153.96Z" fill="#F7B7D3"/>
<path d="M229.614 169.446C224.11 172.804 217.02 173.084 211.143 170.379C205.359 167.673 201.067 161.889 200.135 155.546H200.041C201.814 151.441 203.027 147.243 203.773 142.952L205.732 143.138C207.318 148.642 209.557 154.986 214.968 156.758C218.886 158.065 223.27 156.385 226.629 153.96C229.987 151.534 232.786 148.269 236.145 145.844C239.13 143.698 242.582 142.205 245.38 139.873C251.071 135.022 253.31 127.185 253.403 119.816C253.403 117.763 253.31 115.711 253.03 113.752L262.639 112.539C263.105 116.177 263.292 119.816 263.385 123.361C263.572 130.73 263.012 138.66 258.348 144.258C254.709 148.736 249.019 151.068 244.541 154.799C239.13 159.277 235.585 165.808 229.521 169.446H229.614Z" fill="#CCCCCB"/>
<path d="M217.58 63.5615C234.932 65.987 250.605 77.7416 257.788 93.6942C260.493 99.6648 261.986 106.009 262.826 112.539L253.217 113.752C251.444 100.784 243.608 88.5633 232.04 82.4061C218.606 75.3161 200.694 77.4617 189.966 88.0968L189.22 88.6566C186.794 85.2048 184.182 82.033 181.29 78.9544L182.969 77.8349C186.794 72.0509 192.485 67.4797 199.108 65.1474C204.986 63.095 211.516 62.8152 217.673 63.6548L217.58 63.5615Z" fill="#CCCCCB"/>
<path d="M203.213 229.432C201.627 228.126 199.295 227.193 197.522 228.219C196.496 228.872 195.843 230.178 195.843 231.391C195.843 232.603 196.216 233.816 196.683 234.936C197.429 236.615 198.455 238.201 199.575 239.6C198.735 238.854 197.709 238.294 196.589 237.828C195.657 237.548 194.724 237.361 193.791 237.641C192.671 238.014 191.925 239.227 191.738 240.44C191.552 241.653 191.738 242.865 192.018 243.985L191.738 245.011C189.22 244.171 187.074 242.212 187.074 239.694C187.167 239.32 187.26 238.854 187.354 238.481C190.339 225.327 185.954 210.774 176.159 201.538C177.745 197.526 178.398 193.048 177.652 188.757C177.185 186.145 176.252 183.533 174.666 181.48H178.584C179.237 180.827 179.797 180.268 180.45 179.708L180.823 180.174C182.316 181.76 183.902 183.346 185.395 185.025L185.115 185.305C194.537 195.287 202.56 206.575 208.81 218.703C209.837 220.662 210.77 222.621 211.236 224.767H210.863C210.49 223.088 207.878 222.342 206.385 223.368C204.799 224.394 204.239 226.633 204.706 228.499C205.172 230.365 206.385 231.95 207.504 233.443C205.639 232.51 204.426 230.738 202.84 229.432H203.213Z" fill="#CCCCCB"/>
<path d="M164.684 131.384C160.486 131.384 157.128 128.492 157.128 125.04C157.128 121.588 160.486 118.696 164.684 118.696C168.882 118.696 172.241 121.588 172.241 125.04C172.241 128.492 168.882 131.384 164.684 131.384Z" fill="black"/>
<path d="M154.982 179.988C160.673 177.935 167.296 175.883 172.334 179.148C173.36 179.801 174.2 180.641 174.946 181.574C176.532 183.626 177.465 186.238 177.931 188.85C178.678 193.142 178.025 197.62 176.439 201.631C174.946 205.456 172.427 208.908 169.162 211.52C162.539 216.744 152.93 218.143 145.093 214.878C139.869 212.733 135.578 208.721 131.566 204.71C131.193 204.337 130.82 203.963 130.447 203.59L141.455 201.724C142.295 197.993 145.746 195.101 149.478 194.821L156.475 190.436C156.475 190.343 156.381 190.25 156.288 190.063C155.355 188.197 155.075 186.052 154.982 183.906C154.982 182.6 154.982 181.294 154.982 180.081V179.988Z" fill="#CCCCCB"/>
<path d="M157.687 290.91C156.101 292.496 156.755 295.388 155.355 297.067C155.355 295.388 154.516 293.709 153.023 292.962C151.624 292.216 149.758 292.309 148.452 293.335H147.052C146.772 285.312 146.493 277.289 146.306 269.266V269.08C151.25 268.893 156.288 268.427 161.046 266.934C171.215 263.856 179.891 256.392 184.648 246.877L187.634 247.25C186.794 262.176 183.436 276.916 177.838 290.723C177.185 292.402 176.439 294.082 175.133 295.388H173.733C174.293 293.802 173.08 291.936 171.494 291.563C169.908 291.19 168.229 292.123 167.203 293.429C166.177 294.641 165.524 296.227 164.964 297.813C164.777 295.761 164.498 293.522 163.285 291.843C162.072 290.164 159.367 289.417 157.874 290.817L157.687 290.91Z" fill="#CCCCCB"/>
<path d="M166.83 138.474C173.267 138.474 178.398 133.436 178.398 127.279C178.398 121.122 173.174 116.084 166.83 116.084C160.486 116.084 155.262 121.028 155.262 127.279C155.262 133.529 160.486 138.474 166.83 138.474ZM95.0897 145.564C101.527 145.564 106.658 140.526 106.658 134.369C106.658 128.212 101.433 123.174 95.0897 123.174C88.7459 123.174 83.5217 128.212 83.5217 134.369C83.5217 140.526 88.6527 145.564 95.0897 145.564ZM106.564 186.891C102.926 186.331 99.2877 185.399 95.836 184.186C90.4252 182.227 85.3875 179.521 80.723 176.07C76.3383 172.711 72.5134 168.793 69.2483 164.315C66.7294 160.863 64.5838 157.132 62.8112 153.12C61.6918 150.508 60.7589 147.803 60.0125 145.004C56.7474 132.503 57.8669 119.256 61.5052 106.848C62.1582 104.703 62.9045 102.464 63.6509 100.411C65.2368 96.1198 67.1959 92.015 69.4349 88.0036C75.1256 78.1148 82.8687 69.4388 92.4776 63.4682C110.109 52.46 133.152 51.3405 152.463 58.9903C163.378 63.2816 173.08 70.1851 181.01 78.6745C183.902 81.6598 186.514 84.925 188.94 88.3767C191.832 92.3882 194.351 96.6796 196.496 101.157C202.747 114.032 205.919 128.958 203.68 142.858C203.027 147.15 201.814 151.441 199.948 155.452C199.668 156.105 199.388 156.665 199.108 157.318C194.724 165.994 187.913 173.178 180.637 179.708C179.984 180.268 179.424 180.827 178.771 181.387H174.853C174.107 180.548 173.267 179.708 172.241 179.148C167.203 175.883 160.579 177.842 154.889 179.988C154.889 178.962 154.889 178.029 154.982 177.002L146.399 176.349C139.309 175.51 131.846 178.775 127.835 184.652L116.92 186.518C116.92 186.611 117.013 186.705 117.106 186.798L116.173 187.358C112.908 187.358 109.736 187.264 106.471 186.705L106.564 186.891Z" fill="#CCCCCB"/>
<path d="M117.013 186.611L127.928 184.746C132.033 178.868 139.496 175.603 146.493 176.443L155.075 177.096C155.075 178.122 154.982 179.055 154.982 180.081C154.982 181.387 154.982 182.693 154.982 183.906C155.075 186.052 155.355 188.197 156.288 190.063C156.288 190.156 156.381 190.25 156.475 190.436L149.478 194.821C145.653 195.101 142.201 197.993 141.455 201.724L130.447 203.59C125.502 198.459 120.838 192.955 117.106 186.891C117.106 186.798 117.013 186.705 116.92 186.611H117.013Z" fill="#CCCCCB"/>
<path d="M106.285 188.384L106.471 186.891C109.643 187.358 112.908 187.544 116.173 187.544L117.106 186.985C120.838 193.048 125.502 198.553 130.447 203.683C130.82 204.057 131.193 204.43 131.566 204.803C135.578 208.814 139.869 212.733 145.093 214.972C152.93 218.237 162.445 216.931 169.162 211.613C172.427 209.001 174.853 205.549 176.439 201.724C186.234 210.96 190.619 225.513 187.634 238.667C187.634 239.04 187.447 239.507 187.354 239.88C186.701 242.306 185.768 244.731 184.648 246.97C179.891 256.486 171.215 263.949 161.046 267.028C156.288 268.427 151.344 268.987 146.306 269.173C144.534 269.173 142.668 269.173 140.895 269.267C140.242 269.267 139.589 269.267 138.936 269.267C131.939 269.267 124.943 268.987 118.412 266.654C110.016 263.762 102.739 257.512 98.6347 249.582C98.2615 248.743 97.7951 247.996 97.5152 247.157C96.489 244.731 95.7427 242.119 95.2762 239.414C94.4366 234.096 94.7165 228.685 96.3024 223.554C98.1682 217.584 101.62 212.266 104.139 206.575C106.751 200.885 108.43 194.354 106.564 188.477L106.285 188.384Z" fill="#CCCCCB"/>
<path d="M97.5152 125.786C101.62 125.786 105.072 128.678 105.072 132.13C105.072 135.582 101.713 138.474 97.5152 138.474C93.3172 138.474 89.9587 135.582 89.9587 132.13C89.9587 128.678 93.3172 125.786 97.5152 125.786Z" fill="black"/>
<path d="M98.4481 249.489C102.553 257.419 109.83 263.669 118.226 266.561C124.756 268.893 131.846 269.173 138.749 269.173C138.47 277.29 138.19 285.406 137.91 293.429H136.511C135.204 292.403 133.245 292.216 131.846 293.056C130.353 293.802 129.42 295.481 129.514 297.16C129.42 297.067 129.327 296.974 129.234 296.787C128.114 295.015 128.581 292.403 127.088 290.91C125.596 289.417 122.797 290.164 121.584 291.936C120.278 293.615 120.091 295.761 119.905 297.907C119.345 296.414 118.692 294.828 117.666 293.522C116.64 292.216 114.96 291.376 113.281 291.656C111.695 291.936 110.483 293.615 110.856 295.108L109.456 295.388C108.15 294.082 107.404 292.403 106.751 290.723C100.967 276.916 97.5152 262.177 96.6756 247.25L97.4219 246.97C97.7951 247.81 98.1682 248.649 98.5414 249.396L98.4481 249.489Z" fill="#CCCCCB"/>
<path d="M106.284 188.384C108.15 194.354 106.471 200.885 103.859 206.482C101.247 212.173 97.8884 217.49 96.0225 223.461C94.4366 228.592 94.1567 234.003 94.9963 239.32L93.5037 239.6C93.5037 241.559 92.3842 243.239 90.705 244.265L88.6526 244.078C88.9325 242.959 89.1191 241.746 89.0258 240.533C88.8392 239.32 88.1862 238.201 87.0667 237.734C86.2271 237.455 85.2009 237.548 84.3613 237.921C83.3351 238.294 82.3089 238.947 81.4693 239.693C82.5887 238.294 83.6149 236.708 84.3613 235.029C84.8277 233.909 85.2942 232.697 85.2009 231.484C85.2009 230.271 84.6411 228.965 83.5216 228.312C81.7491 227.193 79.5102 228.125 77.9242 229.525C76.4316 230.831 75.2188 232.603 73.353 233.536C74.4725 232.044 75.6853 230.458 76.0584 228.592C76.5249 226.726 76.0584 224.487 74.3792 223.461C72.8865 222.435 70.3677 223.181 69.9946 224.954H69.6214C70.0879 222.808 71.114 220.756 72.0469 218.796C78.2041 206.669 86.0405 195.381 95.3695 185.399L95.7427 184.279C99.1944 185.492 102.833 186.425 106.471 186.984L106.284 188.477V188.384Z" fill="#CCCCCB"/>
<path d="M20.4574 98.8252C25.775 93.8808 33.6114 92.2949 40.7947 93.1345C47.9781 93.9741 54.7883 96.8661 61.5052 99.6648L63.7441 100.411C62.9045 102.557 62.2515 104.702 61.5984 106.848C57.9601 119.162 56.8407 132.503 60.1058 145.004C60.8521 147.803 61.785 150.508 62.9045 153.12L62.0649 153.493C62.9978 159.277 61.4119 165.434 57.6803 170.006C56.0943 171.965 54.0419 173.644 51.6164 174.11C48.0714 174.763 44.6196 172.525 41.6343 170.472C36.5034 166.834 31.2791 163.195 26.0549 159.557C21.4836 156.385 16.7258 152.934 14.0204 148.082C12.2479 144.911 11.4083 141.179 11.0351 137.541C9.91565 128.958 10.7553 120.095 13.2741 111.699C14.7667 106.941 16.9124 102.184 20.5507 98.7319L20.4574 98.8252Z" fill="#F7B7D3"/>
<path d="M10.9418 137.634C11.4083 141.272 12.1546 144.911 13.9271 148.176C16.6325 153.027 21.3904 156.479 25.9616 159.65C31.1858 163.289 36.3168 166.927 41.541 170.565C44.5263 172.618 47.9781 174.857 51.5231 174.204C53.9486 173.737 56.001 172.058 57.587 170.099C61.3186 165.528 62.9045 159.371 61.9716 153.587L62.8112 153.213C64.4904 157.132 66.6361 160.863 69.2482 164.408L68.6885 164.875C69.9946 172.245 66.0764 180.174 59.4528 183.719C52.8292 187.264 44.0599 186.052 38.649 180.921C36.0369 178.495 34.2644 175.23 31.4657 172.991C27.4542 169.726 21.9501 168.886 17.2856 166.554C8.32971 162.076 2.91888 152.28 1.51953 142.392C0.0268844 132.503 1.98598 122.428 4.41153 112.725C5.53101 108.434 6.65049 104.143 8.5163 100.131C13.554 89.5894 23.7226 81.5665 35.1973 79.2342C46.672 76.9019 59.1729 80.2604 67.9422 88.0968L69.4348 88.2834C67.1959 92.2015 65.2368 96.3996 63.6508 100.691L61.4119 99.9446C54.695 97.0526 47.8848 94.2539 40.7014 93.4143C33.5181 92.5747 25.6817 94.0674 20.3642 99.105C16.7258 102.557 14.5802 107.315 13.0875 112.072C10.5687 120.375 9.82236 129.238 10.8486 137.914L10.9418 137.634Z" fill="#CCCCCB"/>
<path d="M96.5823 247.343C97.4219 262.27 100.874 277.01 106.658 290.817C107.404 292.496 108.15 294.175 109.363 295.481C110.576 296.787 109.736 295.854 109.923 295.948C112.255 297.813 115.427 297.907 118.412 297.907H129.234C129.234 297.907 129.42 297.907 129.514 297.907C131.286 297.907 133.152 297.907 134.925 297.907C135.764 297.907 136.79 297.907 137.35 297.16C137.91 296.601 137.91 295.761 137.91 295.015C137.91 294.455 137.91 293.989 137.91 293.522C138.19 285.499 138.47 277.383 138.749 269.36" stroke="#231F20" stroke-linecap="round" stroke-linejoin="round"/>
<path d="M95.3695 185.399C86.1338 195.381 78.2041 206.669 72.0469 218.797C71.0208 220.756 70.0879 222.715 69.6214 224.86C69.3415 226.26 69.155 227.659 69.4348 229.058C69.6214 230.738 70.2744 232.23 71.2073 233.536C72.3268 235.309 73.8195 236.988 75.2188 238.481C76.245 239.6 77.2712 240.72 78.3907 241.746C80.2565 243.425 82.4022 244.825 84.8277 245.384C86.7868 245.851 89.0258 245.384 90.705 244.265C92.3842 243.239 93.597 241.559 93.5037 239.6" stroke="#231F20" stroke-linecap="round" stroke-linejoin="round"/>
<path d="M69.9946 225.14C69.9946 225.14 69.9946 224.954 69.9946 224.86C70.3678 223.088 72.8866 222.435 74.3792 223.368C75.9652 224.394 76.4316 226.633 76.0585 228.499C75.592 230.365 74.4725 231.95 73.3531 233.443C75.1256 232.51 76.3383 230.738 77.9243 229.432C79.4169 228.126 81.7492 227.193 83.5217 228.219C84.5479 228.872 85.1076 230.178 85.2009 231.391C85.2009 232.603 84.8278 233.816 84.3613 234.936C83.615 236.615 82.6821 238.201 81.4693 239.6M81.4693 239.6C81.0029 240.16 80.5364 240.72 79.9767 241.279C80.4431 240.72 80.9096 240.16 81.4693 239.6ZM81.4693 239.6C82.3089 238.854 83.3351 238.294 84.3613 237.828C85.2009 237.548 86.2271 237.361 87.0667 237.641C88.1862 238.014 88.8392 239.227 89.0258 240.44C89.2124 241.653 89.0258 242.865 88.6526 243.985" stroke="#231F20" stroke-linecap="round" stroke-linejoin="round"/>
<path d="M110.856 295.388C110.856 295.388 110.856 295.295 110.856 295.201C110.389 293.709 111.695 292.029 113.281 291.749C114.96 291.47 116.64 292.309 117.666 293.615C118.785 294.828 119.345 296.414 119.905 298C120.091 295.948 120.278 293.709 121.584 292.029C122.89 290.35 125.596 289.604 127.088 291.003C128.581 292.496 128.114 295.108 129.234 296.88C129.234 296.974 129.42 297.067 129.514 297.254C129.514 295.574 130.353 293.895 131.846 293.149C133.339 292.403 135.204 292.496 136.511 293.522" stroke="#231F20" stroke-linecap="round" stroke-linejoin="round"/>
<path d="M187.26 239.787C187.354 239.414 187.447 238.947 187.54 238.574C190.526 225.42 186.141 210.867 176.345 201.631C176.252 201.538 176.159 201.444 176.066 201.351" stroke="#231F20" stroke-linecap="round" stroke-linejoin="round"/>
<path d="M106.284 188.384C108.15 194.354 106.471 200.885 103.859 206.482C101.247 212.173 97.8884 217.49 96.0226 223.461C94.4366 228.592 94.1568 234.003 94.9964 239.32C95.4628 241.932 96.2091 244.545 97.2353 247.063C97.6085 247.903 97.9817 248.743 98.3548 249.489C102.46 257.419 109.736 263.669 118.132 266.561C124.663 268.893 131.753 269.173 138.656 269.173C145.56 269.173 139.962 269.173 140.615 269.173C142.388 269.173 144.254 269.173 146.026 269.08C150.971 268.893 156.008 268.427 160.766 266.934C170.935 263.856 179.611 256.392 184.368 246.877C185.488 244.638 186.421 242.212 187.074 239.787" stroke="#231F20" stroke-linecap="round" stroke-linejoin="round"/>
<path d="M139.496 241.653C140.895 239.507 144.533 239.227 146.213 241.28" stroke="#231F20" stroke-linecap="round" stroke-linejoin="round"/>
<path d="M185.395 185.399C194.817 195.381 202.84 206.669 209.09 218.797C210.117 220.756 211.049 222.715 211.516 224.86C211.889 226.26 211.982 227.659 211.796 229.058C211.516 231.111 210.49 232.977 209.184 234.749C208.157 236.055 207.038 237.361 205.918 238.574C205.079 239.507 204.146 240.44 203.213 241.279C201.161 243.239 198.828 244.825 196.123 245.478C194.724 245.757 193.324 245.664 191.925 245.198C189.406 244.358 187.26 242.399 187.26 239.88V239.694" stroke="#231F20" stroke-linecap="round" stroke-linejoin="round"/>
<path d="M211.236 225.14C211.236 225.14 211.236 224.954 211.236 224.86C210.863 223.088 208.251 222.435 206.758 223.368C205.172 224.394 204.612 226.633 205.079 228.499C205.545 230.365 206.758 231.95 207.878 233.443C206.012 232.51 204.799 230.738 203.213 229.432C201.627 228.126 199.295 227.193 197.522 228.219C196.496 228.872 195.843 230.178 195.843 231.391C195.843 232.603 196.216 233.816 196.683 234.936C197.429 236.615 198.455 238.201 199.575 239.6M199.575 239.6C200.041 240.16 200.508 240.72 201.067 241.279C200.601 240.72 200.135 240.16 199.575 239.6ZM199.575 239.6C198.735 238.854 197.709 238.294 196.589 237.828C195.657 237.548 194.724 237.361 193.791 237.641C192.671 238.014 191.925 239.227 191.738 240.44C191.552 241.653 191.738 242.865 192.018 243.985" stroke="#231F20" stroke-linecap="round" stroke-linejoin="round"/>
<path d="M187.54 247.343C186.701 262.27 183.342 277.01 177.745 290.817C177.092 292.496 176.345 294.175 175.039 295.481C174.853 295.668 174.666 295.854 174.48 296.041C172.241 297.907 169.069 298 166.177 298C165.71 298 165.244 298 164.777 298C161.606 298 158.434 298 155.355 298C153.583 298 151.81 298 150.131 298C149.291 298 148.265 298 147.705 297.254C147.146 296.507 147.146 295.854 147.146 295.108C147.146 294.642 147.146 294.082 147.146 293.615C146.866 285.592 146.586 277.476 146.399 269.453" stroke="#231F20" stroke-linecap="round" stroke-linejoin="round"/>
<path d="M173.547 295.388C174.107 293.895 172.894 292.029 171.308 291.656C169.722 291.283 168.043 292.216 167.016 293.522C165.99 294.735 165.337 296.321 164.777 297.907C164.591 295.854 164.311 293.615 163.098 291.936C161.885 290.257 159.18 289.511 157.687 290.91C156.101 292.496 156.755 295.388 155.355 297.067C155.355 295.388 154.516 293.709 153.023 292.962C151.624 292.216 149.758 292.309 148.452 293.335" stroke="#231F20" stroke-linecap="round" stroke-linejoin="round"/>
<path d="M178.864 181.48C179.517 180.921 180.077 180.361 180.73 179.801C188.007 173.271 194.91 166.181 199.202 157.412C199.481 156.759 199.761 156.199 200.041 155.546C201.814 151.534 203.027 147.243 203.773 142.952C206.012 129.051 202.84 114.125 196.589 101.251C194.444 96.7729 191.925 92.5748 189.033 88.47C186.607 85.0183 183.995 81.8464 181.103 78.7679C173.08 70.2784 163.378 63.375 152.556 59.0836C133.245 51.4338 110.203 52.5533 92.5708 63.5615C82.9619 69.5321 75.2188 78.2081 69.5281 88.0969C67.2892 92.0151 65.3301 96.2131 63.7441 100.504C62.9045 102.65 62.2515 104.796 61.5985 106.942C57.9602 119.256 56.8407 132.596 60.1058 145.097C60.8522 147.896 61.7851 150.601 62.9045 153.213C64.5838 157.132 66.7294 160.863 69.3416 164.408C72.6067 168.886 76.4316 172.804 80.8163 176.163C85.3875 179.615 90.5185 182.32 95.9293 184.279C99.381 185.492 103.019 186.425 106.658 186.985C109.83 187.451 113.095 187.638 116.36 187.638" stroke="#231F20" stroke-linecap="round" stroke-linejoin="round"/>
<path d="M109.456 161.703C109.456 170.006 112.068 178.122 116.173 185.305C116.453 185.772 116.733 186.238 116.92 186.611C116.92 186.705 117.013 186.798 117.106 186.891C120.838 192.955 125.502 198.459 130.447 203.59C130.82 203.963 131.193 204.337 131.566 204.71C135.578 208.721 139.869 212.639 145.093 214.878C152.93 218.143 162.445 216.837 169.162 211.52C172.427 208.908 174.853 205.456 176.439 201.631C178.025 197.62 178.678 193.142 177.931 188.85C177.465 186.238 176.532 183.626 174.946 181.574C174.2 180.641 173.36 179.801 172.334 179.148C167.296 175.883 160.673 177.842 154.982 179.988" stroke="#231F20" stroke-linecap="round" stroke-linejoin="round"/>
<path d="M158.154 162.449C156.475 167.114 155.448 172.058 155.169 177.096C155.169 178.122 155.075 179.055 155.075 180.081C155.075 181.387 155.075 182.693 155.075 183.906C155.169 186.052 155.448 188.197 156.381 190.063C156.381 190.156 156.475 190.25 156.568 190.436C157.594 192.116 159.367 193.515 161.326 193.515C163.658 193.515 165.804 191.369 165.804 189.037C165.804 186.705 163.658 184.559 161.326 184.559" stroke="#231F20" stroke-linecap="round" stroke-linejoin="round"/>
<path d="M116.826 145.284C125.596 140.899 135.764 139.313 145.466 140.899" stroke="#231F20" stroke-linecap="round" stroke-linejoin="round"/>
<path d="M123.077 164.875C129.7 160.863 137.817 159.371 145.373 160.77" stroke="#231F20" stroke-linecap="round" stroke-linejoin="round"/>
<path d="M127.928 184.746C132.033 178.868 139.496 175.603 146.493 176.443" stroke="#231F20" stroke-linecap="round" stroke-linejoin="round"/>
<path d="M141.548 201.724C142.388 197.993 145.84 195.101 149.571 194.821" stroke="#231F20" stroke-linecap="round" stroke-linejoin="round"/>
<path d="M68.0355 87.9103C59.2662 80.0739 46.7653 76.7154 35.2906 79.0477C23.8159 81.3799 13.6473 89.4029 8.60959 99.9447C6.74378 103.956 5.53101 108.248 4.50482 112.539C2.07927 122.241 0.120177 132.316 1.61282 142.205C3.01217 152.094 8.42301 161.889 17.3789 166.367C22.0434 168.7 27.4542 169.539 31.559 172.804C34.3577 175.043 36.1302 178.309 38.7423 180.734C44.1532 185.865 52.9225 187.078 59.5461 183.533C66.1697 179.988 69.9946 172.058 68.7818 164.688" stroke="#231F20" stroke-linecap="round" stroke-linejoin="round"/>
<path d="M61.5052 99.7581C54.7883 96.8661 47.9781 94.0674 40.7947 93.2278C33.6114 92.3882 25.775 93.8809 20.4574 98.9185C16.8191 102.37 14.6734 107.128 13.1808 111.886C10.662 120.189 9.91564 129.051 10.9418 137.727C11.4083 141.366 12.1546 145.004 13.9271 148.269C16.6325 153.12 21.3903 156.572 25.9616 159.744C31.1858 163.382 36.3168 167.02 41.541 170.659C44.5263 172.711 47.9781 174.95 51.5231 174.297C53.9486 173.831 56.001 172.151 57.587 170.192C61.3186 165.621 62.9045 159.464 61.9716 153.68" stroke="#231F20" stroke-linecap="round" stroke-linejoin="round"/>
<path d="M186.048 185.585C185.954 185.399 185.768 185.305 185.581 185.119C184.089 183.533 182.503 181.947 181.01 180.268" stroke="#231F20" stroke-linecap="round" stroke-linejoin="round"/>
<path d="M106.658 134.369C106.658 140.526 101.433 145.564 95.0897 145.564C88.7459 145.564 83.5217 140.526 83.5217 134.369C83.5217 128.212 88.6526 123.174 95.0897 123.174C101.527 123.174 106.658 128.212 106.658 134.369Z" stroke="#231F20" stroke-linecap="round" stroke-linejoin="round"/>
<path d="M104.978 132.223C104.978 135.768 101.62 138.567 97.4219 138.567C93.2239 138.567 89.8654 135.675 89.8654 132.223C89.8654 128.771 93.2239 125.879 97.4219 125.879C101.62 125.879 104.978 128.771 104.978 132.223Z" stroke="#231F20" stroke-linecap="round" stroke-linejoin="round"/>
<path d="M159.833 104.143C166.084 103.117 172.8 104.703 177.931 108.341" stroke="#231F20" stroke-linecap="round" stroke-linejoin="round"/>
<path d="M182.783 77.7417C186.607 71.9577 192.298 67.3864 198.922 65.0542C204.799 63.0018 211.329 62.7219 217.486 63.5615C234.838 65.9871 250.511 77.7416 257.695 93.6943C260.4 99.6649 261.893 106.009 262.732 112.539C263.199 116.177 263.385 119.816 263.479 123.361C263.665 130.731 263.105 138.66 258.441 144.258C254.803 148.736 249.112 151.068 244.634 154.799C239.223 159.277 235.678 165.808 229.614 169.446C224.11 172.804 217.02 173.084 211.143 170.379C205.359 167.673 201.067 161.889 200.135 155.546" stroke="#231F20" stroke-linecap="round" stroke-linejoin="round"/>
<path d="M189.779 88.0969C200.508 77.4618 218.419 75.4094 231.853 82.4062C243.421 88.47 251.258 100.691 253.03 113.752C253.31 115.804 253.403 117.856 253.403 119.816C253.31 127.279 251.071 135.115 245.38 139.873C242.582 142.205 239.13 143.698 236.145 145.844C232.786 148.269 229.987 151.441 226.629 153.96C223.27 156.385 218.886 158.065 214.968 156.759C209.557 154.986 207.225 148.642 205.732 143.138" stroke="#231F20" stroke-linecap="round" stroke-linejoin="round"/>
<path d="M117.759 54.4191C117.293 50.1277 115.987 46.023 113.934 42.2914" stroke="#231F20" stroke-linecap="round" stroke-linejoin="round"/>
<path d="M118.599 53.8593C117.479 48.6351 116.826 43.3175 116.826 38" stroke="#231F20" stroke-linecap="round" stroke-linejoin="round"/>
<path d="M119.998 54.0459C118.972 50.9674 120.371 47.329 123.17 45.6498" stroke="#231F20" stroke-linecap="round" stroke-linejoin="round"/>
<path d="M104.885 159.837C107.124 160.583 109.55 160.49 111.789 159.651" stroke="#231F20" stroke-linecap="round" stroke-linejoin="round"/>
<path d="M156.008 159.184C157.594 160.397 159.46 161.143 161.419 161.516" stroke="#231F20" stroke-linecap="round" stroke-linejoin="round"/>
<path d="M99.381 110.953C92.4775 109.927 85.2009 111.513 79.6035 115.151" stroke="#231F20" stroke-linecap="round" stroke-linejoin="round"/>
<path d="M178.491 127.279C178.491 133.436 173.267 138.474 166.923 138.474C160.579 138.474 155.355 133.436 155.355 127.279C155.355 121.122 160.579 116.084 166.923 116.084C173.267 116.084 178.491 121.028 178.491 127.279Z" stroke="#231F20" stroke-linecap="round" stroke-linejoin="round"/>
<path d="M172.241 125.04C172.241 128.585 168.882 131.384 164.684 131.384C160.486 131.384 157.128 128.492 157.128 125.04C157.128 121.588 160.486 118.696 164.684 118.696C168.882 118.696 172.241 121.588 172.241 125.04Z" stroke="#231F20" stroke-linecap="round" stroke-linejoin="round"/>
</svg>
