<svg width="88" height="80" viewBox="0 0 88 80" fill="none" xmlns="http://www.w3.org/2000/svg">
<path d="M47.258 37.3259C47.3055 37.1992 47.3688 37.0884 47.4321 36.9617C49.4908 32.7652 51.8503 28.6955 54.4632 24.8157C54.4474 24.7999 54.479 24.784 54.479 24.784C57.5195 21.1735 61.5259 18.2281 66.1658 17.3729C72.2784 16.2486 78.8344 19.0674 82.6033 24.0239C86.388 28.9647 87.4331 35.7265 85.8337 41.7441C85.5962 42.6626 85.2161 43.6602 84.3452 44.0561C83.7117 44.3411 82.9833 44.2303 82.3024 44.1036C73.8619 42.6309 65.4215 41.1423 56.9811 39.6696L56.9019 40.1288C53.7031 39.5588 50.4409 39.2579 47.1946 38.957V38.8937H46.5137C46.7512 38.3711 47.0046 37.8485 47.258 37.3259Z" fill="#ED328F"/>
<path d="M46.5129 38.8937H47.1939V38.957C50.4402 39.2579 53.7024 39.5588 56.9012 40.1289C59.1973 40.5248 61.4619 41.079 63.663 41.855C68.9363 43.7236 73.8771 47.0807 76.5374 51.9898C79.1978 56.9147 79.1028 63.5024 75.4131 67.6988C73.6237 69.71 71.2166 71.0402 68.8571 72.307C65.4841 74.144 62.127 75.9651 58.754 77.7862C57.0595 78.7046 55.2226 79.6548 53.3065 79.4489C50.7253 79.1797 48.825 76.9469 47.5423 74.6824C44.8977 69.995 43.805 64.7851 43.52 59.4009C44.3435 55.3153 44.3276 51.1188 43.9792 46.9224C43.7575 44.262 43.4091 41.6016 43.0449 38.9729V38.8937H46.5129Z" fill="#ED328F"/>
<path d="M41.715 34.0638C41.7467 33.9529 41.7942 33.8421 41.8417 33.7312L42.1584 33.8421C46.4024 26.621 51.929 20.16 58.4058 14.8551C56.5214 15.0293 55.0328 12.4639 56.1413 10.912C57.234 9.36007 60.1478 9.91432 60.607 11.7513C60.6228 10.041 60.6387 8.33075 60.6545 6.60466C61.0504 6.46214 61.478 6.39879 61.9055 6.43046C62.6973 6.4463 63.4733 6.74718 64.0433 7.26976C63.0299 6.19293 63.5366 4.11845 64.946 3.62754C66.292 3.15247 67.9073 4.37182 67.9073 5.76537C68.1131 4.19763 68.3032 2.59822 68.4932 1.01465C71.1219 0.777118 73.5764 3.46919 73.1014 6.05041C75.2709 6.14542 77.0761 8.40993 76.6802 10.5319C75.8884 10.6744 75.065 10.6428 74.2891 10.4686C73.9407 10.1043 73.4814 9.89848 72.9747 9.97766C73.4022 10.1835 73.8298 10.3577 74.2891 10.4686C74.8116 11.007 75.065 11.8621 74.7483 12.5589C74.2099 13.7149 72.5946 14.1108 71.4703 13.4932C70.9477 13.2081 70.5518 12.7806 70.2826 12.258C70.346 11.5612 70.2034 10.8486 69.8392 10.2785C69.8076 10.9595 69.9501 11.6562 70.2826 12.258C70.2034 13.0023 69.855 13.7149 69.3008 14.2216C68.224 15.1718 66.4345 15.2193 65.326 14.3008C65.2627 15.2034 65.2152 16.1219 65.1518 17.0246C63.7266 16.2486 61.9055 16.5812 60.512 17.4363C59.1343 18.2914 58.1049 19.6216 57.1548 20.936C56.2363 22.2028 55.3337 23.4855 54.4786 24.784C54.4786 24.784 54.4469 24.7999 54.4627 24.8157C54.2569 25.0374 54.0669 25.275 53.8768 25.5125C51.1848 28.9647 49.237 32.9553 47.4317 36.9617C47.3683 37.0884 47.305 37.1992 47.2575 37.3259C47.0041 37.8485 46.7507 38.3711 46.5132 38.8937H40.3373L39.9414 38.4503C40.4957 37.0726 41.0499 35.6948 41.5883 34.333C41.6358 34.238 41.6675 34.1588 41.715 34.0638Z" fill="#EAE611"/>
<path d="M62.0168 5.29029L61.9059 6.43046C61.4784 6.39879 61.0508 6.46214 60.6549 6.60466C60.6391 8.33075 60.6233 10.041 60.6074 11.7513C60.1482 9.91432 57.2344 9.36007 56.1417 10.912C55.0332 12.4639 56.5218 15.0293 58.4063 14.8551C51.9295 20.16 46.4028 26.621 42.1588 33.8421L41.8421 33.7312C41.7946 33.8421 41.7471 33.9529 41.7154 34.0638C41.5571 33.8262 41.4145 33.5887 41.272 33.3512C39.7993 29.028 37.6456 24.9582 34.8902 21.3002C34.1776 19.3682 33.6392 17.3888 33.3383 15.3301C32.9108 12.353 33.1166 9.04336 35.0644 6.74718C36.7272 4.76772 39.3401 3.91259 41.8263 3.15247C45.2785 2.09148 48.8098 0.998817 52.4362 1.03049C56.0626 1.06216 59.8473 2.37652 62.0168 5.29029Z" fill="#ED328F"/>
<path d="M38.6907 39.2896V39.1629C40.1159 39.0837 41.5253 39.0045 42.9505 38.9253V38.8937H43.0455V38.9729C43.4098 41.6016 43.7582 44.262 43.9799 46.9224C43.5681 51.0872 43.2989 55.2995 43.5206 59.4009C43.4256 59.9235 43.2989 60.4302 43.1722 60.937C41.3353 68.0789 35.9828 74.8249 28.6984 75.9809C23.726 76.7885 18.6744 74.9041 14.3354 72.3545C11.1366 70.4542 7.96946 67.9205 7.01932 64.31C5.95833 60.3194 7.9378 56.1388 10.4398 52.8608C15.4439 46.3206 22.8867 41.7599 30.9312 40.0497C33.4808 39.4954 36.0778 39.2262 38.6907 39.2896Z" fill="#ED328F"/>
<path d="M30.8359 39.6221C23.8207 40.9998 16.6155 41.3482 9.50524 40.6356C6.71816 40.3664 3.61436 39.7329 2.03079 37.4051C0.447219 35.0931 0.985631 32.0051 1.6824 29.2972C2.82257 24.784 4.24779 20.2392 7.03488 16.5178C9.82196 12.7964 14.1926 9.99348 18.8483 10.1518C23.0606 10.3102 26.8453 12.8439 29.9175 15.726C31.7386 17.4363 33.4013 19.3049 34.8899 21.3002C36.4576 25.5283 38.8488 29.5031 41.2717 33.3511C41.3825 33.6679 41.4934 34.0004 41.5884 34.333C41.05 35.6948 40.4957 37.0725 39.9415 38.4502L40.3374 38.8936H42.9502V38.9253C41.525 39.0045 40.1156 39.0837 38.6904 39.1628V39.2895C36.0775 39.2262 33.4805 39.4954 30.9309 40.0496L30.8359 39.6221Z" fill="#ED328F"/>
<path d="M41.7139 34.0638C41.6664 34.1588 41.6347 34.238 41.5872 34.333C41.4922 34.0004 41.3814 33.6679 41.2705 33.3512C41.413 33.5887 41.5555 33.8262 41.7139 34.0638Z" fill="#ED328F"/>
<path d="M41.5884 34.333C41.4934 34.0004 41.3825 33.6679 41.2717 33.3511C39.7989 29.028 37.6453 24.9582 34.8899 21.3002C33.4013 19.3049 31.7386 17.4363 29.9175 15.726C26.8453 12.8439 23.0606 10.3102 18.8483 10.1518C14.1926 9.99348 9.82196 12.7964 7.03488 16.5178C4.24779 20.2392 2.82257 24.784 1.6824 29.2972C0.985631 32.0051 0.447219 35.0931 2.03079 37.4051C3.61436 39.7329 6.71816 40.3664 9.50524 40.6356C16.6155 41.3482 23.8207 40.9998 30.8359 39.6221C33.623 39.0837 36.3784 38.3711 39.0863 37.5001" stroke="#231F20" stroke-miterlimit="10"/>
<path d="M39.435 39.3054C39.1975 39.2896 38.9441 39.2896 38.6907 39.2896C36.0778 39.2262 33.4808 39.4954 30.9312 40.0497C22.8867 41.7599 15.4439 46.3206 10.4398 52.8608C7.9378 56.1387 5.95833 60.3194 7.01932 64.31C7.96946 67.9205 11.1366 70.4542 14.3354 72.3545C18.6744 74.9041 23.726 76.7885 28.6984 75.9809C35.9828 74.8249 41.3353 68.0789 43.1722 60.937C43.2989 60.4302 43.4256 59.9235 43.5206 59.4009C44.3441 55.3153 44.3283 51.1188 43.9799 46.9224C43.7582 44.262 43.4098 41.6016 43.0455 38.9728" stroke="#231F20" stroke-miterlimit="10"/>
<path d="M44.5653 41.76C44.3594 43.4702 44.1535 45.1963 43.9794 46.9224C43.5676 51.0872 43.2984 55.2995 43.5201 59.4009C43.8052 64.7851 44.8978 69.995 47.5424 74.6824C48.8251 76.9469 50.7254 79.1797 53.3066 79.4489C55.2227 79.6548 57.0597 78.7046 58.7541 77.7862C62.1271 75.9651 65.4842 74.144 68.8572 72.307C71.2168 71.0402 73.6238 69.71 75.4132 67.6988C79.1029 63.5024 79.198 56.9147 76.5376 51.9898C73.8772 47.0807 68.9364 43.7236 63.6631 41.855C61.462 41.079 59.1975 40.5248 56.9013 40.1289C53.7025 39.5588 50.4403 39.2579 47.194 38.957" stroke="#231F20" stroke-miterlimit="10"/>
<path d="M47.2582 37.3259C47.0524 37.7693 46.8465 38.2285 46.6406 38.6878" stroke="#231F20" stroke-miterlimit="10"/>
<path d="M54.4627 24.8157C54.2568 25.0374 54.0668 25.2749 53.8768 25.5125C51.1847 28.9647 49.2369 32.9553 47.4316 36.9617" stroke="#231F20" stroke-miterlimit="10"/>
<path d="M56.9796 39.6696C65.42 41.1423 73.8605 42.6309 82.3009 44.1036C82.9818 44.2303 83.7103 44.3411 84.3437 44.0561C85.2146 43.6602 85.5947 42.6626 85.8322 41.7441C87.4316 35.7265 86.3865 28.9647 82.6018 24.0239C78.8329 19.0674 72.2769 16.2486 66.1643 17.3729C61.5244 18.2281 57.518 21.1735 54.4775 24.784" stroke="#231F20" stroke-miterlimit="10"/>
<path d="M41.9055 34.3805C41.8421 34.2696 41.7788 34.1746 41.7154 34.0638C41.5571 33.8262 41.4145 33.5887 41.272 33.3512C38.8492 29.5031 36.458 25.5283 34.8902 21.3002C34.1776 19.3682 33.6392 17.3888 33.3383 15.3301C32.9108 12.353 33.1166 9.04336 35.0644 6.74718C36.7272 4.76772 39.3401 3.91259 41.8263 3.15247C45.2785 2.09148 48.8098 0.998817 52.4362 1.03049C56.0626 1.06216 59.8473 2.37652 62.0168 5.29029" stroke="#231F20" stroke-miterlimit="10"/>
<path d="M70.2833 12.258C70.2041 13.0023 69.8557 13.7149 69.3015 14.2216C68.2246 15.1718 66.4352 15.2193 65.3267 14.3008C65.2634 15.2034 65.2159 16.1219 65.1525 17.0245C63.7273 16.2486 61.9062 16.5811 60.5127 17.4363C59.135 18.2914 58.1056 19.6216 57.1555 20.936C56.237 22.2028 55.3344 23.4855 54.4793 24.784C54.4793 24.784 54.4476 24.7999 54.4634 24.8157C51.8505 28.6955 49.491 32.7652 47.4324 36.9617C47.369 37.0884 47.3057 37.1992 47.2582 37.3259C47.0048 37.8485 46.7514 38.3711 46.5139 38.8936C46.4347 39.052 46.3555 39.2262 46.2764 39.3846" stroke="#231F20" stroke-miterlimit="10"/>
<path d="M70.2817 12.258C69.9491 11.6562 69.8066 10.9594 69.8383 10.2785C70.2025 10.8486 70.345 11.5612 70.2817 12.258Z" stroke="#231F20" stroke-miterlimit="10"/>
<path d="M74.2896 10.4685C74.8122 11.007 75.0656 11.8621 74.7489 12.5588C74.2104 13.7149 72.5952 14.1107 71.4709 13.4932C70.9483 13.2081 70.5524 12.7806 70.2832 12.258" stroke="#231F20" stroke-miterlimit="10"/>
<path d="M74.289 10.4685C73.8297 10.3577 73.4022 10.1835 72.9746 9.97764C73.4814 9.89846 73.9406 10.1043 74.289 10.4685Z" stroke="#231F20" stroke-miterlimit="10"/>
<path d="M67.8916 5.93956C67.8916 5.93956 67.9075 5.82871 67.9075 5.76537C68.1133 4.19763 68.3033 2.59822 68.4934 1.01465C71.1221 0.777118 73.5766 3.46919 73.1016 6.05041C75.2711 6.14542 77.0763 8.40993 76.6804 10.5319C75.8886 10.6744 75.0652 10.6428 74.2892 10.4686" stroke="#231F20" stroke-miterlimit="10"/>
<path d="M42.1592 33.842C46.4031 26.621 51.9298 20.16 58.4066 14.855C56.5222 15.0292 55.0336 12.4638 56.1421 10.9119C57.2348 9.36004 60.1486 9.9143 60.6078 11.7512C60.6236 10.041 60.6395 8.33073 60.6553 6.60463C61.0512 6.46211 61.4787 6.39877 61.9063 6.43044C62.6981 6.44628 63.474 6.74715 64.0441 7.26973C63.0306 6.19291 63.5374 4.11843 64.9468 3.62752C66.2928 3.15245 67.908 4.3718 67.908 5.76534" stroke="#231F20" stroke-miterlimit="10"/>
<path d="M42.2051 31.7517C42.3793 28.3787 42.5693 24.9899 42.7593 21.6169" stroke="#231F20" stroke-miterlimit="10"/>
<path d="M39.9889 35.5206C36.4892 33.0186 33.0053 30.5007 29.5215 27.9828" stroke="#231F20" stroke-miterlimit="10"/>
<path d="M39.9405 36.2016C37.0109 34.6497 33.6854 33.8738 30.3916 33.9846" stroke="#231F20" stroke-miterlimit="10"/>
<path d="M39.498 41.0632C37.8352 43.8503 35.5074 46.2256 32.752 47.9517" stroke="#231F20" stroke-miterlimit="10"/>
<path d="M40.1315 41.5065C40.3057 44.832 39.8623 48.205 38.833 51.388" stroke="#231F20" stroke-miterlimit="10"/>
<path d="M46.1328 40.7306C48.3815 42.5992 49.8542 45.3705 50.1392 48.2842" stroke="#231F20" stroke-miterlimit="10"/>
<path d="M47.5264 41.5065C50.8519 42.3142 54.019 43.8185 56.7586 45.893" stroke="#231F20" stroke-miterlimit="10"/>
<path d="M48.666 37.896C50.6138 34.6655 52.9417 31.6726 55.6021 28.9964" stroke="#231F20" stroke-miterlimit="10"/>
<path d="M50.1406 36.1699C51.9459 35.9957 53.767 35.8057 55.5881 35.6315" stroke="#231F20" stroke-miterlimit="10"/>
<path d="M38.6895 39.1629C40.1147 39.0837 41.524 39.0045 42.9493 38.9253" stroke="#231F20" stroke-miterlimit="10"/>
<path d="M49.0782 38.8937H40.3369" stroke="#231F20" stroke-miterlimit="10"/>
<path d="M41.8417 33.7312C41.7942 33.8421 41.7467 33.9529 41.715 34.0638C41.6675 34.1588 41.6358 34.238 41.5883 34.333C41.0499 35.6949 40.4957 37.0726 39.9414 38.4503" stroke="#231F20" stroke-miterlimit="10"/>
</svg>
