<svg width="243" height="133" viewBox="0 0 243 133" fill="none" xmlns="http://www.w3.org/2000/svg">
<g clip-path="url(#clip0_44_2)">
<path fill-rule="evenodd" clip-rule="evenodd" d="M79.9913 8.3536C80.5705 2.19563 84.6505 0.00153981 88.2752 0.00153981C90.5904 0.00153981 92.8523 0.807327 94.7603 1.59627C102.556 4.82092 110.296 13.296 113.527 21.8943C113.792 21.8347 114.059 21.7781 114.326 21.7246C114.5 20.3447 115.27 19.0611 116.504 18.2736C117.277 17.7813 118.17 17.5206 119.086 17.5206C120.07 17.5206 121.031 17.8279 121.831 18.383C122.38 18.1704 122.968 18.058 123.568 18.058C123.924 18.058 124.28 18.0985 124.627 18.1765C126.224 18.5374 127.816 19.285 129.384 20.4081C132.794 12.5576 140.346 4.57091 147.536 1.59701C150.16 0.512196 152.139 0.0282765 153.952 0.0282765C156.378 0.0282765 162.067 1.01828 162.502 10.1861C162.946 19.5465 155.238 31.478 150.27 36.8483C153.689 42.0104 155.665 47.6828 155.873 53.0075C155.892 53.4946 155.864 54.139 155.807 55.1398C157.675 56.525 158.642 58.4575 158.562 60.7045C158.497 62.5147 157.573 64.0897 156.109 65.0131C155.644 66.636 154.772 67.9381 154.349 68.5701C147.478 78.8238 126.829 79.6201 120.664 79.6201C113.512 79.6201 106.545 78.7267 101.043 77.1034C93.9398 75.008 89.2519 71.7821 87.1098 67.5151C86.6628 66.624 86.3475 65.7928 86.1585 65.0061C85.7144 64.7095 85.3196 64.3434 84.9868 63.9175C84.8519 63.7456 84.7264 63.5607 84.6146 63.3672C83.7451 61.8666 83.5494 60.1549 84.0614 58.5463C84.4861 57.2146 85.3616 56.0625 86.6704 55.1092C86.5916 53.5953 86.5563 52.5762 86.6215 51.863C87.1252 46.3595 88.9077 41.1342 91.8014 36.6358C90.4506 35.0375 88.1444 32.1041 85.9364 28.4704C81.4323 21.0595 79.4324 14.2914 79.9913 8.3536Z" fill="#20185B"/>
<path d="M153.764 60.5333C153.833 58.5961 150.993 58.2055 150.897 58.0272C150.782 57.8148 151.109 54.0343 151.076 53.194C150.6 41.0402 138.787 28.2014 130.198 27.6869C129.905 27.6693 127.152 23.6634 123.568 22.8538C123.985 24.0678 123.832 25.3231 123.21 26.6128L119.089 22.3171C119.089 22.3171 121.796 29.2457 119.806 31.8037L118.91 25.8972C104.243 27.2603 92.7734 37.3235 91.4016 52.2996C91.3121 53.2758 91.6673 57.5847 91.5807 57.8484C91.5035 58.0838 87.7127 59.1405 88.7696 60.9659C88.8385 61.054 88.954 61.0889 89.1024 61.0889C89.665 61.0889 90.6999 60.5898 91.4629 60.5898C91.7225 60.5898 91.9505 60.6473 92.118 60.8023C90.6799 62.6334 90.2492 63.0713 91.4009 65.3665C94.5773 71.6933 107.563 74.8255 120.663 74.8255C133.469 74.8255 146.385 71.8323 150.359 65.9032C150.999 64.9476 152.039 63.2871 151.434 62.1439C151.29 61.8719 149.72 61.0699 150.269 60.2643C150.742 60.4309 152.168 61.0816 153.045 61.0816C153.458 61.0816 153.749 60.9386 153.764 60.5333Z" fill="#FFC0C0"/>
<path d="M139.696 60.8023C146.79 60.1968 148.151 67.5574 141.488 67.9627C134.886 68.364 133.194 61.3572 139.696 60.8023Z" fill="#F6A7A8"/>
<path d="M101.347 60.8023C107.776 60.4438 108.751 66.9449 102.959 67.7838C94.8542 68.9565 94.5366 61.1823 101.347 60.8023Z" fill="#F6A7A8"/>
<path d="M125.539 28.7609C125.974 28.9138 124.681 31.1385 124.374 31.3564L127.152 30.3717C127.044 31.9236 121.127 33.6736 120.79 32.9671C122.717 32.0307 124.191 30.3985 125.539 28.7609Z" fill="#20185B"/>
<path d="M137.367 47.9136C144.694 46.7149 146.722 59.5255 138.621 60.0861C130.567 60.6433 131.788 48.8266 137.367 47.9136Z" fill="#20185B"/>
<path d="M138.262 50.2408C141.074 49.6206 141.317 54.0731 139.338 54.5363C136.463 55.21 136.265 50.681 138.262 50.2408Z" fill="white"/>
<path d="M103.139 47.9139C111.195 46.6677 112.591 61.712 103.139 59.9072C96.6361 58.6656 98.1277 48.689 103.139 47.9139Z" fill="#20185B"/>
<path d="M102.959 50.2407C106.245 49.4358 106.088 55.4487 102.959 54.5367C101.472 54.1031 101.354 50.6338 102.959 50.2407Z" fill="white"/>
<path d="M120.521 57.58C122.309 57.343 125.209 58.1755 123.299 60.3544C122.543 61.2166 121.38 60.6227 121.686 62.1439C121.975 63.5796 124.735 63.6861 125.629 62.5017C125.873 62.1768 125.627 60.4704 126.704 61.4277C127.139 62.8618 125.378 63.5903 125.091 64.1126C124.744 64.7441 124.778 66.2815 124.195 67.1554C122.996 68.9542 120.084 69.1214 118.64 67.5131C117.727 66.4963 117.933 65.0147 117.565 64.2905C117.314 63.7984 114.415 61.7379 116.4 61.1577C116.94 63.9727 120.677 64.1615 120.97 61.2472C119.526 60.7358 118.553 60.0867 118.819 58.3833C119.033 57.722 120.253 57.6159 120.521 57.58Z" fill="#20185B"/>
<path d="M123.837 66.3511C122.201 65.8044 120.303 65.4207 118.819 66.5299C118.445 65.8028 118.342 65.2754 118.282 64.4711C119.141 64.8654 121.053 63.3077 121.328 63.3077C121.571 63.3077 121.721 63.8816 122.672 64.2028C123.698 64.5482 125.013 63.6209 123.837 66.3511Z" fill="#CC3A4D"/>
<path d="M123.837 66.3511C122.897 68.5336 119.905 68.637 118.819 66.5299C120.302 65.4201 122.2 65.8044 123.837 66.3511Z" fill="#EA767E"/>
<path d="M119.805 31.8037C123.53 28.3681 119.088 22.3171 119.088 22.3171C119.088 22.3171 121.796 29.2457 119.805 31.8037Z" fill="#FFDEDE"/>
<path d="M123.793 27.1104C125.192 24.8949 123.567 22.8537 123.567 22.8537C123.984 24.0677 123.831 25.323 123.209 26.6127C123.209 26.6127 123.548 26.9231 123.793 27.1104Z" fill="#FFDEDE"/>
<path d="M119.165 27.5882L118.909 25.8972C110.92 26.6395 103.885 29.9673 98.9087 35.26L98.8857 35.3364C98.8857 35.3364 107.793 27.6617 119.165 27.5882Z" fill="#FFDEDE"/>
<path d="M130.198 27.6868C129.905 27.6692 139.77 32.312 143.311 35.659C139.289 31.0918 134.366 27.936 130.198 27.6868Z" fill="#FFDEDE"/>
<path d="M121.281 73.7206C94.8352 73.9746 90.7452 63.3083 90.7452 63.3083V63.4244C90.7688 63.9285 90.9769 64.5216 91.4009 65.3665C94.5773 71.6933 107.563 74.8255 120.663 74.8255C133.469 74.8255 146.385 71.8323 150.359 65.9032C150.698 65.3968 151.143 64.6929 151.403 63.9727C144.74 71.9929 131.193 73.6358 121.281 73.7206Z" fill="#F6A7A8"/>
<path d="M97.4869 30.9993C97.8202 31.3425 98.1467 31.6827 98.4293 31.9824C99.858 30.6507 101.423 29.4512 103.105 28.3908L103.088 28.2012C102.571 22.5257 100.081 17.0657 95.8698 12.3511C95.4284 11.8564 94.9248 11.4199 94.3935 11.0224C94.3905 11.0201 94.3882 11.0185 94.3852 11.0162C92.9315 9.92912 91.5478 8.89478 89.9336 8.39633C88.3119 17.5351 93.6971 26.2006 96.1415 29.5651C96.2756 29.7493 96.9474 30.442 97.4869 30.9993Z" fill="#EA767E"/>
<path d="M105.507 27.0149L105.379 27.0607C104.43 19.9892 101.358 15.1568 95.7017 11.04C100.109 15.6752 103.194 21.5266 103.828 27.9445C104.375 27.6188 104.936 27.3107 105.507 27.0149Z" fill="#FFDEDE"/>
<path d="M97.8797 32.5146C97.0625 31.6469 95.7743 30.3602 95.5226 30.0139C90.9532 23.726 87.6171 15.2577 89.3401 7.45989C91.8137 7.93999 93.7224 9.59896 95.7017 11.04C101.358 15.156 104.43 19.9892 105.379 27.0607L105.507 27.0148C106.809 26.3413 108.169 25.7442 109.583 25.2336C107.374 17.6674 100.187 9.03169 92.9242 6.02725C89.1587 4.46922 85.2697 3.49985 84.7701 8.8016C83.7185 19.9723 94.8589 32.8953 96.1608 34.3416C96.708 33.7095 97.2812 33.101 97.8797 32.5146Z" fill="#FFC0C0"/>
<path d="M97.4869 30.9993C97.8231 31.3464 98.1554 31.6912 98.4393 31.9931C99.0401 31.4312 99.656 30.8838 100.304 30.3694C99.653 24.5829 96.3029 15.0413 89.9 15.2171C90.873 21.6106 94.3216 27.0591 96.1425 29.5651C96.2763 29.7494 96.9473 30.442 97.4869 30.9993Z" fill="#F6A7A8"/>
<path d="M144.943 30.9993C144.61 31.3425 144.283 31.6827 144 31.9824C142.571 30.6507 141.006 29.4512 139.325 28.3908L139.342 28.2012C139.859 22.5257 142.349 17.0657 146.56 12.3511C147.001 11.8564 147.505 11.4199 148.036 11.0224C148.039 11.0201 148.041 11.0185 148.044 11.0162C149.498 9.92912 150.882 8.89478 152.496 8.39633C154.118 17.5351 148.732 26.2006 146.288 29.5651C146.154 29.7493 145.482 30.442 144.943 30.9993Z" fill="#EA767E"/>
<path d="M136.922 27.0149L137.051 27.0607C138 19.9892 141.072 15.1568 146.728 11.04C142.32 15.6752 139.235 21.5266 138.601 27.9445C138.054 27.6188 137.493 27.3107 136.922 27.0149Z" fill="#FFDEDE"/>
<path d="M144.55 32.5146C145.367 31.6469 146.655 30.3602 146.907 30.0139C151.476 23.726 154.813 15.2577 153.09 7.45989C150.616 7.93999 148.707 9.59896 146.728 11.04C141.072 15.156 138 19.9892 137.051 27.0607L136.922 27.0148C135.62 26.3413 134.261 25.7442 132.847 25.2336C135.055 17.6674 142.242 9.03169 149.506 6.02725C153.271 4.46922 157.16 3.49985 157.66 8.8016C158.711 19.9723 147.571 32.8953 146.269 34.3416C145.721 33.7095 145.148 33.101 144.55 32.5146Z" fill="#FFC0C0"/>
<path d="M144.943 30.9993C144.607 31.3464 144.274 31.6912 143.99 31.9931C143.39 31.4312 142.773 30.8838 142.125 30.3694C142.776 24.5829 146.127 15.0413 152.529 15.2171C151.557 21.6106 148.108 27.0591 146.287 29.5651C146.153 29.7494 145.482 30.442 144.943 30.9993Z" fill="#F6A7A8"/>
<path d="M96.1338 123.296V132.003H94.1369V131.313H88.7619V132.016H86.8162V123.297L96.1338 123.296ZM94.1239 129.509V125.098H88.7489V129.509H94.1239Z" fill="#20185B"/>
<path d="M107.311 123.565V132.45H105.276V131.811H98.1337V129.97H105.276V125.406H98.2363V123.565H107.311ZM105.378 121.148C105.903 121.571 106.569 122.325 106.914 122.772L106.044 123.488C105.749 123.041 104.994 122.21 104.559 121.826L105.378 121.148ZM107.554 120.957C108.105 121.366 108.745 122.043 109.09 122.542L108.233 123.258C107.926 122.824 107.209 122.005 106.748 121.634L107.554 120.957Z" fill="#20185B"/>
<path d="M114.239 127.234C113.203 127.912 111.539 128.82 110.297 129.408C110.041 128.973 109.516 128.27 109.12 127.912C112.384 126.493 116.224 123.872 118.143 121.584L120.064 122.99C119.986 123.093 119.846 123.156 119.629 123.143C118.63 124.102 117.466 125.087 116.263 125.969L116.724 126.122C116.685 126.25 116.557 126.365 116.314 126.403V132.975H114.241L114.239 127.234Z" fill="#20185B"/>
<path d="M120.718 123.066H128.654L128.769 122.988L130.458 124.165C130.394 124.242 130.305 124.318 130.202 124.37C128.999 129.152 126.861 131.362 122.945 132.923C122.663 132.437 122.088 131.708 121.691 131.299C125.044 130.046 127.207 127.898 127.796 124.945H120.718V123.066ZM130.548 121.007C131.304 121.007 131.918 121.622 131.918 122.375C131.918 123.129 131.304 123.744 130.548 123.744C129.793 123.744 129.179 123.13 129.179 122.375C129.179 121.595 129.819 121.007 130.548 121.007ZM131.406 122.375C131.406 121.903 131.022 121.519 130.548 121.519C130.074 121.519 129.691 121.903 129.691 122.375C129.691 122.847 130.075 123.232 130.548 123.232C131.047 123.232 131.406 122.823 131.406 122.375Z" fill="#20185B"/>
<path d="M143.402 126.084H141.187V126.493C141.187 129.267 140.215 131.53 137.207 133C136.849 132.591 136.26 132.003 135.773 131.645C138.564 130.38 139.217 128.59 139.217 126.506V126.084H136.311V128.82H134.366V126.084H132.292V124.23H134.366V121.775L136.721 121.916C136.708 122.056 136.579 122.222 136.311 122.274V124.231H139.217V121.609L141.597 121.737C141.584 121.89 141.456 122.006 141.187 122.056V124.231H143.402V126.084Z" fill="#20185B"/>
<path d="M153.671 132.77C153.466 132.233 153.274 131.772 153.069 131.363C150.216 131.709 147.079 131.99 145.21 132.08C145.172 132.221 145.057 132.349 144.916 132.361L144.275 130.111C144.647 130.111 145.095 130.098 145.581 130.086C146.336 127.746 147.348 124.192 147.897 121.801L150.355 122.427C150.316 122.568 150.15 122.67 149.932 122.683C149.357 124.741 148.448 127.618 147.628 130.021C148.844 129.971 151.008 129.804 152.185 129.677C151.711 128.846 151.186 128.066 150.687 127.452L152.339 126.557C153.58 128.015 154.886 130.278 155.602 131.825L153.671 132.77Z" fill="#20185B"/>
<path fill-rule="evenodd" clip-rule="evenodd" d="M236.281 85.1872C239.671 85.1872 242.418 82.4427 242.418 79.0569C242.418 75.6713 239.671 72.9269 236.281 72.9269C234.166 72.9269 232.3 73.9959 231.197 75.6228C230.712 75.5347 230.276 75.5094 229.933 75.5094H220.687C219.289 75.5094 217.851 75.9247 216.621 76.8916C216.294 77.1483 216.009 77.4229 215.76 77.7049C215.642 77.5619 215.514 77.4213 215.377 77.2836C213.992 75.8998 212.277 75.5094 210.948 75.5094H201.7C200.669 75.5094 199.417 75.7259 198.238 76.4417C196.971 75.6511 195.634 75.5094 194.819 75.5094H189.816C188.502 75.5094 186.921 75.8715 185.56 77.0283C185.316 77.2358 185.096 77.4535 184.899 77.679C184.876 77.6517 184.853 77.6241 184.83 77.5968C183.279 75.7731 181.189 75.5094 180.078 75.5094H175.075C173.762 75.5094 172.18 75.8708 170.818 77.0289C170.348 77.4286 169.969 77.8682 169.664 78.323C167.073 76.0364 163.414 74.7969 158.811 74.7969C153.044 74.7969 148.922 76.877 146.158 79.5812C143.215 76.355 138.8 75.5094 134.51 75.5094H124.556L124.431 75.5157C123.45 75.5653 122.242 75.8166 121.104 76.5408C119.793 75.6624 118.379 75.5094 117.532 75.5094H112.618C111.304 75.5094 109.723 75.8715 108.362 77.0283C107.845 77.4678 107.437 77.9559 107.117 78.4597C106.414 77.7744 105.592 77.1523 104.64 76.6196C102.298 75.3092 99.4656 74.7061 96.222 74.7061C89.9666 74.7061 85.5453 76.9538 82.637 80.1298C80.1797 76.5658 75.9438 74.7061 70.3116 74.7061C64.0119 74.7061 59.5719 76.986 56.6646 80.1977C56.1859 79.4948 55.616 78.8264 54.9453 78.2133L54.4297 77.4406L54.3787 77.7285C53.8788 77.3275 53.3298 76.9558 52.729 76.6196C50.3865 75.3092 47.5544 74.7061 44.3109 74.7061C37.5824 74.7061 32.9757 77.3069 30.0917 80.8656C27.4062 84.1797 26.5772 87.8754 26.2748 89.6776L24.6203 99.068H19.7536L22.6223 82.7147C22.8457 81.528 22.9182 79.4233 21.3637 77.5958C19.8141 75.7741 17.7256 75.5094 16.6125 75.5094L11.6093 75.5087C10.2952 75.5087 8.71461 75.8705 7.35305 77.0276C6.01485 78.1648 5.41045 79.6264 5.16715 80.8434L5.15629 80.8979L0.0912179 109.554L0.0841446 109.599C-0.111887 110.84 -0.0674794 112.815 1.35821 114.532C2.81014 116.281 4.79073 116.681 6.11481 116.681H23.7594C25.0222 116.681 26.6446 116.357 28.0509 115.161C28.2574 114.985 28.4462 114.802 28.6187 114.613C29.0688 114.958 29.5565 115.28 30.0839 115.574C32.4275 116.882 35.2596 117.485 38.5038 117.485C44.8039 117.485 49.2348 115.205 52.1362 111.993C53.0782 113.373 54.3721 114.617 56.0831 115.572C58.4265 116.88 61.259 117.483 64.5032 117.483C70.7659 117.483 75.1815 115.23 78.0839 112.047C79.0226 113.406 80.3055 114.631 81.9952 115.574C84.3386 116.882 87.1708 117.485 90.415 117.485C95.3455 117.485 99.131 116.089 101.935 113.942C102.062 114.141 102.206 114.339 102.367 114.533C103.819 116.282 105.8 116.682 107.124 116.682H112.037C113.176 116.682 114.475 116.411 115.658 115.646C116.874 116.464 118.21 116.682 119.187 116.682H124.19C125.454 116.682 127.076 116.357 128.481 115.162C129.861 113.989 130.451 112.472 130.658 111.208L131.448 106.858C133.831 106.806 136.106 106.478 138.195 105.759C138.407 107.62 138.995 109.719 140.332 111.672C142.852 115.355 147.196 117.351 153.049 117.351C159.476 117.351 164.023 114.992 167.018 112.092C167.954 113.433 169.227 114.642 170.898 115.574C173.242 116.882 176.074 117.485 179.318 117.485C184.314 117.485 188.135 116.051 190.949 113.856C191.077 114.065 191.222 114.272 191.387 114.477C192.873 116.322 194.936 116.682 196.206 116.682H201.209C202.425 116.682 203.821 116.373 205.065 115.485C206.367 116.449 207.806 116.682 208.848 116.682H211.796C213.055 116.682 214.417 116.356 215.646 115.513L215.683 115.488C216.956 116.436 218.397 116.682 219.435 116.682H224.438C225.814 116.682 227.42 116.287 228.775 115.106C230.097 113.954 230.695 112.478 230.907 111.208L235.514 85.1399C235.765 85.1712 236.021 85.1872 236.281 85.1872Z" fill="#20185B"/>
<path d="M16.6124 80.4786C17.5056 80.4786 17.9074 80.9252 17.7291 81.8173L14.0661 102.699C13.8877 103.546 14.2896 104.037 15.1383 104.037H25.0995C25.9934 104.037 26.3952 104.483 26.2161 105.376L25.323 110.373C25.189 111.265 24.6533 111.712 23.7593 111.712H6.11478C5.26601 111.712 4.86419 111.221 4.99811 110.373L10.0457 81.8163C10.224 80.9242 10.7613 80.478 11.6093 80.478L16.6124 80.4786Z" fill="url(#paint0_linear_44_2)"/>
<path d="M51.6368 101.673C51.1009 104.618 49.091 112.516 38.5038 112.516C27.9167 112.516 28.6768 104.618 29.2125 101.673L31.1779 90.5178C31.6693 87.5732 33.7234 79.675 44.3106 79.675C54.898 79.675 54.0928 87.5732 53.6021 90.5178L51.6368 101.673ZM45.4726 92.8832C46.0971 89.4475 46.2319 87.3508 42.9261 87.3508C39.6206 87.3508 39.0398 89.4475 38.4143 92.8832L37.2978 99.3081C36.6724 102.744 36.5385 104.841 39.8433 104.841C43.1481 104.841 43.7297 102.744 44.3558 99.3081L45.4726 92.8832Z" fill="url(#paint1_linear_44_2)"/>
<path d="M57.1786 90.5178C57.6699 87.5732 59.7244 79.675 70.3116 79.675C79.6924 79.675 80.1387 85.8332 79.7812 89.3132C79.6474 90.1158 79.1558 90.6066 78.3522 90.7855L73.0804 91.9007C72.1873 92.0789 71.7403 91.6776 71.8298 90.7403C72.0082 88.5983 71.4726 87.3491 68.9261 87.3491C65.6207 87.3491 65.0398 89.4462 64.4143 92.8816L63.2978 99.3065C62.6724 102.742 62.5385 104.839 65.8433 104.839C69.1481 104.839 69.7297 102.742 70.1325 100.556H67.541C66.6929 100.556 66.2904 100.064 66.4242 99.217L67.0494 95.647C67.2278 94.7545 67.8087 94.3083 68.6575 94.3083H77.5922C78.4853 94.3083 78.8429 94.7545 78.6638 95.647L77.6358 101.671C77.1002 104.616 75.0903 112.514 64.5032 112.514C53.916 112.514 54.676 104.616 55.2116 101.671L57.1786 90.5178Z" fill="url(#paint2_linear_44_2)"/>
<path d="M103.548 101.673C103.012 104.618 101.002 112.516 90.415 112.516C79.8278 112.516 80.5878 104.618 81.1237 101.673L83.089 90.5178C83.5803 87.5732 85.6345 79.675 96.222 79.675C106.809 79.675 106.004 87.5732 105.513 90.5178L103.548 101.673ZM97.3837 92.8832C98.0082 89.4475 98.143 87.3508 94.8372 87.3508C91.5318 87.3508 90.9509 89.4475 90.3254 92.8832L89.209 99.3081C88.5835 102.744 88.4497 104.841 91.7545 104.841C95.0593 104.841 95.6408 102.744 96.2669 99.3081L97.3837 92.8832Z" fill="url(#paint3_linear_44_2)"/>
<path d="M117.532 80.4786C118.426 80.4786 118.827 80.9252 118.649 81.8173L113.601 110.374C113.467 111.222 112.931 111.713 112.037 111.713H107.124C106.275 111.713 105.873 111.222 106.007 110.374L111.054 81.8173C111.233 80.9252 111.77 80.4786 112.618 80.4786H117.532Z" fill="url(#paint4_linear_44_2)"/>
<path d="M134.509 80.4786C142.46 80.4786 145.095 83.8698 143.8 91.1875C142.505 98.5045 138.708 101.897 130.756 101.897H128.613C127.764 101.897 127.183 102.342 127.049 103.235L125.754 110.374C125.619 111.266 125.083 111.713 124.19 111.713H119.187C118.338 111.713 117.937 111.222 118.07 110.374L123.118 81.8622C123.253 80.9694 123.789 80.5235 124.682 80.4786C124.682 80.4786 126.558 80.4786 134.509 80.4786ZM132.364 94.2219C134.509 94.2219 135.626 93.9535 136.116 91.1875C136.608 88.4207 135.58 88.1534 133.436 88.1534H131.024C130.175 88.1534 129.595 88.599 129.46 89.492L128.835 92.8832C128.701 93.7304 129.104 94.2219 129.952 94.2219H132.364Z" fill="url(#paint5_linear_44_2)"/>
<path d="M162.117 91.5446C161.179 91.7228 160.822 91.3215 160.822 90.429C160.822 88.5989 159.571 87.4402 157.472 87.4402C155.73 87.4402 154.479 88.4659 154.479 89.4927C154.479 92.9727 168.594 92.8839 166.808 103.146C166.584 104.484 163.635 112.382 153.049 112.382C143.668 112.382 142.775 106.224 143.132 102.744C143.266 101.941 143.757 101.451 144.562 101.272L149.833 100.157C150.726 99.9784 151.173 100.38 151.083 101.317C150.905 103.458 152.335 104.708 154.434 104.708C156.622 104.708 158.455 103.415 158.409 102.209C158.231 98.4167 144.606 99.2635 146.438 89.0019C146.616 87.6633 148.805 79.7661 158.811 79.7661C168.013 79.7661 169.13 85.7444 168.817 88.9574C168.728 89.7604 168.236 90.2511 167.388 90.43L162.117 91.5446Z" fill="url(#paint6_linear_44_2)"/>
<path d="M180.078 80.4786C180.971 80.4786 181.373 80.9252 181.194 81.8173L178.113 99.3081C177.488 102.744 177.354 104.841 180.659 104.841C183.963 104.841 184.545 102.744 185.171 99.3081L188.252 81.8173C188.431 80.9252 188.968 80.4786 189.816 80.4786H194.819C195.712 80.4786 196.114 80.9252 195.936 81.8173L192.451 101.673C191.915 104.618 189.906 112.516 179.318 112.516C168.731 112.516 169.491 104.618 170.027 101.673L173.512 81.8173C173.69 80.9252 174.226 80.4786 175.075 80.4786H180.078Z" fill="url(#paint7_linear_44_2)"/>
<path d="M210.948 80.4786C211.752 80.4786 212.154 80.9252 212.199 81.6833L213.047 94.6674C213.092 95.1133 213.449 95.1133 213.583 94.6674L219.078 81.6833C219.39 80.9252 219.882 80.4786 220.687 80.4786H229.933C230.826 80.4786 231.228 80.9252 231.05 81.8173L226.002 110.374C225.867 111.222 225.332 111.713 224.438 111.713H219.435C218.587 111.713 218.185 111.222 218.319 110.374L221.446 92.7938C221.49 92.4819 221.088 92.4367 220.954 92.7496L213.494 110.552C213.182 111.31 212.601 111.713 211.796 111.713H208.848C208.044 111.713 207.642 111.311 207.597 110.552L206.391 92.7496C206.346 92.4367 205.944 92.4812 205.899 92.7938L202.773 110.374C202.638 111.222 202.102 111.713 201.209 111.713H196.206C195.313 111.713 194.955 111.222 195.089 110.374L200.137 81.8173C200.315 80.9252 200.807 80.4786 201.7 80.4786H210.948Z" fill="url(#paint8_linear_44_2)"/>
<path d="M238.591 79.0569C238.591 80.3317 237.557 81.3648 236.281 81.3648C235.005 81.3648 233.971 80.3317 233.971 79.0569C233.971 77.7824 235.005 76.7493 236.281 76.7493C237.557 76.7493 238.591 77.7824 238.591 79.0569Z" fill="url(#paint9_linear_44_2)"/>
</g>
<defs>
<linearGradient id="paint0_linear_44_2" x1="121.782" y1="76.7493" x2="125.61" y2="114.128" gradientUnits="userSpaceOnUse">
<stop stop-color="#FFD4D4"/>
<stop offset="0.501102" stop-color="#F6A7A8"/>
</linearGradient>
<linearGradient id="paint1_linear_44_2" x1="121.782" y1="76.7493" x2="125.61" y2="114.128" gradientUnits="userSpaceOnUse">
<stop stop-color="#FFD4D4"/>
<stop offset="0.501102" stop-color="#F6A7A8"/>
</linearGradient>
<linearGradient id="paint2_linear_44_2" x1="121.782" y1="76.7493" x2="125.61" y2="114.128" gradientUnits="userSpaceOnUse">
<stop stop-color="#FFD4D4"/>
<stop offset="0.501102" stop-color="#F6A7A8"/>
</linearGradient>
<linearGradient id="paint3_linear_44_2" x1="121.782" y1="76.7493" x2="125.61" y2="114.128" gradientUnits="userSpaceOnUse">
<stop stop-color="#FFD4D4"/>
<stop offset="0.501102" stop-color="#F6A7A8"/>
</linearGradient>
<linearGradient id="paint4_linear_44_2" x1="121.782" y1="76.7493" x2="125.61" y2="114.128" gradientUnits="userSpaceOnUse">
<stop stop-color="#FFD4D4"/>
<stop offset="0.501102" stop-color="#F6A7A8"/>
</linearGradient>
<linearGradient id="paint5_linear_44_2" x1="121.782" y1="76.7493" x2="125.61" y2="114.128" gradientUnits="userSpaceOnUse">
<stop stop-color="#FFD4D4"/>
<stop offset="0.501102" stop-color="#F6A7A8"/>
</linearGradient>
<linearGradient id="paint6_linear_44_2" x1="121.782" y1="76.7493" x2="125.61" y2="114.128" gradientUnits="userSpaceOnUse">
<stop stop-color="#FFD4D4"/>
<stop offset="0.501102" stop-color="#F6A7A8"/>
</linearGradient>
<linearGradient id="paint7_linear_44_2" x1="121.782" y1="76.7493" x2="125.61" y2="114.128" gradientUnits="userSpaceOnUse">
<stop stop-color="#FFD4D4"/>
<stop offset="0.501102" stop-color="#F6A7A8"/>
</linearGradient>
<linearGradient id="paint8_linear_44_2" x1="121.782" y1="76.7493" x2="125.61" y2="114.128" gradientUnits="userSpaceOnUse">
<stop stop-color="#FFD4D4"/>
<stop offset="0.501102" stop-color="#F6A7A8"/>
</linearGradient>
<linearGradient id="paint9_linear_44_2" x1="121.782" y1="76.7493" x2="125.61" y2="114.128" gradientUnits="userSpaceOnUse">
<stop stop-color="#FFD4D4"/>
<stop offset="0.501102" stop-color="#F6A7A8"/>
</linearGradient>
<clipPath id="clip0_44_2">
<rect width="243" height="133" fill="white"/>
</clipPath>
</defs>
</svg>
