<svg width="216" height="147" viewBox="0 0 216 147" fill="none" xmlns="http://www.w3.org/2000/svg">
<path d="M214.974 70.2347C215.126 76.2033 214.67 82.6504 210.874 87.2674C207.862 90.92 203.246 92.8109 199.602 95.8484C195.214 99.5085 192.262 104.824 187.364 107.778C182.899 110.474 177.073 110.778 172.342 108.568C167.619 106.35 164.128 101.688 163.344 96.5318L163.26 96.4938C164.736 93.2133 165.717 89.7734 166.28 86.2575L167.847 86.3714C169.117 90.8517 170.973 95.9774 175.4 97.4354C178.632 98.491 182.2 97.1393 184.953 95.1421C187.699 93.145 189.958 90.5251 192.726 88.5508C195.168 86.8194 197.967 85.612 200.256 83.6756C204.873 79.7572 206.714 73.3785 206.79 67.3263C206.805 66.0505 206.744 64.7672 206.615 63.499L214.487 62.7321C214.761 65.2228 214.906 67.7363 214.974 70.2347Z" fill="#CCCCCB"/>
<path d="M214.488 62.7315L206.616 63.4985C205.482 52.5028 198.994 42.0234 189.198 36.8824C178.268 31.1416 163.657 32.8274 154.879 41.507L154.271 41.9323C152.324 39.153 150.171 36.5179 147.844 34.0424L149.198 33.0931C152.301 28.3547 157.001 24.6793 162.349 22.8036C167.178 21.1102 172.434 20.8748 177.507 21.581C191.617 23.5402 204.425 33.1311 210.267 46.1012C212.625 51.3485 213.88 56.9982 214.488 62.7315Z" fill="#CCCCCB"/>
<path d="M206.615 63.4985C206.744 64.7666 206.805 66.05 206.79 67.3257C206.714 73.3779 204.873 79.7567 200.256 83.675C197.967 85.6114 195.168 86.8188 192.726 88.5502C189.958 90.5246 187.699 93.1444 184.953 95.1416C182.199 97.1387 178.632 98.4904 175.4 97.4349C170.973 95.9769 169.117 90.8511 167.847 86.3708L166.28 86.2569C168.083 74.9346 165.489 62.7847 160.416 52.3281C158.659 48.7135 156.605 45.2279 154.27 41.9322L154.879 41.507C163.656 32.8273 178.267 31.1415 189.197 36.8824C198.994 42.0234 205.482 52.5027 206.615 63.4985Z" fill="#F7B7D3"/>
<path d="M126.637 113.959L119.64 113.465C113.859 112.766 107.797 115.462 104.458 120.223L95.5283 121.757C95.5816 121.833 95.6272 121.917 95.6729 121.993L94.897 122.479C84.5756 122.729 74.2086 119.396 65.9636 113.192C62.3888 110.496 59.2246 107.269 56.5853 103.662C54.5089 100.837 52.7519 97.784 51.3676 94.5718C50.432 92.4304 49.6714 90.2206 49.0858 87.9577C46.4465 77.8124 47.3668 66.9762 50.3179 56.9145C50.8428 55.1375 51.4284 53.3758 52.0826 51.6368C53.3984 48.1665 54.9881 44.7797 56.8363 41.5599C61.4608 33.503 67.751 26.4787 75.6157 21.5884C90.014 12.643 108.763 11.7469 124.53 17.9814C133.399 21.4821 141.309 27.0938 147.843 34.0421C150.17 36.5177 152.323 39.1527 154.27 41.932C156.605 45.2277 158.659 48.7132 160.416 52.3278C165.489 62.7844 168.082 74.9344 166.28 86.2567C165.717 89.7726 164.736 93.2125 163.26 96.493C163.04 97.0018 162.804 97.503 162.553 98.0042C158.704 105.689 152.422 111.863 145.964 117.55L142.777 117.664C142.184 116.897 141.492 116.229 140.67 115.698C136.555 113.025 131.132 114.657 126.523 116.373C126.538 115.569 126.576 114.764 126.637 113.959ZM145.645 73.4233C145.645 68.4038 141.416 64.3411 136.206 64.3411C130.995 64.3411 126.759 68.4038 126.759 73.4233C126.759 78.4427 130.988 82.513 136.206 82.513C141.423 82.513 145.645 78.4427 145.645 73.4233ZM77.6465 88.3222C82.8643 88.3222 87.0932 84.2519 87.0932 79.2401C87.0932 74.2282 82.8643 70.1504 77.6465 70.1504C72.4287 70.1504 68.1998 74.2206 68.1998 79.2401C68.1998 84.2595 72.4287 88.3222 77.6465 88.3222Z" fill="#CCCCCB"/>
<path d="M127.817 124.803C127.764 124.711 127.711 124.613 127.657 124.522C126.851 122.995 126.653 121.233 126.57 119.517C126.517 118.469 126.501 117.421 126.524 116.373C131.133 114.657 136.557 113.025 140.671 115.698C141.493 116.229 142.185 116.897 142.778 117.664C144.079 119.343 144.847 121.476 145.197 123.595C146.308 130.407 143.47 137.727 138.047 142.01C132.624 146.293 124.843 147.371 118.454 144.721C114.195 142.952 110.704 139.747 107.463 136.467C107.167 136.163 106.87 135.867 106.573 135.563L115.556 134.029C116.226 131.007 119.04 128.599 122.128 128.387L127.817 124.803Z" fill="#CCCCCB"/>
<path d="M136.207 64.3419C141.417 64.3419 145.646 68.4046 145.646 73.424C145.646 78.4435 141.417 82.5137 136.207 82.5137C130.997 82.5137 126.76 78.4435 126.76 73.424C126.76 68.4046 130.989 64.3419 136.207 64.3419ZM140.542 71.6243C140.542 68.7615 137.797 66.4378 134.412 66.4378C131.027 66.4378 128.281 68.7615 128.281 71.6243C128.281 74.4872 131.027 76.8032 134.412 76.8032C137.797 76.8032 140.542 74.4872 140.542 71.6243Z" fill="white"/>
<path d="M134.412 66.4374C137.797 66.4374 140.543 68.7611 140.543 71.6239C140.543 74.4867 137.797 76.8028 134.412 76.8028C131.028 76.8028 128.282 74.4867 128.282 71.6239C128.282 68.7611 131.028 66.4374 134.412 66.4374Z" fill="#212121"/>
<path d="M126.525 116.374C126.502 117.422 126.517 118.47 126.57 119.518C126.654 121.234 126.852 122.996 127.658 124.522C127.711 124.614 127.764 124.712 127.818 124.803L122.128 128.388C119.04 128.6 116.226 131.007 115.557 134.03L106.574 135.564C102.512 131.387 98.7018 126.945 95.6745 121.994C95.6289 121.918 95.5833 121.834 95.53 121.758L104.46 120.224C107.799 115.463 113.861 112.767 119.641 113.466L126.639 113.96C126.578 114.764 126.54 115.569 126.525 116.374Z" fill="#CCCCCB"/>
<path d="M87.0951 79.2407C87.0951 84.2526 82.8661 88.3228 77.6484 88.3228C72.4306 88.3228 68.2017 84.2526 68.2017 79.2407C68.2017 74.2288 72.4306 70.151 77.6484 70.151C82.8661 70.151 87.0951 74.2212 87.0951 79.2407ZM85.7564 77.4334C85.7564 74.5706 83.0107 72.2469 79.626 72.2469C76.2413 72.2469 73.4955 74.5706 73.4955 77.4334C73.4955 80.2962 76.2413 82.6199 79.626 82.6199C83.0107 82.6199 85.7564 80.2962 85.7564 77.4334Z" fill="white"/>
<path d="M79.6258 82.6196C83.0116 82.6196 85.7563 80.2975 85.7563 77.4331C85.7563 74.5687 83.0116 72.2466 79.6258 72.2466C76.2401 72.2466 73.4954 74.5687 73.4954 77.4331C73.4954 80.2975 76.2401 82.6196 79.6258 82.6196Z" fill="#212121"/>
<path d="M55.5824 41.4161L56.8374 41.5603C54.9891 44.7801 53.3995 48.1669 52.0836 51.6372L50.281 51.0146C44.8274 48.6985 39.275 46.352 33.3879 45.6838C27.5008 45.0155 21.1194 46.2457 16.7991 50.2932C13.8176 53.0952 12.0682 56.9681 10.874 60.8788C8.80516 67.6449 8.18147 74.8513 9.05616 81.8755C9.42886 84.8371 10.0754 87.8138 11.5281 90.4261C13.7567 94.4128 17.6206 97.1769 21.3704 99.7968C25.5917 102.758 29.8207 105.72 34.0497 108.681C36.476 110.382 39.2598 112.167 42.1881 111.658C44.1809 111.309 45.8543 109.919 47.1321 108.347C50.1517 104.626 51.4827 99.5917 50.6841 94.8684L51.3686 94.5723C52.753 97.7844 54.51 100.837 56.5864 103.662L56.0996 104.026C57.1264 110.018 53.9547 116.495 48.5848 119.351C43.215 122.213 36.0577 121.241 31.6461 117.05C29.5393 115.045 28.0485 112.433 25.7895 110.603C22.5113 107.93 18.0617 107.246 14.2739 105.363C6.9645 101.733 2.5758 93.7445 1.40447 85.6724C0.225532 77.6078 1.80759 69.4066 3.78517 61.5015C4.65226 57.9932 5.61062 54.4849 7.16225 51.2196C11.2467 42.6083 19.5525 36.108 28.908 34.2096C38.271 32.3188 48.4555 35.0677 55.5824 41.4161Z" fill="#CCCCCB"/>
<path d="M50.28 51.0144L52.0826 51.637C51.4285 53.376 50.8429 55.1377 50.318 56.9147C47.3669 66.9764 46.4466 77.8127 49.0859 87.9579C49.6715 90.2208 50.4321 92.4306 51.3677 94.572L50.6831 94.8682C51.4818 99.5915 50.1507 104.626 47.1311 108.347C45.8533 109.919 44.18 111.309 42.1872 111.658C39.2588 112.167 36.475 110.382 34.0487 108.681C29.8197 105.72 25.5908 102.758 21.3694 99.7965C17.6196 97.1767 13.7557 94.4126 11.5272 90.4259C10.0744 87.8136 9.42789 84.8369 9.05519 81.8753C8.18049 74.8511 8.80419 67.6446 10.873 60.8786C12.0672 56.9678 13.8166 53.095 16.7982 50.2929C21.1184 46.2455 27.4999 45.0153 33.387 45.6835C39.2741 46.3518 44.8265 48.6983 50.28 51.0144Z" fill="#F7B7D3"/>
<path d="M145.964 117.551C152.422 111.863 158.704 105.689 162.553 98.0046C162.804 97.5034 163.04 97.0022 163.26 96.4934C164.736 93.2129 165.717 89.7729 166.28 86.257C168.083 74.9348 165.489 62.7848 160.416 52.3282C158.659 48.7136 156.605 45.2281 154.27 41.9324C152.323 39.1531 150.17 36.518 147.843 34.0425C141.309 27.0942 133.399 21.4824 124.53 17.9817C108.763 11.7473 90.014 12.6433 75.6157 21.5887C67.751 26.4791 61.4608 33.5033 56.8363 41.5603C54.9881 44.78 53.3984 48.1668 52.0826 51.6372C51.4284 53.3761 50.8428 55.1379 50.3179 56.9148C47.3668 66.9765 46.4465 77.8128 49.0858 87.958C49.6714 90.221 50.432 92.4308 51.3676 94.5722C52.7519 97.7843 54.5089 100.837 56.5853 103.662C59.2246 107.269 62.3888 110.496 65.9636 113.192C74.2086 119.396 84.5756 122.73 94.897 122.479" stroke="#212121" stroke-linecap="round" stroke-linejoin="round"/>
<path d="M89.4059 101.422C89.3374 108.165 91.5355 114.802 94.8898 120.664C95.0952 121.029 95.3158 121.393 95.5287 121.758C95.582 121.834 95.6276 121.917 95.6732 121.993C98.7004 126.944 102.511 131.387 106.573 135.563C106.869 135.867 107.166 136.163 107.463 136.467C110.703 139.747 114.194 142.952 118.453 144.721C124.842 147.372 132.623 146.293 138.047 142.01C143.47 137.728 146.307 130.407 145.196 123.596C144.846 121.477 144.078 119.343 142.778 117.665C142.184 116.898 141.492 116.23 140.671 115.698C136.556 113.025 131.133 114.658 126.523 116.374C126.508 116.374 126.493 116.374 126.478 116.389" stroke="#212121" stroke-linecap="round" stroke-linejoin="round"/>
<path d="M129.096 102.059C127.757 105.902 126.936 109.911 126.639 113.959C126.578 114.764 126.54 115.569 126.525 116.374C126.502 117.422 126.517 118.47 126.571 119.517C126.654 121.234 126.852 122.995 127.658 124.522C127.711 124.613 127.765 124.712 127.818 124.803C128.655 126.192 130.107 127.278 131.727 127.278C133.644 127.271 135.378 125.517 135.371 123.603C135.363 121.689 133.606 119.958 131.689 119.973" stroke="#212121" stroke-linecap="round" stroke-linejoin="round"/>
<path d="M95.3928 88.095C102.565 84.5335 110.856 83.2653 118.759 84.5259" stroke="#212121" stroke-linecap="round" stroke-linejoin="round"/>
<path d="M100.511 104.004C105.904 100.731 112.506 99.5084 118.713 100.632" stroke="#212121" stroke-linecap="round" stroke-linejoin="round"/>
<path d="M104.458 120.225C107.797 115.463 113.859 112.768 119.639 113.466" stroke="#212121" stroke-linecap="round" stroke-linejoin="round"/>
<path d="M115.556 134.03C116.225 131.007 119.04 128.6 122.128 128.387" stroke="#212121" stroke-linecap="round" stroke-linejoin="round"/>
<path d="M55.5824 41.4161C48.4555 35.0677 38.271 32.3188 28.908 34.2096C19.5525 36.108 11.2467 42.6083 7.16225 51.2196C5.61062 54.4849 4.65226 57.9932 3.78517 61.5015C1.80759 69.4066 0.225532 77.6078 1.40447 85.6724C2.5758 93.7445 6.9645 101.733 14.2739 105.363C18.0617 107.246 22.5113 107.93 25.7895 110.603C28.0485 112.433 29.5393 115.045 31.6461 117.05C36.0577 121.241 43.215 122.213 48.5848 119.351C53.9547 116.495 57.1264 110.018 56.0996 104.026" stroke="#212121" stroke-linecap="round" stroke-linejoin="round"/>
<path d="M50.28 51.0144C44.8265 48.6983 39.274 46.3518 33.387 45.6835C27.4999 45.0153 21.1184 46.2455 16.7982 50.2929C13.8166 53.095 12.0672 56.9678 10.873 60.8786C8.80419 67.6446 8.18049 74.8511 9.05519 81.8753C9.42789 84.8369 10.0744 87.8136 11.5272 90.4259C13.7557 94.4126 17.6196 97.1767 21.3694 99.7965C25.5908 102.758 29.8197 105.72 34.0487 108.681C36.475 110.382 39.2588 112.167 42.1872 111.658C44.18 111.309 45.8533 109.919 47.1311 108.347C50.1507 104.626 51.4818 99.5915 50.6831 94.8682" stroke="#212121" stroke-linecap="round" stroke-linejoin="round"/>
<path d="M87.0951 79.241C87.0951 84.2528 82.8661 88.3231 77.6484 88.3231C72.4306 88.3231 68.2017 84.2528 68.2017 79.241C68.2017 74.2291 72.4306 70.1512 77.6484 70.1512C82.8661 70.1512 87.0951 74.2215 87.0951 79.241Z" stroke="white" stroke-linecap="round" stroke-linejoin="round"/>
<path d="M79.6258 82.6196C83.0116 82.6196 85.7563 80.2975 85.7563 77.4331C85.7563 74.5687 83.0116 72.2466 79.6258 72.2466C76.2401 72.2466 73.4954 74.5687 73.4954 77.4331C73.4954 80.2975 76.2401 82.6196 79.6258 82.6196Z" stroke="#212121" stroke-linecap="round" stroke-linejoin="round"/>
<path d="M130.426 54.6218C135.545 53.7789 140.983 55.047 145.205 58.0693" stroke="#212121" stroke-linecap="round" stroke-linejoin="round"/>
<path d="M149.198 33.0931C152.302 28.3547 157.002 24.6793 162.349 22.8036C167.179 21.1102 172.435 20.8748 177.508 21.581C191.617 23.5402 204.426 33.1311 210.267 46.1012C212.625 51.3485 213.88 56.9982 214.489 62.7315C214.762 65.2223 214.907 67.7358 214.975 70.2341C215.128 76.2028 214.671 82.6499 210.876 87.2669C207.864 90.9195 203.247 92.8103 199.604 95.8478C195.215 99.508 192.264 104.824 187.365 107.778C182.901 110.473 177.074 110.777 172.343 108.567C167.62 106.35 164.129 101.687 163.346 96.5313" stroke="#212121" stroke-linecap="round" stroke-linejoin="round"/>
<path d="M154.88 41.5072C163.657 32.8276 178.269 31.1418 189.198 36.8826C198.995 42.0236 205.483 52.503 206.616 63.4987C206.746 64.7669 206.806 66.0502 206.791 67.326C206.715 73.3782 204.874 79.7569 200.258 83.6753C197.968 85.6117 195.169 86.8191 192.728 88.5505C189.959 90.5248 187.7 93.1447 184.954 95.1418C182.201 97.139 178.634 98.4907 175.401 97.4351C170.974 95.9771 169.118 90.8514 167.848 86.3711" stroke="#212121" stroke-linecap="round" stroke-linejoin="round"/>
<path d="M96.1315 14.3495C95.7816 10.8867 94.7091 7.4999 93.0054 4.4624" stroke="#212121" stroke-linecap="round" stroke-linejoin="round"/>
<path d="M96.8148 13.8866C95.8716 9.66446 95.3848 5.33603 95.3696 1" stroke="#212121" stroke-linecap="round" stroke-linejoin="round"/>
<path d="M97.9795 14.0995C97.1504 11.6012 98.2761 8.59407 100.55 7.25757" stroke="#212121" stroke-linecap="round" stroke-linejoin="round"/>
<path d="M85.6799 99.9103C87.5054 100.487 89.521 100.419 91.3008 99.7356" stroke="#212121" stroke-linecap="round" stroke-linejoin="round"/>
<path d="M127.353 99.3862C128.653 100.351 130.182 100.996 131.772 101.262" stroke="#212121" stroke-linecap="round" stroke-linejoin="round"/>
<path d="M81.1533 60.1729C75.5477 59.33 69.5997 60.5982 64.9905 63.6205" stroke="#212121" stroke-linecap="round" stroke-linejoin="round"/>
<path d="M145.646 73.4243C145.646 78.4437 141.417 82.514 136.207 82.514C130.997 82.514 126.76 78.4437 126.76 73.4243C126.76 68.4048 130.989 64.3422 136.207 64.3422C141.425 64.3422 145.646 68.4048 145.646 73.4243Z" stroke="white" stroke-linecap="round" stroke-linejoin="round"/>
<path d="M140.543 71.6239C140.543 74.4867 137.797 76.8028 134.412 76.8028C131.028 76.8028 128.282 74.4867 128.282 71.6239C128.282 68.7611 131.028 66.4374 134.412 66.4374C137.797 66.4374 140.543 68.7611 140.543 71.6239Z" stroke="#212121" stroke-linecap="round" stroke-linejoin="round"/>
</svg>
