<svg width="196" height="172" viewBox="0 0 196 172" fill="none" xmlns="http://www.w3.org/2000/svg">
<rect width="196" height="172" rx="20" fill="black"/>
<path d="M71.9091 92V80.3636H78.8864V81.6136H73.3182V85.5455H78.3636V86.7955H73.3182V92H71.9091ZM81.1179 92V83.2727H82.4588V92H81.1179ZM81.7997 81.8182C81.5384 81.8182 81.313 81.7292 81.1236 81.5511C80.938 81.3731 80.8452 81.1591 80.8452 80.9091C80.8452 80.6591 80.938 80.4451 81.1236 80.267C81.313 80.089 81.5384 80 81.7997 80C82.0611 80 82.2846 80.089 82.4702 80.267C82.6596 80.4451 82.7543 80.6591 82.7543 80.9091C82.7543 81.1591 82.6596 81.3731 82.4702 81.5511C82.2846 81.7292 82.0611 81.8182 81.7997 81.8182ZM86.2557 80.3636V92H84.9148V80.3636H86.2557ZM92.2571 92.1818C91.4692 92.1818 90.7779 91.9943 90.1832 91.6193C89.5923 91.2443 89.1302 90.7197 88.7969 90.0455C88.4673 89.3712 88.3026 88.5833 88.3026 87.6818C88.3026 86.7727 88.4673 85.9792 88.7969 85.3011C89.1302 84.6231 89.5923 84.0966 90.1832 83.7216C90.7779 83.3466 91.4692 83.1591 92.2571 83.1591C93.045 83.1591 93.7344 83.3466 94.3253 83.7216C94.92 84.0966 95.3821 84.6231 95.7116 85.3011C96.045 85.9792 96.2116 86.7727 96.2116 87.6818C96.2116 88.5833 96.045 89.3712 95.7116 90.0455C95.3821 90.7197 94.92 91.2443 94.3253 91.6193C93.7344 91.9943 93.045 92.1818 92.2571 92.1818ZM92.2571 90.9773C92.8556 90.9773 93.348 90.8239 93.7344 90.517C94.1207 90.2102 94.4067 89.8068 94.5923 89.3068C94.7779 88.8068 94.8707 88.2652 94.8707 87.6818C94.8707 87.0985 94.7779 86.5549 94.5923 86.0511C94.4067 85.5473 94.1207 85.1402 93.7344 84.8295C93.348 84.5189 92.8556 84.3636 92.2571 84.3636C91.6586 84.3636 91.1662 84.5189 90.7798 84.8295C90.3935 85.1402 90.1075 85.5473 89.9219 86.0511C89.7363 86.5549 89.6435 87.0985 89.6435 87.6818C89.6435 88.2652 89.7363 88.8068 89.9219 89.3068C90.1075 89.8068 90.3935 90.2102 90.7798 90.517C91.1662 90.8239 91.6586 90.9773 92.2571 90.9773ZM104.44 85.2273L103.236 85.5682C103.16 85.3674 103.048 85.1723 102.901 84.983C102.757 84.7898 102.56 84.6307 102.31 84.5057C102.06 84.3807 101.74 84.3182 101.349 84.3182C100.815 84.3182 100.37 84.4413 100.014 84.6875C99.6619 84.9299 99.4858 85.2386 99.4858 85.6136C99.4858 85.947 99.607 86.2102 99.8494 86.4034C100.092 86.5966 100.471 86.7576 100.986 86.8864L102.281 87.2045C103.062 87.3939 103.643 87.6837 104.026 88.0739C104.408 88.4602 104.599 88.9583 104.599 89.5682C104.599 90.0682 104.455 90.5152 104.168 90.9091C103.884 91.303 103.486 91.6136 102.974 91.8409C102.463 92.0682 101.868 92.1818 101.19 92.1818C100.3 92.1818 99.5634 91.9886 98.9801 91.6023C98.3968 91.2159 98.0275 90.6515 97.8722 89.9091L99.1449 89.5909C99.2661 90.0606 99.4953 90.4129 99.8324 90.6477C100.173 90.8826 100.618 91 101.168 91C101.793 91 102.289 90.8674 102.656 90.6023C103.027 90.3333 103.213 90.0114 103.213 89.6364C103.213 89.3333 103.107 89.0795 102.895 88.875C102.683 88.6667 102.357 88.5114 101.918 88.4091L100.463 88.0682C99.6638 87.8788 99.0767 87.5852 98.7017 87.1875C98.3305 86.786 98.1449 86.2841 98.1449 85.6818C98.1449 85.1894 98.2831 84.7538 98.5597 84.375C98.84 83.9962 99.2206 83.6989 99.7017 83.483C100.187 83.267 100.736 83.1591 101.349 83.1591C102.213 83.1591 102.891 83.3485 103.384 83.7273C103.88 84.1061 104.232 84.6061 104.44 85.2273ZM110.163 92.1818C109.375 92.1818 108.684 91.9943 108.089 91.6193C107.499 91.2443 107.036 90.7197 106.703 90.0455C106.374 89.3712 106.209 88.5833 106.209 87.6818C106.209 86.7727 106.374 85.9792 106.703 85.3011C107.036 84.6231 107.499 84.0966 108.089 83.7216C108.684 83.3466 109.375 83.1591 110.163 83.1591C110.951 83.1591 111.641 83.3466 112.232 83.7216C112.826 84.0966 113.288 84.6231 113.618 85.3011C113.951 85.9792 114.118 86.7727 114.118 87.6818C114.118 88.5833 113.951 89.3712 113.618 90.0455C113.288 90.7197 112.826 91.2443 112.232 91.6193C111.641 91.9943 110.951 92.1818 110.163 92.1818ZM110.163 90.9773C110.762 90.9773 111.254 90.8239 111.641 90.517C112.027 90.2102 112.313 89.8068 112.499 89.3068C112.684 88.8068 112.777 88.2652 112.777 87.6818C112.777 87.0985 112.684 86.5549 112.499 86.0511C112.313 85.5473 112.027 85.1402 111.641 84.8295C111.254 84.5189 110.762 84.3636 110.163 84.3636C109.565 84.3636 109.072 84.5189 108.686 84.8295C108.3 85.1402 108.014 85.5473 107.828 86.0511C107.643 86.5549 107.55 87.0985 107.55 87.6818C107.55 88.2652 107.643 88.8068 107.828 89.3068C108.014 89.8068 108.3 90.2102 108.686 90.517C109.072 90.8239 109.565 90.9773 110.163 90.9773ZM120.051 83.2727V84.4091H115.347V83.2727H120.051ZM116.756 92V82.0682C116.756 81.5682 116.873 81.1515 117.108 80.8182C117.343 80.4848 117.648 80.2348 118.023 80.0682C118.398 79.9015 118.794 79.8182 119.21 79.8182C119.54 79.8182 119.809 79.8447 120.017 79.8977C120.225 79.9508 120.381 80 120.483 80.0455L120.097 81.2045C120.028 81.1818 119.934 81.1534 119.812 81.1193C119.695 81.0852 119.54 81.0682 119.347 81.0682C118.903 81.0682 118.583 81.1799 118.386 81.4034C118.193 81.6269 118.097 81.9545 118.097 82.3864V92H116.756ZM121.93 92V83.2727H123.271V92H121.93ZM122.612 81.8182C122.351 81.8182 122.125 81.7292 121.936 81.5511C121.75 81.3731 121.658 81.1591 121.658 80.9091C121.658 80.6591 121.75 80.4451 121.936 80.267C122.125 80.089 122.351 80 122.612 80C122.874 80 123.097 80.089 123.283 80.267C123.472 80.4451 123.567 80.6591 123.567 80.9091C123.567 81.1591 123.472 81.3731 123.283 81.5511C123.097 81.7292 122.874 81.8182 122.612 81.8182Z" fill="white"/>
</svg>
