<svg width="391" height="194" viewBox="0 0 391 194" fill="none" xmlns="http://www.w3.org/2000/svg">
<circle cx="55" cy="95" r="55" fill="#2F2F2F"/>
<circle cx="199" cy="75" r="75" fill="#2F2F2F"/>
<circle cx="332.5" cy="105.5" r="44.5" fill="#2F2F2F"/>
<path d="M198.364 136.818V163H195.194V140.142H195.04L188.648 144.386V141.165L195.194 136.818H198.364ZM206.597 163.205C205.966 163.205 205.425 162.979 204.973 162.527C204.522 162.075 204.296 161.534 204.296 160.903C204.296 160.273 204.522 159.732 204.973 159.28C205.425 158.828 205.966 158.602 206.597 158.602C207.228 158.602 207.769 158.828 208.221 159.28C208.672 159.732 208.898 160.273 208.898 160.903C208.898 161.321 208.792 161.705 208.578 162.054C208.374 162.403 208.097 162.685 207.748 162.898C207.407 163.102 207.023 163.205 206.597 163.205Z" fill="black"/>
<path d="M62.3317 172.455V187H60.13V174.656H60.0447L56.5646 176.929V174.827L60.1939 172.455H62.3317ZM66.2663 187V185.409L71.1882 180.31C71.7138 179.756 72.147 179.27 72.4879 178.854C72.8336 178.432 73.0916 178.032 73.2621 177.653C73.4325 177.275 73.5178 176.872 73.5178 176.446C73.5178 175.963 73.4041 175.546 73.1768 175.196C72.9496 174.841 72.6394 174.569 72.2464 174.379C71.8535 174.185 71.4107 174.088 70.9183 174.088C70.3975 174.088 69.9429 174.195 69.5547 174.408C69.1664 174.621 68.8681 174.921 68.6598 175.31C68.4515 175.698 68.3473 176.152 68.3473 176.673H66.2521C66.2521 175.788 66.4557 175.014 66.8629 174.351C67.2701 173.688 67.8288 173.174 68.5391 172.81C69.2493 172.44 70.0566 172.256 70.9609 172.256C71.8748 172.256 72.6797 172.438 73.3757 172.803C74.0765 173.162 74.6233 173.655 75.0163 174.28C75.4093 174.9 75.6058 175.601 75.6058 176.382C75.6058 176.922 75.504 177.45 75.3004 177.966C75.1016 178.482 74.7536 179.057 74.2564 179.692C73.7592 180.321 73.0679 181.086 72.1825 181.986L69.2919 185.011V185.118H75.8402V187H66.2663ZM84.0504 172.455V187H81.8487V174.656H81.7635L78.2834 176.929V174.827L81.9126 172.455H84.0504Z" fill="black"/>
<path d="M199.407 187V185.409L204.329 180.31C204.854 179.756 205.288 179.27 205.629 178.854C205.974 178.432 206.232 178.032 206.403 177.653C206.573 177.275 206.658 176.872 206.658 176.446C206.658 175.963 206.545 175.546 206.317 175.196C206.09 174.841 205.78 174.569 205.387 174.379C204.994 174.185 204.551 174.088 204.059 174.088C203.538 174.088 203.084 174.195 202.695 174.408C202.307 174.621 202.009 174.921 201.8 175.31C201.592 175.698 201.488 176.152 201.488 176.673H199.393C199.393 175.788 199.596 175.014 200.004 174.351C200.411 173.688 200.969 173.174 201.68 172.81C202.39 172.44 203.197 172.256 204.102 172.256C205.015 172.256 205.82 172.438 206.516 172.803C207.217 173.162 207.764 173.655 208.157 174.28C208.55 174.9 208.746 175.601 208.746 176.382C208.746 176.922 208.645 177.45 208.441 177.966C208.242 178.482 207.894 179.057 207.397 179.692C206.9 180.321 206.209 181.086 205.323 181.986L202.433 185.011V185.118H208.981V187H199.407ZM211.673 187V185.409L216.594 180.31C217.12 179.756 217.553 179.27 217.894 178.854C218.24 178.432 218.498 178.032 218.668 177.653C218.839 177.275 218.924 176.872 218.924 176.446C218.924 175.963 218.81 175.546 218.583 175.196C218.356 174.841 218.046 174.569 217.653 174.379C217.26 174.185 216.817 174.088 216.325 174.088C215.804 174.088 215.349 174.195 214.961 174.408C214.573 174.621 214.274 174.921 214.066 175.31C213.858 175.698 213.754 176.152 213.754 176.673H211.658C211.658 175.788 211.862 175.014 212.269 174.351C212.676 173.688 213.235 173.174 213.945 172.81C214.656 172.44 215.463 172.256 216.367 172.256C217.281 172.256 218.086 172.438 218.782 172.803C219.483 173.162 220.03 173.655 220.423 174.28C220.816 174.9 221.012 175.601 221.012 176.382C221.012 176.922 220.91 177.45 220.707 177.966C220.508 178.482 220.16 179.057 219.663 179.692C219.165 180.321 218.474 181.086 217.589 181.986L214.698 185.011V185.118H221.246V187H211.673ZM229.457 172.455V187H227.255V174.656H227.17L223.69 176.929V174.827L227.319 172.455H229.457Z" fill="black"/>
<path d="M348.652 172.256C349.3 172.26 349.94 172.379 350.569 172.611C351.199 172.843 351.767 173.222 352.274 173.747C352.785 174.273 353.193 174.983 353.496 175.878C353.803 176.768 353.96 177.876 353.964 179.202C353.964 180.475 353.836 181.609 353.581 182.604C353.325 183.593 352.958 184.429 352.48 185.111C352.006 185.793 351.431 186.311 350.754 186.666C350.077 187.021 349.315 187.199 348.467 187.199C347.601 187.199 346.831 187.028 346.159 186.688C345.487 186.347 344.94 185.875 344.518 185.274C344.097 184.668 343.834 183.972 343.73 183.186H345.896C346.038 183.811 346.327 184.318 346.763 184.706C347.203 185.089 347.771 185.281 348.467 185.281C349.532 185.281 350.363 184.817 350.96 183.889C351.557 182.956 351.857 181.654 351.862 179.983H351.748C351.502 180.39 351.194 180.741 350.825 181.034C350.461 181.328 350.051 181.555 349.596 181.716C349.142 181.877 348.657 181.957 348.14 181.957C347.302 181.957 346.54 181.751 345.854 181.339C345.167 180.928 344.62 180.362 344.213 179.642C343.806 178.922 343.602 178.101 343.602 177.178C343.602 176.259 343.81 175.426 344.227 174.678C344.648 173.929 345.236 173.338 345.988 172.902C346.746 172.462 347.634 172.246 348.652 172.256ZM348.659 174.102C348.105 174.102 347.605 174.24 347.16 174.514C346.72 174.784 346.372 175.151 346.116 175.615C345.861 176.074 345.733 176.586 345.733 177.149C345.733 177.713 345.856 178.224 346.102 178.683C346.353 179.138 346.694 179.5 347.125 179.77C347.56 180.035 348.058 180.168 348.616 180.168C349.033 180.168 349.421 180.087 349.781 179.926C350.141 179.765 350.456 179.543 350.726 179.259C350.996 178.97 351.206 178.643 351.358 178.278C351.509 177.914 351.585 177.53 351.585 177.128C351.585 176.593 351.457 176.096 351.202 175.636C350.951 175.177 350.605 174.808 350.165 174.528C349.724 174.244 349.222 174.102 348.659 174.102ZM362.048 172.455V187H359.847V174.656H359.762L356.281 176.929V174.827L359.911 172.455H362.048Z" fill="black"/>
<path d="M41.8548 163V160.699L50.4968 151.239C51.511 150.131 52.3462 149.168 53.0025 148.349C53.6587 147.523 54.1445 146.747 54.4599 146.023C54.7837 145.29 54.9457 144.523 54.9457 143.722C54.9457 142.801 54.7241 142.004 54.2809 141.331C53.8462 140.658 53.2496 140.138 52.4911 139.771C51.7326 139.405 50.8803 139.222 49.9343 139.222C48.9286 139.222 48.0508 139.43 47.3008 139.848C46.5593 140.257 45.984 140.832 45.5749 141.574C45.1744 142.315 44.9741 143.185 44.9741 144.182H41.957C41.957 142.648 42.3107 141.301 43.0181 140.142C43.7255 138.983 44.6886 138.08 45.9073 137.432C47.1346 136.784 48.511 136.46 50.0366 136.46C51.5707 136.46 52.93 136.784 54.1147 137.432C55.2994 138.08 56.2283 138.953 56.9016 140.053C57.5749 141.152 57.9116 142.375 57.9116 143.722C57.9116 144.685 57.7369 145.626 57.3874 146.547C57.0465 147.459 56.4499 148.477 55.5977 149.602C54.7539 150.719 53.582 152.082 52.082 153.693L46.2013 159.983V160.188H58.3718V163H41.8548ZM65.9016 163.205C65.271 163.205 64.7298 162.979 64.2781 162.527C63.8263 162.075 63.6005 161.534 63.6005 160.903C63.6005 160.273 63.8263 159.732 64.2781 159.28C64.7298 158.828 65.271 158.602 65.9016 158.602C66.5323 158.602 67.0735 158.828 67.5252 159.28C67.9769 159.732 68.2028 160.273 68.2028 160.903C68.2028 161.321 68.0962 161.705 67.8832 162.054C67.6786 162.403 67.4016 162.685 67.0522 162.898C66.7113 163.102 66.3278 163.205 65.9016 163.205Z" fill="black"/>
<path d="M339.043 163.358C337.356 163.358 335.851 163.068 334.53 162.489C333.218 161.909 332.174 161.104 331.398 160.072C330.631 159.033 330.214 157.827 330.145 156.455H333.367C333.435 157.298 333.725 158.027 334.236 158.641C334.748 159.246 335.417 159.714 336.243 160.047C337.07 160.379 337.986 160.545 338.992 160.545C340.117 160.545 341.114 160.349 341.983 159.957C342.853 159.565 343.535 159.02 344.029 158.321C344.523 157.622 344.77 156.812 344.77 155.892C344.77 154.929 344.532 154.081 344.055 153.348C343.577 152.607 342.878 152.027 341.958 151.609C341.037 151.192 339.912 150.983 338.583 150.983H336.486V148.17H338.583C339.623 148.17 340.535 147.983 341.319 147.608C342.111 147.233 342.729 146.705 343.172 146.023C343.624 145.341 343.85 144.54 343.85 143.619C343.85 142.733 343.654 141.962 343.262 141.305C342.87 140.649 342.316 140.138 341.6 139.771C340.893 139.405 340.057 139.222 339.094 139.222C338.191 139.222 337.339 139.388 336.537 139.72C335.745 140.044 335.097 140.517 334.594 141.139C334.091 141.753 333.819 142.494 333.776 143.364H330.708C330.759 141.991 331.172 140.79 331.948 139.759C332.724 138.719 333.738 137.909 334.991 137.33C336.252 136.75 337.637 136.46 339.145 136.46C340.765 136.46 342.154 136.788 343.313 137.445C344.472 138.092 345.363 138.949 345.985 140.014C346.607 141.08 346.918 142.23 346.918 143.466C346.918 144.94 346.53 146.197 345.755 147.237C344.988 148.277 343.944 148.997 342.623 149.398V149.602C344.276 149.875 345.567 150.578 346.496 151.712C347.425 152.837 347.89 154.23 347.89 155.892C347.89 157.315 347.502 158.594 346.726 159.727C345.959 160.852 344.911 161.739 343.581 162.386C342.252 163.034 340.739 163.358 339.043 163.358ZM354.56 163.205C353.929 163.205 353.388 162.979 352.936 162.527C352.485 162.075 352.259 161.534 352.259 160.903C352.259 160.273 352.485 159.732 352.936 159.28C353.388 158.828 353.929 158.602 354.56 158.602C355.191 158.602 355.732 158.828 356.183 159.28C356.635 159.732 356.861 160.273 356.861 160.903C356.861 161.321 356.754 161.705 356.541 162.054C356.337 162.403 356.06 162.685 355.71 162.898C355.369 163.102 354.986 163.205 354.56 163.205Z" fill="black"/>
<path d="M51.3215 187.25L47.4823 180.62C48.2679 179.177 48.6772 177.56 48.6723 175.917C48.6723 173.287 47.6275 170.764 45.7678 168.905C43.908 167.045 41.3857 166 38.7556 166C36.1256 166 33.6032 167.045 31.7435 168.905C29.8838 170.764 28.839 173.287 28.839 175.917C28.8341 177.56 29.2434 179.177 30.029 180.62L26.1898 187.25C26.0652 187.466 25.9998 187.711 26 187.96C26.0002 188.209 26.0662 188.454 26.1912 188.669C26.3162 188.885 26.4958 189.063 26.712 189.187C26.9281 189.311 27.1731 189.376 27.4223 189.375H31.4881L33.5565 192.86C33.6262 192.976 33.7121 193.08 33.8115 193.172C34.0741 193.425 34.4242 193.567 34.789 193.568H34.9873C35.2012 193.539 35.4055 193.461 35.5848 193.341C35.764 193.221 35.9134 193.061 36.0215 192.874L38.7556 188.171L41.4898 192.917C41.5995 193.101 41.7496 193.258 41.9287 193.376C42.1078 193.493 42.3114 193.569 42.524 193.597H42.7223C43.092 193.599 43.4478 193.457 43.714 193.2C43.8093 193.114 43.8905 193.014 43.9548 192.903L46.0231 189.418H50.089C50.3386 189.418 50.5841 189.354 50.8005 189.229C51.0169 189.105 51.1967 188.925 51.3215 188.709C51.4538 188.489 51.5238 188.237 51.5238 187.98C51.5238 187.723 51.4538 187.47 51.3215 187.25ZM34.7748 189.418L33.514 187.307C33.3898 187.097 33.2138 186.923 33.0029 186.802C32.7919 186.68 32.5533 186.615 32.3098 186.612H29.859L31.8848 183.099C33.2798 184.443 35.038 185.35 36.9423 185.706L34.7748 189.418ZM38.7556 183C37.3547 183 35.9852 182.585 34.8203 181.806C33.6555 181.028 32.7476 179.922 32.2115 178.627C31.6754 177.333 31.5351 175.909 31.8084 174.535C32.0817 173.161 32.7563 171.899 33.747 170.908C34.7376 169.917 35.9997 169.243 37.3737 168.969C38.7478 168.696 40.172 168.836 41.4663 169.373C42.7606 169.909 43.8669 170.817 44.6452 171.981C45.4235 173.146 45.839 174.516 45.839 175.917C45.839 177.795 45.0927 179.597 43.7643 180.925C42.4359 182.254 40.6343 183 38.7556 183ZM45.2015 186.612C44.958 186.615 44.7193 186.68 44.5084 186.802C44.2975 186.923 44.1215 187.097 43.9973 187.307L42.7365 189.418L40.5831 185.663C42.4807 185.3 44.2324 184.394 45.6265 183.057L47.6523 186.57L45.2015 186.612Z" fill="black"/>
<path d="M192.321 187.25L188.482 180.62C189.268 179.177 189.677 177.56 189.672 175.917C189.672 173.287 188.628 170.764 186.768 168.905C184.908 167.045 182.386 166 179.756 166C177.126 166 174.603 167.045 172.743 168.905C170.884 170.764 169.839 173.287 169.839 175.917C169.834 177.56 170.243 179.177 171.029 180.62L167.19 187.25C167.065 187.466 167 187.711 167 187.96C167 188.209 167.066 188.454 167.191 188.669C167.316 188.885 167.496 189.063 167.712 189.187C167.928 189.311 168.173 189.376 168.422 189.375H172.488L174.556 192.86C174.626 192.976 174.712 193.08 174.811 193.172C175.074 193.425 175.424 193.567 175.789 193.568H175.987C176.201 193.539 176.406 193.461 176.585 193.341C176.764 193.221 176.913 193.061 177.021 192.874L179.756 188.171L182.49 192.917C182.599 193.101 182.75 193.258 182.929 193.376C183.108 193.493 183.311 193.569 183.524 193.597H183.722C184.092 193.599 184.448 193.457 184.714 193.2C184.809 193.114 184.891 193.014 184.955 192.903L187.023 189.418H191.089C191.339 189.418 191.584 189.354 191.8 189.229C192.017 189.105 192.197 188.925 192.321 188.709C192.454 188.489 192.524 188.237 192.524 187.98C192.524 187.723 192.454 187.47 192.321 187.25ZM175.775 189.418L174.514 187.307C174.39 187.097 174.214 186.923 174.003 186.802C173.792 186.68 173.553 186.615 173.31 186.612H170.859L172.885 183.099C174.28 184.443 176.038 185.35 177.942 185.706L175.775 189.418ZM179.756 183C178.355 183 176.985 182.585 175.82 181.806C174.656 181.028 173.748 179.922 173.211 178.627C172.675 177.333 172.535 175.909 172.808 174.535C173.082 173.161 173.756 171.899 174.747 170.908C175.738 169.917 177 169.243 178.374 168.969C179.748 168.696 181.172 168.836 182.466 169.373C183.761 169.909 184.867 170.817 185.645 171.981C186.424 173.146 186.839 174.516 186.839 175.917C186.839 177.795 186.093 179.597 184.764 180.925C183.436 182.254 181.634 183 179.756 183ZM186.201 186.612C185.958 186.615 185.719 186.68 185.508 186.802C185.297 186.923 185.121 187.097 184.997 187.307L183.736 189.418L181.583 185.663C183.481 185.3 185.232 184.394 186.626 183.057L188.652 186.57L186.201 186.612Z" fill="black"/>
<path d="M338.321 184.25L334.482 177.62C335.268 176.177 335.677 174.56 335.672 172.917C335.672 170.287 334.628 167.764 332.768 165.905C330.908 164.045 328.386 163 325.756 163C323.126 163 320.603 164.045 318.743 165.905C316.884 167.764 315.839 170.287 315.839 172.917C315.834 174.56 316.243 176.177 317.029 177.62L313.19 184.25C313.065 184.466 313 184.711 313 184.96C313 185.209 313.066 185.454 313.191 185.669C313.316 185.885 313.496 186.063 313.712 186.187C313.928 186.311 314.173 186.376 314.422 186.375H318.488L320.556 189.86C320.626 189.976 320.712 190.08 320.811 190.172C321.074 190.425 321.424 190.567 321.789 190.568H321.987C322.201 190.539 322.406 190.461 322.585 190.341C322.764 190.221 322.913 190.061 323.021 189.874L325.756 185.171L328.49 189.917C328.599 190.101 328.75 190.258 328.929 190.376C329.108 190.493 329.311 190.569 329.524 190.597H329.722C330.092 190.599 330.448 190.457 330.714 190.2C330.809 190.114 330.891 190.014 330.955 189.903L333.023 186.418H337.089C337.339 186.418 337.584 186.354 337.8 186.229C338.017 186.105 338.197 185.925 338.321 185.709C338.454 185.489 338.524 185.237 338.524 184.98C338.524 184.723 338.454 184.47 338.321 184.25ZM321.775 186.418L320.514 184.307C320.39 184.097 320.214 183.923 320.003 183.802C319.792 183.68 319.553 183.615 319.31 183.612H316.859L318.885 180.099C320.28 181.443 322.038 182.35 323.942 182.706L321.775 186.418ZM325.756 180C324.355 180 322.985 179.585 321.82 178.806C320.656 178.028 319.748 176.922 319.211 175.627C318.675 174.333 318.535 172.909 318.808 171.535C319.082 170.161 319.756 168.899 320.747 167.908C321.738 166.917 323 166.243 324.374 165.969C325.748 165.696 327.172 165.836 328.466 166.373C329.761 166.909 330.867 167.817 331.645 168.981C332.424 170.146 332.839 171.516 332.839 172.917C332.839 174.795 332.093 176.597 330.764 177.925C329.436 179.254 327.634 180 325.756 180ZM332.201 183.612C331.958 183.615 331.719 183.68 331.508 183.802C331.297 183.923 331.121 184.097 330.997 184.307L329.736 186.418L327.583 182.663C329.481 182.3 331.232 181.394 332.626 180.057L334.652 183.57L332.201 183.612Z" fill="black"/>
</svg>
